<?xml version="1.0" encoding="UTF-8" standalone="no"?><svg xmlns="http://www.w3.org/2000/svg" xmlns:xlink="http://www.w3.org/1999/xlink" clip-rule="evenodd" stroke-miterlimit="10" viewBox="0 0 1920 1080"><desc>SVG generated by Keynote</desc><defs></defs><g transform="matrix(1.00, 0.00, -0.00, -1.00, 0.0, 1080.0)"><path d="M 0.0 1080.0 L 1920.0 1080.0 L 1920.0 0.0 L 0.0 0.0 Z M 0.0 1080.0 " fill="#000000"></path><text xml:space="preserve" font-family="Impact,Impact" font-weight="bold" font-size="148.0" fill="#FEFFFF" transform="matrix(1.00, 0.00, -0.00, -1.00, 553.7, 881.3)">P</text><text xml:space="preserve" font-family="Impact,Impact" font-weight="bold" font-size="148.0" fill="#FEFFFF" transform="matrix(1.00, 0.00, -0.00, -1.00, 624.3, 881.3)">A</text><text xml:space="preserve" font-family="Impact,Impact" font-weight="bold" font-size="148.0" fill="#FEFFFF" transform="matrix(1.00, 0.00, -0.00, -1.00, 699.5, 881.3)">R</text><text xml:space="preserve" font-family="Impact,Impact" font-weight="bold" font-size="148.0" fill="#FEFFFF" transform="matrix(1.00, 0.00, -0.00, -1.00, 779.2, 881.3)">T</text><text xml:space="preserve" font-family="Impact,Impact" font-weight="bold" font-size="148.0" fill="#FEFFFF" transform="matrix(1.00, 0.00, -0.00, -1.00, 847.5, 881.3)">I</text><text xml:space="preserve" font-family="Impact,Impact" font-weight="bold" font-size="148.0" fill="#FEFFFF" transform="matrix(1.00, 0.00, -0.00, -1.00, 890.1, 881.3)">T</text><text xml:space="preserve" font-family="Impact,Impact" font-weight="bold" font-size="148.0" fill="#FEFFFF" transform="matrix(1.00, 0.00, -0.00, -1.00, 958.3, 881.3)">I</text><text xml:space="preserve" font-family="Impact,Impact" font-weight="bold" font-size="148.0" fill="#FEFFFF" transform="matrix(1.00, 0.00, -0.00, -1.00, 1001.0, 881.3)">O</text><text xml:space="preserve" font-family="Impact,Impact" font-weight="bold" font-size="148.0" fill="#FEFFFF" transform="matrix(1.00, 0.00, -0.00, -1.00, 1081.9, 881.3)">N</text><text xml:space="preserve" font-family="Impact,Impact" font-weight="bold" font-size="148.0" fill="#FEFFFF" transform="matrix(1.00, 0.00, -0.00, -1.00, 1161.9, 881.3)">I</text><text xml:space="preserve" font-family="Impact,Impact" font-weight="bold" font-size="148.0" fill="#FEFFFF" transform="matrix(1.00, 0.00, -0.00, -1.00, 1204.5, 881.3)">N</text><text xml:space="preserve" font-family="Impact,Impact" font-weight="bold" font-size="148.0" fill="#FEFFFF" transform="matrix(1.00, 0.00, -0.00, -1.00, 1284.5, 881.3)">G</text><text xml:space="preserve" font-family="Impact,Impact" font-weight="bold" font-size="148.0" fill="#FEFFFF" transform="matrix(1.00, 0.00, -0.00, -1.00, 1366.1, 881.3)"> </text><text xml:space="preserve" font-family="Impact,Impact" font-weight="bold" font-size="76.0" fill="#FEFFFF" transform="matrix(1.00, 0.00, -0.00, -1.00, 140.4, 680.1)">C</text><text xml:space="preserve" font-family="Impact,Impact" font-weight="bold" font-size="76.0" fill="#FEFFFF" transform="matrix(1.00, 0.00, -0.00, -1.00, 182.4, 680.1)">A</text><text xml:space="preserve" font-family="Impact,Impact" font-weight="bold" font-size="76.0" fill="#FEFFFF" transform="matrix(1.00, 0.00, -0.00, -1.00, 221.0, 680.1)">N</text><text xml:space="preserve" font-family="Impact,Impact" font-weight="bold" font-size="76.0" fill="#FEFFFF" transform="matrix(1.00, 0.00, -0.00, -1.00, 262.1, 680.1)"> </text><text xml:space="preserve" font-family="Impact,Impact" font-weight="bold" font-size="76.0" fill="#FEFFFF" transform="matrix(1.00, 0.00, -0.00, -1.00, 275.6, 680.1)">H</text><text xml:space="preserve" font-family="Impact,Impact" font-weight="bold" font-size="76.0" fill="#FEFFFF" transform="matrix(1.00, 0.00, -0.00, -1.00, 317.8, 680.1)">E</text><text xml:space="preserve" font-family="Impact,Impact" font-weight="bold" font-size="76.0" fill="#FEFFFF" transform="matrix(1.00, 0.00, -0.00, -1.00, 349.3, 680.1)">L</text><text xml:space="preserve" font-family="Impact,Impact" font-weight="bold" font-size="76.0" fill="#FEFFFF" transform="matrix(1.00, 0.00, -0.00, -1.00, 378.2, 680.1)">P</text><text xml:space="preserve" font-family="Impact,Impact" font-weight="bold" font-size="76.0" fill="#FEFFFF" transform="matrix(1.00, 0.00, -0.00, -1.00, 416.4, 680.1)"> </text><text xml:space="preserve" font-family="Impact,Impact" font-weight="bold" font-size="76.0" fill="#FEFFFF" transform="matrix(1.00, 0.00, -0.00, -1.00, 429.8, 680.1)">C</text><text xml:space="preserve" font-family="Impact,Impact" font-weight="bold" font-size="76.0" fill="#FEFFFF" transform="matrix(1.00, 0.00, -0.00, -1.00, 471.9, 680.1)">I</text><text xml:space="preserve" font-family="Impact,Impact" font-weight="bold" font-size="76.0" fill="#FEFFFF" transform="matrix(1.00, 0.00, -0.00, -1.00, 493.8, 680.1)">R</text><text xml:space="preserve" font-family="Impact,Impact" font-weight="bold" font-size="76.0" fill="#FEFFFF" transform="matrix(1.00, 0.00, -0.00, -1.00, 534.7, 680.1)">C</text><text xml:space="preserve" font-family="Impact,Impact" font-weight="bold" font-size="76.0" fill="#FEFFFF" transform="matrix(1.00, 0.00, -0.00, -1.00, 576.7, 680.1)">U</text><text xml:space="preserve" font-family="Impact,Impact" font-weight="bold" font-size="76.0" fill="#FEFFFF" transform="matrix(1.00, 0.00, -0.00, -1.00, 618.3, 680.1)">M</text><text xml:space="preserve" font-family="Impact,Impact" font-weight="bold" font-size="76.0" fill="#FEFFFF" transform="matrix(1.00, 0.00, -0.00, -1.00, 672.8, 680.1)">V</text><text xml:space="preserve" font-family="Impact,Impact" font-weight="bold" font-size="76.0" fill="#FEFFFF" transform="matrix(1.00, 0.00, -0.00, -1.00, 712.6, 680.1)">E</text><text xml:space="preserve" font-family="Impact,Impact" font-weight="bold" font-size="76.0" fill="#FEFFFF" transform="matrix(1.00, 0.00, -0.00, -1.00, 744.1, 680.1)">N</text><text xml:space="preserve" font-family="Impact,Impact" font-weight="bold" font-size="76.0" fill="#FEFFFF" transform="matrix(1.00, 0.00, -0.00, -1.00, 785.2, 680.1)">T</text><text xml:space="preserve" font-family="Impact,Impact" font-weight="bold" font-size="76.0" fill="#FEFFFF" transform="matrix(1.00, 0.00, -0.00, -1.00, 820.2, 680.1)"> </text><text xml:space="preserve" font-family="Impact,Impact" font-weight="bold" font-size="76.0" fill="#FEFFFF" transform="matrix(1.00, 0.00, -0.00, -1.00, 833.7, 680.1)">F</text><text xml:space="preserve" font-family="Impact,Impact" font-weight="bold" font-size="76.0" fill="#FEFFFF" transform="matrix(1.00, 0.00, -0.00, -1.00, 862.4, 680.1)">A</text><text xml:space="preserve" font-family="Impact,Impact" font-weight="bold" font-size="76.0" fill="#FEFFFF" transform="matrix(1.00, 0.00, -0.00, -1.00, 901.0, 680.1)">I</text><text xml:space="preserve" font-family="Impact,Impact" font-weight="bold" font-size="76.0" fill="#FEFFFF" transform="matrix(1.00, 0.00, -0.00, -1.00, 922.9, 680.1)">L</text><text xml:space="preserve" font-family="Impact,Impact" font-weight="bold" font-size="76.0" fill="#FEFFFF" transform="matrix(1.00, 0.00, -0.00, -1.00, 951.8, 680.1)">U</text><text xml:space="preserve" font-family="Impact,Impact" font-weight="bold" font-size="76.0" fill="#FEFFFF" transform="matrix(1.00, 0.00, -0.00, -1.00, 993.4, 680.1)">R</text><text xml:space="preserve" font-family="Impact,Impact" font-weight="bold" font-size="76.0" fill="#FEFFFF" transform="matrix(1.00, 0.00, -0.00, -1.00, 1034.3, 680.1)">E</text><text xml:space="preserve" font-family="Impact,Impact" font-weight="bold" font-size="76.0" fill="#FEFFFF" transform="matrix(1.00, 0.00, -0.00, -1.00, 1065.8, 680.1)">S</text><text xml:space="preserve" font-family="Impact,Impact" font-weight="bold" font-size="76.0" fill="#FEFFFF" transform="matrix(1.00, 0.00, -0.00, -1.00, 1105.1, 680.1)"> </text><text xml:space="preserve" font-family="Impact,Impact" font-weight="bold" font-size="76.0" fill="#FEFFFF" transform="matrix(1.00, 0.00, -0.00, -1.00, 1118.5, 680.1)">T</text><text xml:space="preserve" font-family="Impact,Impact" font-weight="bold" font-size="76.0" fill="#FEFFFF" transform="matrix(1.00, 0.00, -0.00, -1.00, 1153.5, 680.1)">O</text><text xml:space="preserve" font-family="Impact,Impact" font-weight="bold" font-size="76.0" fill="#FEFFFF" transform="matrix(1.00, 0.00, -0.00, -1.00, 1195.1, 680.1)"> </text><text xml:space="preserve" font-family="Impact,Impact" font-weight="bold" font-size="76.0" fill="#FEFFFF" transform="matrix(1.00, 0.00, -0.00, -1.00, 1208.5, 680.1)">A</text><text xml:space="preserve" font-family="Impact,Impact" font-weight="bold" font-size="76.0" fill="#FEFFFF" transform="matrix(1.00, 0.00, -0.00, -1.00, 1247.1, 680.1)"> </text><text xml:space="preserve" font-family="Impact,Impact" font-weight="bold" font-size="76.0" fill="#FEFFFF" transform="matrix(1.00, 0.00, -0.00, -1.00, 1260.5, 680.1)">S</text><text xml:space="preserve" font-family="Impact,Impact" font-weight="bold" font-size="76.0" fill="#FEFFFF" transform="matrix(1.00, 0.00, -0.00, -1.00, 1299.8, 680.1)">U</text><text xml:space="preserve" font-family="Impact,Impact" font-weight="bold" font-size="76.0" fill="#FEFFFF" transform="matrix(1.00, 0.00, -0.00, -1.00, 1341.4, 680.1)">B</text><text xml:space="preserve" font-family="Impact,Impact" font-weight="bold" font-size="76.0" fill="#FEFFFF" transform="matrix(1.00, 0.00, -0.00, -1.00, 1383.4, 680.1)">S</text><text xml:space="preserve" font-family="Impact,Impact" font-weight="bold" font-size="76.0" fill="#FEFFFF" transform="matrix(1.00, 0.00, -0.00, -1.00, 1422.7, 680.1)">E</text><text xml:space="preserve" font-family="Impact,Impact" font-weight="bold" font-size="76.0" fill="#FEFFFF" transform="matrix(1.00, 0.00, -0.00, -1.00, 1453.2, 680.1)">T</text><text xml:space="preserve" font-family="Impact,Impact" font-weight="bold" font-size="76.0" fill="#FEFFFF" transform="matrix(1.00, 0.00, -0.00, -1.00, 1488.2, 680.1)"> </text><text xml:space="preserve" font-family="Impact,Impact" font-weight="bold" font-size="76.0" fill="#FEFFFF" transform="matrix(1.00, 0.00, -0.00, -1.00, 1501.7, 680.1)">O</text><text xml:space="preserve" font-family="Impact,Impact" font-weight="bold" font-size="76.0" fill="#FEFFFF" transform="matrix(1.00, 0.00, -0.00, -1.00, 1543.2, 680.1)">F</text><text xml:space="preserve" font-family="Impact,Impact" font-weight="bold" font-size="76.0" fill="#FEFFFF" transform="matrix(1.00, 0.00, -0.00, -1.00, 1573.4, 680.1)"> </text><text xml:space="preserve" font-family="Impact,Impact" font-weight="bold" font-size="76.0" fill="#FEFFFF" transform="matrix(1.00, 0.00, -0.00, -1.00, 1586.9, 680.1)">U</text><text xml:space="preserve" font-family="Impact,Impact" font-weight="bold" font-size="76.0" fill="#FEFFFF" transform="matrix(1.00, 0.00, -0.00, -1.00, 1628.4, 680.1)">S</text><text xml:space="preserve" font-family="Impact,Impact" font-weight="bold" font-size="76.0" fill="#FEFFFF" transform="matrix(1.00, 0.00, -0.00, -1.00, 1667.7, 680.1)">E</text><text xml:space="preserve" font-family="Impact,Impact" font-weight="bold" font-size="76.0" fill="#FEFFFF" transform="matrix(1.00, 0.00, -0.00, -1.00, 1699.3, 680.1)">R</text><text xml:space="preserve" font-family="Impact,Impact" font-weight="bold" font-size="76.0" fill="#FEFFFF" transform="matrix(1.00, 0.00, -0.00, -1.00, 1740.2, 680.1)">S</text><text xml:space="preserve" font-family="Impact,Impact" font-weight="bold" font-size="76.0" fill="#FEFFFF" transform="matrix(1.00, 0.00, -0.00, -1.00, 1779.5, 680.1)"> </text><text xml:space="preserve" font-family="Impact,Impact" font-weight="bold" font-size="76.0" fill="#FEFFFF" transform="matrix(1.00, 0.00, -0.00, -1.00, 679.9, 494.1)">G</text><text xml:space="preserve" font-family="Impact,Impact" font-weight="bold" font-size="76.0" fill="#FEFFFF" transform="matrix(1.00, 0.00, -0.00, -1.00, 721.8, 494.1)">O</text><text xml:space="preserve" font-family="Impact,Impact" font-weight="bold" font-size="76.0" fill="#FEFFFF" transform="matrix(1.00, 0.00, -0.00, -1.00, 763.3, 494.1)">O</text><text xml:space="preserve" font-family="Impact,Impact" font-weight="bold" font-size="76.0" fill="#FEFFFF" transform="matrix(1.00, 0.00, -0.00, -1.00, 804.9, 494.1)">D</text><text xml:space="preserve" font-family="Impact,Impact" font-weight="bold" font-size="76.0" fill="#FEFFFF" transform="matrix(1.00, 0.00, -0.00, -1.00, 846.8, 494.1)"> </text><text xml:space="preserve" font-family="Impact,Impact" font-weight="bold" font-size="76.0" fill="#FEFFFF" transform="matrix(1.00, 0.00, -0.00, -1.00, 860.3, 494.1)">F</text><text xml:space="preserve" font-family="Impact,Impact" font-weight="bold" font-size="76.0" fill="#FEFFFF" transform="matrix(1.00, 0.00, -0.00, -1.00, 890.5, 494.1)">O</text><text xml:space="preserve" font-family="Impact,Impact" font-weight="bold" font-size="76.0" fill="#FEFFFF" transform="matrix(1.00, 0.00, -0.00, -1.00, 932.1, 494.1)">R</text><text xml:space="preserve" font-family="Impact,Impact" font-weight="bold" font-size="76.0" fill="#FEFFFF" transform="matrix(1.00, 0.00, -0.00, -1.00, 972.9, 494.1)"> </text><text xml:space="preserve" font-family="Impact,Impact" font-weight="bold" font-size="76.0" fill="#FEFFFF" transform="matrix(1.00, 0.00, -0.00, -1.00, 986.4, 494.1)">S</text><text xml:space="preserve" font-family="Impact,Impact" font-weight="bold" font-size="76.0" fill="#FEFFFF" transform="matrix(1.00, 0.00, -0.00, -1.00, 1025.7, 494.1)">C</text><text xml:space="preserve" font-family="Impact,Impact" font-weight="bold" font-size="76.0" fill="#FEFFFF" transform="matrix(1.00, 0.00, -0.00, -1.00, 1067.7, 494.1)">A</text><text xml:space="preserve" font-family="Impact,Impact" font-weight="bold" font-size="76.0" fill="#FEFFFF" transform="matrix(1.00, 0.00, -0.00, -1.00, 1106.3, 494.1)">L</text><text xml:space="preserve" font-family="Impact,Impact" font-weight="bold" font-size="76.0" fill="#FEFFFF" transform="matrix(1.00, 0.00, -0.00, -1.00, 1135.2, 494.1)">I</text><text xml:space="preserve" font-family="Impact,Impact" font-weight="bold" font-size="76.0" fill="#FEFFFF" transform="matrix(1.00, 0.00, -0.00, -1.00, 1157.1, 494.1)">N</text><text xml:space="preserve" font-family="Impact,Impact" font-weight="bold" font-size="76.0" fill="#FEFFFF" transform="matrix(1.00, 0.00, -0.00, -1.00, 1198.2, 494.1)">G</text><text xml:space="preserve" font-family="Impact,Impact" font-weight="bold" font-size="76.0" fill="#FEFFFF" transform="matrix(1.00, 0.00, -0.00, -1.00, 1240.1, 494.1)"> </text><text xml:space="preserve" font-family="Impact,Impact" font-weight="bold" font-size="76.0" fill="#FEFFFF" transform="matrix(1.00, 0.00, -0.00, -1.00, 666.2, 308.1)">B</text><text xml:space="preserve" font-family="Impact,Impact" font-weight="bold" font-size="76.0" fill="#FEFFFF" transform="matrix(1.00, 0.00, -0.00, -1.00, 708.2, 308.1)">U</text><text xml:space="preserve" font-family="Impact,Impact" font-weight="bold" font-size="76.0" fill="#FEFFFF" transform="matrix(1.00, 0.00, -0.00, -1.00, 749.8, 308.1)">T</text><text xml:space="preserve" font-family="Impact,Impact" font-weight="bold" font-size="76.0" fill="#FEFFFF" transform="matrix(1.00, 0.00, -0.00, -1.00, 784.8, 308.1)"> </text><text xml:space="preserve" font-family="Impact,Impact" font-weight="bold" font-size="76.0" fill="#FEFFFF" transform="matrix(1.00, 0.00, -0.00, -1.00, 798.2, 308.1)">N</text><text xml:space="preserve" font-family="Impact,Impact" font-weight="bold" font-size="76.0" fill="#FEFFFF" transform="matrix(1.00, 0.00, -0.00, -1.00, 839.3, 308.1)">O</text><text xml:space="preserve" font-family="Impact,Impact" font-weight="bold" font-size="76.0" fill="#FEFFFF" transform="matrix(1.00, 0.00, -0.00, -1.00, 880.8, 308.1)">T</text><text xml:space="preserve" font-family="Impact,Impact" font-weight="bold" font-size="76.0" fill="#FEFFFF" transform="matrix(1.00, 0.00, -0.00, -1.00, 915.9, 308.1)"> </text><text xml:space="preserve" font-family="Impact,Impact" font-weight="bold" font-size="76.0" fill="#FEFFFF" transform="matrix(1.00, 0.00, -0.00, -1.00, 929.3, 308.1)">M</text><text xml:space="preserve" font-family="Impact,Impact" font-weight="bold" font-size="76.0" fill="#FEFFFF" transform="matrix(1.00, 0.00, -0.00, -1.00, 983.8, 308.1)">U</text><text xml:space="preserve" font-family="Impact,Impact" font-weight="bold" font-size="76.0" fill="#FEFFFF" transform="matrix(1.00, 0.00, -0.00, -1.00, 1025.4, 308.1)">C</text><text xml:space="preserve" font-family="Impact,Impact" font-weight="bold" font-size="76.0" fill="#FEFFFF" transform="matrix(1.00, 0.00, -0.00, -1.00, 1067.4, 308.1)">H</text><text xml:space="preserve" font-family="Impact,Impact" font-weight="bold" font-size="76.0" fill="#FEFFFF" transform="matrix(1.00, 0.00, -0.00, -1.00, 1109.6, 308.1)"> </text><text xml:space="preserve" font-family="Impact,Impact" font-weight="bold" font-size="76.0" fill="#FEFFFF" transform="matrix(1.00, 0.00, -0.00, -1.00, 1123.0, 308.1)">E</text><text xml:space="preserve" font-family="Impact,Impact" font-weight="bold" font-size="76.0" fill="#FEFFFF" transform="matrix(1.00, 0.00, -0.00, -1.00, 1154.5, 308.1)">L</text><text xml:space="preserve" font-family="Impact,Impact" font-weight="bold" font-size="76.0" fill="#FEFFFF" transform="matrix(1.00, 0.00, -0.00, -1.00, 1182.9, 308.1)">S</text><text xml:space="preserve" font-family="Impact,Impact" font-weight="bold" font-size="76.0" fill="#FEFFFF" transform="matrix(1.00, 0.00, -0.00, -1.00, 1222.2, 308.1)">E</text><text xml:space="preserve" font-family="Impact,Impact" font-weight="bold" font-size="76.0" fill="#FEFFFF" transform="matrix(1.00, 0.00, -0.00, -1.00, 1253.8, 308.1)"> </text><text xml:space="preserve" font-family="Impact,Impact" font-weight="bold" font-size="76.0" fill="#FEFFFF" transform="matrix(1.00, 0.00, -0.00, -1.00, 84.9, 122.1)">B</text><text xml:space="preserve" font-family="Impact,Impact" font-weight="bold" font-size="76.0" fill="#FEFFFF" transform="matrix(1.00, 0.00, -0.00, -1.00, 126.9, 122.1)">U</text><text xml:space="preserve" font-family="Impact,Impact" font-weight="bold" font-size="76.0" fill="#FEFFFF" transform="matrix(1.00, 0.00, -0.00, -1.00, 168.5, 122.1)">T</text><text xml:space="preserve" font-family="Impact,Impact" font-weight="bold" font-size="76.0" fill="#FEFFFF" transform="matrix(1.00, 0.00, -0.00, -1.00, 203.5, 122.1)"> </text><text xml:space="preserve" font-family="Impact,Impact" font-weight="bold" font-size="76.0" fill="#FEFFFF" transform="matrix(1.00, 0.00, -0.00, -1.00, 216.9, 122.1)">H</text><text xml:space="preserve" font-family="Impact,Impact" font-weight="bold" font-size="76.0" fill="#FEFFFF" transform="matrix(1.00, 0.00, -0.00, -1.00, 259.1, 122.1)">A</text><text xml:space="preserve" font-family="Impact,Impact" font-weight="bold" font-size="76.0" fill="#FEFFFF" transform="matrix(1.00, 0.00, -0.00, -1.00, 297.7, 122.1)">R</text><text xml:space="preserve" font-family="Impact,Impact" font-weight="bold" font-size="76.0" fill="#FEFFFF" transform="matrix(1.00, 0.00, -0.00, -1.00, 338.6, 122.1)">D</text><text xml:space="preserve" font-family="Impact,Impact" font-weight="bold" font-size="76.0" fill="#FEFFFF" transform="matrix(1.00, 0.00, -0.00, -1.00, 380.6, 122.1)"> </text><text xml:space="preserve" font-family="Impact,Impact" font-weight="bold" font-size="76.0" fill="#FEFFFF" transform="matrix(1.00, 0.00, -0.00, -1.00, 394.0, 122.1)">T</text><text xml:space="preserve" font-family="Impact,Impact" font-weight="bold" font-size="76.0" fill="#FEFFFF" transform="matrix(1.00, 0.00, -0.00, -1.00, 429.0, 122.1)">O</text><text xml:space="preserve" font-family="Impact,Impact" font-weight="bold" font-size="76.0" fill="#FEFFFF" transform="matrix(1.00, 0.00, -0.00, -1.00, 470.6, 122.1)"> </text><text xml:space="preserve" font-family="Impact,Impact" font-weight="bold" font-size="76.0" fill="#FEFFFF" transform="matrix(1.00, 0.00, -0.00, -1.00, 484.0, 122.1)">I</text><text xml:space="preserve" font-family="Impact,Impact" font-weight="bold" font-size="76.0" fill="#FEFFFF" transform="matrix(1.00, 0.00, -0.00, -1.00, 505.9, 122.1)">M</text><text xml:space="preserve" font-family="Impact,Impact" font-weight="bold" font-size="76.0" fill="#FEFFFF" transform="matrix(1.00, 0.00, -0.00, -1.00, 560.4, 122.1)">P</text><text xml:space="preserve" font-family="Impact,Impact" font-weight="bold" font-size="76.0" fill="#FEFFFF" transform="matrix(1.00, 0.00, -0.00, -1.00, 598.5, 122.1)">L</text><text xml:space="preserve" font-family="Impact,Impact" font-weight="bold" font-size="76.0" fill="#FEFFFF" transform="matrix(1.00, 0.00, -0.00, -1.00, 627.5, 122.1)">E</text><text xml:space="preserve" font-family="Impact,Impact" font-weight="bold" font-size="76.0" fill="#FEFFFF" transform="matrix(1.00, 0.00, -0.00, -1.00, 659.0, 122.1)">M</text><text xml:space="preserve" font-family="Impact,Impact" font-weight="bold" font-size="76.0" fill="#FEFFFF" transform="matrix(1.00, 0.00, -0.00, -1.00, 713.5, 122.1)">E</text><text xml:space="preserve" font-family="Impact,Impact" font-weight="bold" font-size="76.0" fill="#FEFFFF" transform="matrix(1.00, 0.00, -0.00, -1.00, 745.0, 122.1)">N</text><text xml:space="preserve" font-family="Impact,Impact" font-weight="bold" font-size="76.0" fill="#FEFFFF" transform="matrix(1.00, 0.00, -0.00, -1.00, 786.1, 122.1)">T</text><text xml:space="preserve" font-family="Impact,Impact" font-weight="bold" font-size="76.0" fill="#FEFFFF" transform="matrix(1.00, 0.00, -0.00, -1.00, 821.2, 122.1)"> </text><text xml:space="preserve" font-family="Impact,Impact" font-weight="bold" font-size="76.0" fill="#FEFFFF" transform="matrix(1.00, 0.00, -0.00, -1.00, 834.6, 122.1)">S</text><text xml:space="preserve" font-family="Impact,Impact" font-weight="bold" font-size="76.0" fill="#FEFFFF" transform="matrix(1.00, 0.00, -0.00, -1.00, 873.9, 122.1)">I</text><text xml:space="preserve" font-family="Impact,Impact" font-weight="bold" font-size="76.0" fill="#FEFFFF" transform="matrix(1.00, 0.00, -0.00, -1.00, 895.8, 122.1)">N</text><text xml:space="preserve" font-family="Impact,Impact" font-weight="bold" font-size="76.0" fill="#FEFFFF" transform="matrix(1.00, 0.00, -0.00, -1.00, 936.9, 122.1)">C</text><text xml:space="preserve" font-family="Impact,Impact" font-weight="bold" font-size="76.0" fill="#FEFFFF" transform="matrix(1.00, 0.00, -0.00, -1.00, 979.0, 122.1)">E</text><text xml:space="preserve" font-family="Impact,Impact" font-weight="bold" font-size="76.0" fill="#FEFFFF" transform="matrix(1.00, 0.00, -0.00, -1.00, 1010.5, 122.1)"> </text><text xml:space="preserve" font-family="Impact,Impact" font-weight="bold" font-size="76.0" fill="#FEFFFF" transform="matrix(1.00, 0.00, -0.00, -1.00, 1023.9, 122.1)">C</text><text xml:space="preserve" font-family="Impact,Impact" font-weight="bold" font-size="76.0" fill="#FEFFFF" transform="matrix(1.00, 0.00, -0.00, -1.00, 1066.0, 122.1)">L</text><text xml:space="preserve" font-family="Impact,Impact" font-weight="bold" font-size="76.0" fill="#FEFFFF" transform="matrix(1.00, 0.00, -0.00, -1.00, 1094.9, 122.1)">I</text><text xml:space="preserve" font-family="Impact,Impact" font-weight="bold" font-size="76.0" fill="#FEFFFF" transform="matrix(1.00, 0.00, -0.00, -1.00, 1116.8, 122.1)">E</text><text xml:space="preserve" font-family="Impact,Impact" font-weight="bold" font-size="76.0" fill="#FEFFFF" transform="matrix(1.00, 0.00, -0.00, -1.00, 1148.4, 122.1)">N</text><text xml:space="preserve" font-family="Impact,Impact" font-weight="bold" font-size="76.0" fill="#FEFFFF" transform="matrix(1.00, 0.00, -0.00, -1.00, 1189.5, 122.1)">T</text><text xml:space="preserve" font-family="Impact,Impact" font-weight="bold" font-size="76.0" fill="#FEFFFF" transform="matrix(1.00, 0.00, -0.00, -1.00, 1224.5, 122.1)"> </text><text xml:space="preserve" font-family="Impact,Impact" font-weight="bold" font-size="76.0" fill="#FEFFFF" transform="matrix(1.00, 0.00, -0.00, -1.00, 1237.9, 122.1)">I</text><text xml:space="preserve" font-family="Impact,Impact" font-weight="bold" font-size="76.0" fill="#FEFFFF" transform="matrix(1.00, 0.00, -0.00, -1.00, 1259.8, 122.1)">S</text><text xml:space="preserve" font-family="Impact,Impact" font-weight="bold" font-size="76.0" fill="#FEFFFF" transform="matrix(1.00, 0.00, -0.00, -1.00, 1299.1, 122.1)"> </text><text xml:space="preserve" font-family="Impact,Impact" font-weight="bold" font-size="76.0" fill="#FEFFFF" transform="matrix(1.00, 0.00, -0.00, -1.00, 1312.5, 122.1)">R</text><text xml:space="preserve" font-family="Impact,Impact" font-weight="bold" font-size="76.0" fill="#FEFFFF" transform="matrix(1.00, 0.00, -0.00, -1.00, 1353.4, 122.1)">E</text><text xml:space="preserve" font-family="Impact,Impact" font-weight="bold" font-size="76.0" fill="#FEFFFF" transform="matrix(1.00, 0.00, -0.00, -1.00, 1385.0, 122.1)">S</text><text xml:space="preserve" font-family="Impact,Impact" font-weight="bold" font-size="76.0" fill="#FEFFFF" transform="matrix(1.00, 0.00, -0.00, -1.00, 1424.3, 122.1)">P</text><text xml:space="preserve" font-family="Impact,Impact" font-weight="bold" font-size="76.0" fill="#FEFFFF" transform="matrix(1.00, 0.00, -0.00, -1.00, 1462.4, 122.1)">O</text><text xml:space="preserve" font-family="Impact,Impact" font-weight="bold" font-size="76.0" fill="#FEFFFF" transform="matrix(1.00, 0.00, -0.00, -1.00, 1504.0, 122.1)">N</text><text xml:space="preserve" font-family="Impact,Impact" font-weight="bold" font-size="76.0" fill="#FEFFFF" transform="matrix(1.00, 0.00, -0.00, -1.00, 1545.1, 122.1)">S</text><text xml:space="preserve" font-family="Impact,Impact" font-weight="bold" font-size="76.0" fill="#FEFFFF" transform="matrix(1.00, 0.00, -0.00, -1.00, 1584.4, 122.1)">I</text><text xml:space="preserve" font-family="Impact,Impact" font-weight="bold" font-size="76.0" fill="#FEFFFF" transform="matrix(1.00, 0.00, -0.00, -1.00, 1606.3, 122.1)">B</text><text xml:space="preserve" font-family="Impact,Impact" font-weight="bold" font-size="76.0" fill="#FEFFFF" transform="matrix(1.00, 0.00, -0.00, -1.00, 1648.3, 122.1)">L</text><text xml:space="preserve" font-family="Impact,Impact" font-weight="bold" font-size="76.0" fill="#FEFFFF" transform="matrix(1.00, 0.00, -0.00, -1.00, 1677.3, 122.1)">E</text><text xml:space="preserve" font-family="Impact,Impact" font-weight="bold" font-size="76.0" fill="#FEFFFF" transform="matrix(1.00, 0.00, -0.00, -1.00, 1708.8, 122.1)"> </text><text xml:space="preserve" font-family="Impact,Impact" font-weight="bold" font-size="76.0" fill="#FEFFFF" transform="matrix(1.00, 0.00, -0.00, -1.00, 1722.2, 122.1)">F</text><text xml:space="preserve" font-family="Impact,Impact" font-weight="bold" font-size="76.0" fill="#FEFFFF" transform="matrix(1.00, 0.00, -0.00, -1.00, 1752.4, 122.1)">O</text><text xml:space="preserve" font-family="Impact,Impact" font-weight="bold" font-size="76.0" fill="#FEFFFF" transform="matrix(1.00, 0.00, -0.00, -1.00, 1794.0, 122.1)">R</text><text xml:space="preserve" font-family="Impact,Impact" font-weight="bold" font-size="76.0" fill="#FEFFFF" transform="matrix(1.00, 0.00, -0.00, -1.00, 1834.9, 122.1)"> </text><g><clipPath id="clip0x600000ab0ce0"><path d="M 0.0 13.4 L 1920.0 13.4 L 1920.0 1073.1 L 0.0 1073.1 Z M 0.0 13.4 "></path></clipPath><g clip-path="url(#clip0x600000ab0ce0)"><text xml:space="preserve" font-family="Impact,Impact" font-weight="bold" font-size="76.0" fill="#FEFFFF" transform="matrix(1.00, 0.00, -0.00, -1.00, 523.6, 29.1)">I</text><text xml:space="preserve" font-family="Impact,Impact" font-weight="bold" font-size="76.0" fill="#FEFFFF" transform="matrix(1.00, 0.00, -0.00, -1.00, 545.5, 29.1)">M</text><text xml:space="preserve" font-family="Impact,Impact" font-weight="bold" font-size="76.0" fill="#FEFFFF" transform="matrix(1.00, 0.00, -0.00, -1.00, 599.9, 29.1)">P</text><text xml:space="preserve" font-family="Impact,Impact" font-weight="bold" font-size="76.0" fill="#FEFFFF" transform="matrix(1.00, 0.00, -0.00, -1.00, 638.1, 29.1)">L</text><text xml:space="preserve" font-family="Impact,Impact" font-weight="bold" font-size="76.0" fill="#FEFFFF" transform="matrix(1.00, 0.00, -0.00, -1.00, 667.0, 29.1)">E</text><text xml:space="preserve" font-family="Impact,Impact" font-weight="bold" font-size="76.0" fill="#FEFFFF" transform="matrix(1.00, 0.00, -0.00, -1.00, 698.6, 29.1)">M</text><text xml:space="preserve" font-family="Impact,Impact" font-weight="bold" font-size="76.0" fill="#FEFFFF" transform="matrix(1.00, 0.00, -0.00, -1.00, 753.0, 29.1)">E</text><text xml:space="preserve" font-family="Impact,Impact" font-weight="bold" font-size="76.0" fill="#FEFFFF" transform="matrix(1.00, 0.00, -0.00, -1.00, 784.6, 29.1)">N</text><text xml:space="preserve" font-family="Impact,Impact" font-weight="bold" font-size="76.0" fill="#FEFFFF" transform="matrix(1.00, 0.00, -0.00, -1.00, 825.7, 29.1)">T</text><text xml:space="preserve" font-family="Impact,Impact" font-weight="bold" font-size="76.0" fill="#FEFFFF" transform="matrix(1.00, 0.00, -0.00, -1.00, 860.7, 29.1)">I</text><text xml:space="preserve" font-family="Impact,Impact" font-weight="bold" font-size="76.0" fill="#FEFFFF" transform="matrix(1.00, 0.00, -0.00, -1.00, 882.6, 29.1)">N</text><text xml:space="preserve" font-family="Impact,Impact" font-weight="bold" font-size="76.0" fill="#FEFFFF" transform="matrix(1.00, 0.00, -0.00, -1.00, 923.7, 29.1)">G</text><text xml:space="preserve" font-family="Impact,Impact" font-weight="bold" font-size="76.0" fill="#FEFFFF" transform="matrix(1.00, 0.00, -0.00, -1.00, 965.6, 29.1)"> </text><text xml:space="preserve" font-family="Impact,Impact" font-weight="bold" font-size="76.0" fill="#FEFFFF" transform="matrix(1.00, 0.00, -0.00, -1.00, 979.1, 29.1)">P</text><text xml:space="preserve" font-family="Impact,Impact" font-weight="bold" font-size="76.0" fill="#FEFFFF" transform="matrix(1.00, 0.00, -0.00, -1.00, 1015.3, 29.1)">A</text><text xml:space="preserve" font-family="Impact,Impact" font-weight="bold" font-size="76.0" fill="#FEFFFF" transform="matrix(1.00, 0.00, -0.00, -1.00, 1053.9, 29.1)">R</text><text xml:space="preserve" font-family="Impact,Impact" font-weight="bold" font-size="76.0" fill="#FEFFFF" transform="matrix(1.00, 0.00, -0.00, -1.00, 1094.8, 29.1)">T</text><text xml:space="preserve" font-family="Impact,Impact" font-weight="bold" font-size="76.0" fill="#FEFFFF" transform="matrix(1.00, 0.00, -0.00, -1.00, 1129.8, 29.1)">I</text><text xml:space="preserve" font-family="Impact,Impact" font-weight="bold" font-size="76.0" fill="#FEFFFF" transform="matrix(1.00, 0.00, -0.00, -1.00, 1151.7, 29.1)">T</text><text xml:space="preserve" font-family="Impact,Impact" font-weight="bold" font-size="76.0" fill="#FEFFFF" transform="matrix(1.00, 0.00, -0.00, -1.00, 1186.8, 29.1)">I</text><text xml:space="preserve" font-family="Impact,Impact" font-weight="bold" font-size="76.0" fill="#FEFFFF" transform="matrix(1.00, 0.00, -0.00, -1.00, 1208.7, 29.1)">O</text><text xml:space="preserve" font-family="Impact,Impact" font-weight="bold" font-size="76.0" fill="#FEFFFF" transform="matrix(1.00, 0.00, -0.00, -1.00, 1250.2, 29.1)">N</text><text xml:space="preserve" font-family="Impact,Impact" font-weight="bold" font-size="76.0" fill="#FEFFFF" transform="matrix(1.00, 0.00, -0.00, -1.00, 1291.3, 29.1)">I</text><text xml:space="preserve" font-family="Impact,Impact" font-weight="bold" font-size="76.0" fill="#FEFFFF" transform="matrix(1.00, 0.00, -0.00, -1.00, 1313.2, 29.1)">N</text><text xml:space="preserve" font-family="Impact,Impact" font-weight="bold" font-size="76.0" fill="#FEFFFF" transform="matrix(1.00, 0.00, -0.00, -1.00, 1354.3, 29.1)">G</text></g></g></g></svg>