<?xml version="1.0" encoding="UTF-8" standalone="no"?><svg xmlns="http://www.w3.org/2000/svg" xmlns:xlink="http://www.w3.org/1999/xlink" clip-rule="evenodd" stroke-miterlimit="10" viewBox="0 0 1920 1080"><desc>SVG generated by Keynote</desc><defs></defs><g transform="matrix(1.00, 0.00, -0.00, -1.00, 0.0, 1080.0)"><path d="M 0.0 1080.0 L 1920.0 1080.0 L 1920.0 0.0 L 0.0 0.0 Z M 0.0 1080.0 " fill="#000000"></path><text xml:space="preserve" font-family="Impact,Impact" font-weight="bold" font-size="86.8" fill="#FEFFFF" transform="matrix(1.00, 0.00, -0.00, -1.00, 737.5, 982.5)">C</text><text xml:space="preserve" font-family="Impact,Impact" font-weight="bold" font-size="86.8" fill="#FEFFFF" transform="matrix(1.00, 0.00, -0.00, -1.00, 785.6, 982.5)">A</text><text xml:space="preserve" font-family="Impact,Impact" font-weight="bold" font-size="86.8" fill="#FEFFFF" transform="matrix(1.00, 0.00, -0.00, -1.00, 829.6, 982.5)">P</text><text xml:space="preserve" font-family="Impact,Impact" font-weight="bold" font-size="86.8" fill="#FEFFFF" transform="matrix(1.00, 0.00, -0.00, -1.00, 873.2, 982.5)"> </text><text xml:space="preserve" font-family="Impact,Impact" font-weight="bold" font-size="86.8" fill="#FEFFFF" transform="matrix(1.00, 0.00, -0.00, -1.00, 888.5, 982.5)">T</text><text xml:space="preserve" font-family="Impact,Impact" font-weight="bold" font-size="86.8" fill="#FEFFFF" transform="matrix(1.00, 0.00, -0.00, -1.00, 928.5, 982.5)">H</text><text xml:space="preserve" font-family="Impact,Impact" font-weight="bold" font-size="86.8" fill="#FEFFFF" transform="matrix(1.00, 0.00, -0.00, -1.00, 976.7, 982.5)">O</text><text xml:space="preserve" font-family="Impact,Impact" font-weight="bold" font-size="86.8" fill="#FEFFFF" transform="matrix(1.00, 0.00, -0.00, -1.00, 1024.2, 982.5)">R</text><text xml:space="preserve" font-family="Impact,Impact" font-weight="bold" font-size="86.8" fill="#FEFFFF" transform="matrix(1.00, 0.00, -0.00, -1.00, 1070.9, 982.5)">E</text><text xml:space="preserve" font-family="Impact,Impact" font-weight="bold" font-size="86.8" fill="#FEFFFF" transform="matrix(1.00, 0.00, -0.00, -1.00, 1106.9, 982.5)">M</text><text xml:space="preserve" font-family="Impact,Impact" font-weight="bold" font-size="86.8" fill="#FEFFFF" transform="matrix(1.00, 0.00, -0.00, -1.00, 1169.1, 982.5)"> </text><text xml:space="preserve" font-family="Impact,Impact" font-weight="bold" font-size="86.8" fill="#FEFFFF" transform="matrix(1.00, 0.00, -0.00, -1.00, 480.4, 770.5)">W</text><text xml:space="preserve" font-family="Impact,Impact" font-weight="bold" font-size="86.8" fill="#FEFFFF" transform="matrix(1.00, 0.00, -0.00, -1.00, 551.2, 770.5)">H</text><text xml:space="preserve" font-family="Impact,Impact" font-weight="bold" font-size="86.8" fill="#FEFFFF" transform="matrix(1.00, 0.00, -0.00, -1.00, 599.4, 770.5)">E</text><text xml:space="preserve" font-family="Impact,Impact" font-weight="bold" font-size="86.8" fill="#FEFFFF" transform="matrix(1.00, 0.00, -0.00, -1.00, 635.4, 770.5)">N</text><text xml:space="preserve" font-family="Impact,Impact" font-weight="bold" font-size="86.8" fill="#FEFFFF" transform="matrix(1.00, 0.00, -0.00, -1.00, 682.4, 770.5)"> </text><text xml:space="preserve" font-family="Impact,Impact" font-weight="bold" font-size="86.8" fill="#FEFFFF" transform="matrix(1.00, 0.00, -0.00, -1.00, 697.7, 770.5)">A</text><text xml:space="preserve" font-family="Impact,Impact" font-weight="bold" font-size="86.8" fill="#FEFFFF" transform="matrix(1.00, 0.00, -0.00, -1.00, 741.8, 770.5)"> </text><text xml:space="preserve" font-family="Impact,Impact" font-weight="bold" font-size="86.8" fill="#FEFFFF" transform="matrix(1.00, 0.00, -0.00, -1.00, 757.1, 770.5)">P</text><text xml:space="preserve" font-family="Impact,Impact" font-weight="bold" font-size="86.8" fill="#FEFFFF" transform="matrix(1.00, 0.00, -0.00, -1.00, 798.5, 770.5)">A</text><text xml:space="preserve" font-family="Impact,Impact" font-weight="bold" font-size="86.8" fill="#FEFFFF" transform="matrix(1.00, 0.00, -0.00, -1.00, 842.6, 770.5)">R</text><text xml:space="preserve" font-family="Impact,Impact" font-weight="bold" font-size="86.8" fill="#FEFFFF" transform="matrix(1.00, 0.00, -0.00, -1.00, 889.3, 770.5)">T</text><text xml:space="preserve" font-family="Impact,Impact" font-weight="bold" font-size="86.8" fill="#FEFFFF" transform="matrix(1.00, 0.00, -0.00, -1.00, 929.3, 770.5)">I</text><text xml:space="preserve" font-family="Impact,Impact" font-weight="bold" font-size="86.8" fill="#FEFFFF" transform="matrix(1.00, 0.00, -0.00, -1.00, 954.3, 770.5)">T</text><text xml:space="preserve" font-family="Impact,Impact" font-weight="bold" font-size="86.8" fill="#FEFFFF" transform="matrix(1.00, 0.00, -0.00, -1.00, 994.3, 770.5)">I</text><text xml:space="preserve" font-family="Impact,Impact" font-weight="bold" font-size="86.8" fill="#FEFFFF" transform="matrix(1.00, 0.00, -0.00, -1.00, 1019.3, 770.5)">O</text><text xml:space="preserve" font-family="Impact,Impact" font-weight="bold" font-size="86.8" fill="#FEFFFF" transform="matrix(1.00, 0.00, -0.00, -1.00, 1066.8, 770.5)">N</text><text xml:space="preserve" font-family="Impact,Impact" font-weight="bold" font-size="86.8" fill="#FEFFFF" transform="matrix(1.00, 0.00, -0.00, -1.00, 1113.7, 770.5)"> </text><text xml:space="preserve" font-family="Impact,Impact" font-weight="bold" font-size="86.8" fill="#FEFFFF" transform="matrix(1.00, 0.00, -0.00, -1.00, 1129.0, 770.5)">O</text><text xml:space="preserve" font-family="Impact,Impact" font-weight="bold" font-size="86.8" fill="#FEFFFF" transform="matrix(1.00, 0.00, -0.00, -1.00, 1176.5, 770.5)">C</text><text xml:space="preserve" font-family="Impact,Impact" font-weight="bold" font-size="86.8" fill="#FEFFFF" transform="matrix(1.00, 0.00, -0.00, -1.00, 1224.5, 770.5)">C</text><text xml:space="preserve" font-family="Impact,Impact" font-weight="bold" font-size="86.8" fill="#FEFFFF" transform="matrix(1.00, 0.00, -0.00, -1.00, 1272.6, 770.5)">U</text><text xml:space="preserve" font-family="Impact,Impact" font-weight="bold" font-size="86.8" fill="#FEFFFF" transform="matrix(1.00, 0.00, -0.00, -1.00, 1320.0, 770.5)">R</text><text xml:space="preserve" font-family="Impact,Impact" font-weight="bold" font-size="86.8" fill="#FEFFFF" transform="matrix(1.00, 0.00, -0.00, -1.00, 1366.8, 770.5)">S</text><text xml:space="preserve" font-family="Impact,Impact" font-weight="bold" font-size="86.8" fill="#FEFFFF" transform="matrix(1.00, 0.00, -0.00, -1.00, 1411.6, 770.5)">,</text><text xml:space="preserve" font-family="Impact,Impact" font-weight="bold" font-size="86.8" fill="#FEFFFF" transform="matrix(1.00, 0.00, -0.00, -1.00, 1426.2, 770.5)"> </text><text xml:space="preserve" font-family="Impact,Impact" font-weight="bold" font-size="86.8" fill="#FEFFFF" transform="matrix(1.00, 0.00, -0.00, -1.00, 590.9, 664.5)">Y</text><text xml:space="preserve" font-family="Impact,Impact" font-weight="bold" font-size="86.8" fill="#FEFFFF" transform="matrix(1.00, 0.00, -0.00, -1.00, 632.0, 664.5)">O</text><text xml:space="preserve" font-family="Impact,Impact" font-weight="bold" font-size="86.8" fill="#FEFFFF" transform="matrix(1.00, 0.00, -0.00, -1.00, 679.4, 664.5)">U</text><text xml:space="preserve" font-family="Impact,Impact" font-weight="bold" font-size="86.8" fill="#FEFFFF" transform="matrix(1.00, 0.00, -0.00, -1.00, 726.9, 664.5)"> </text><text xml:space="preserve" font-family="Impact,Impact" font-weight="bold" font-size="86.8" fill="#FEFFFF" transform="matrix(1.00, 0.00, -0.00, -1.00, 742.2, 664.5)">C</text><text xml:space="preserve" font-family="Impact,Impact" font-weight="bold" font-size="86.8" fill="#FEFFFF" transform="matrix(1.00, 0.00, -0.00, -1.00, 790.3, 664.5)">A</text><text xml:space="preserve" font-family="Impact,Impact" font-weight="bold" font-size="86.8" fill="#FEFFFF" transform="matrix(1.00, 0.00, -0.00, -1.00, 834.4, 664.5)">N</text><text xml:space="preserve" font-family="Impact,Impact" font-weight="bold" font-size="86.8" fill="#FEFFFF" transform="matrix(1.00, 0.00, -0.00, -1.00, 881.3, 664.5)"> </text><text xml:space="preserve" font-family="Impact,Impact" font-weight="bold" font-size="86.8" fill="#FEFFFF" transform="matrix(1.00, 0.00, -0.00, -1.00, 896.6, 664.5)">E</text><text xml:space="preserve" font-family="Impact,Impact" font-weight="bold" font-size="86.8" fill="#FEFFFF" transform="matrix(1.00, 0.00, -0.00, -1.00, 932.6, 664.5)">I</text><text xml:space="preserve" font-family="Impact,Impact" font-weight="bold" font-size="86.8" fill="#FEFFFF" transform="matrix(1.00, 0.00, -0.00, -1.00, 957.6, 664.5)">T</text><text xml:space="preserve" font-family="Impact,Impact" font-weight="bold" font-size="86.8" fill="#FEFFFF" transform="matrix(1.00, 0.00, -0.00, -1.00, 997.6, 664.5)">H</text><text xml:space="preserve" font-family="Impact,Impact" font-weight="bold" font-size="86.8" fill="#FEFFFF" transform="matrix(1.00, 0.00, -0.00, -1.00, 1045.8, 664.5)">E</text><text xml:space="preserve" font-family="Impact,Impact" font-weight="bold" font-size="86.8" fill="#FEFFFF" transform="matrix(1.00, 0.00, -0.00, -1.00, 1081.8, 664.5)">R</text><text xml:space="preserve" font-family="Impact,Impact" font-weight="bold" font-size="86.8" fill="#FEFFFF" transform="matrix(1.00, 0.00, -0.00, -1.00, 1128.5, 664.5)"> </text><text xml:space="preserve" font-family="Impact,Impact" font-weight="bold" font-size="86.8" fill="#FEFFFF" transform="matrix(1.00, 0.00, -0.00, -1.00, 1143.8, 664.5)">H</text><text xml:space="preserve" font-family="Impact,Impact" font-weight="bold" font-size="86.8" fill="#FEFFFF" transform="matrix(1.00, 0.00, -0.00, -1.00, 1192.0, 664.5)">A</text><text xml:space="preserve" font-family="Impact,Impact" font-weight="bold" font-size="86.8" fill="#FEFFFF" transform="matrix(1.00, 0.00, -0.00, -1.00, 1234.1, 664.5)">V</text><text xml:space="preserve" font-family="Impact,Impact" font-weight="bold" font-size="86.8" fill="#FEFFFF" transform="matrix(1.00, 0.00, -0.00, -1.00, 1279.6, 664.5)">E</text><text xml:space="preserve" font-family="Impact,Impact" font-weight="bold" font-size="86.8" fill="#FEFFFF" transform="matrix(1.00, 0.00, -0.00, -1.00, 1315.6, 664.5)"> </text><text xml:space="preserve" font-family="Impact,Impact" font-weight="bold" font-size="86.8" fill="#FEFFFF" transform="matrix(1.00, 0.00, -0.00, -1.00, 718.6, 452.5)">C</text><text xml:space="preserve" font-family="Impact,Impact" font-weight="bold" font-size="86.8" fill="#FEFFFF" transform="matrix(1.00, 0.00, -0.00, -1.00, 766.7, 452.5)">O</text><text xml:space="preserve" font-family="Impact,Impact" font-weight="bold" font-size="86.8" fill="#FEFFFF" transform="matrix(1.00, 0.00, -0.00, -1.00, 814.2, 452.5)">N</text><text xml:space="preserve" font-family="Impact,Impact" font-weight="bold" font-size="86.8" fill="#FEFFFF" transform="matrix(1.00, 0.00, -0.00, -1.00, 861.1, 452.5)">S</text><text xml:space="preserve" font-family="Impact,Impact" font-weight="bold" font-size="86.8" fill="#FEFFFF" transform="matrix(1.00, 0.00, -0.00, -1.00, 906.0, 452.5)">I</text><text xml:space="preserve" font-family="Impact,Impact" font-weight="bold" font-size="86.8" fill="#FEFFFF" transform="matrix(1.00, 0.00, -0.00, -1.00, 931.0, 452.5)">S</text><text xml:space="preserve" font-family="Impact,Impact" font-weight="bold" font-size="86.8" fill="#FEFFFF" transform="matrix(1.00, 0.00, -0.00, -1.00, 975.8, 452.5)">T</text><text xml:space="preserve" font-family="Impact,Impact" font-weight="bold" font-size="86.8" fill="#FEFFFF" transform="matrix(1.00, 0.00, -0.00, -1.00, 1015.8, 452.5)">E</text><text xml:space="preserve" font-family="Impact,Impact" font-weight="bold" font-size="86.8" fill="#FEFFFF" transform="matrix(1.00, 0.00, -0.00, -1.00, 1051.9, 452.5)">N</text><text xml:space="preserve" font-family="Impact,Impact" font-weight="bold" font-size="86.8" fill="#FEFFFF" transform="matrix(1.00, 0.00, -0.00, -1.00, 1098.8, 452.5)">C</text><text xml:space="preserve" font-family="Impact,Impact" font-weight="bold" font-size="86.8" fill="#FEFFFF" transform="matrix(1.00, 0.00, -0.00, -1.00, 1146.9, 452.5)">Y</text><text xml:space="preserve" font-family="Impact,Impact" font-weight="bold" font-size="86.8" fill="#FEFFFF" transform="matrix(1.00, 0.00, -0.00, -1.00, 1187.9, 452.5)"> </text><text xml:space="preserve" font-family="Impact,Impact" font-weight="bold" font-size="86.8" fill="#FEFFFF" transform="matrix(1.00, 0.00, -0.00, -1.00, 906.3, 240.5)">O</text><text xml:space="preserve" font-family="Impact,Impact" font-weight="bold" font-size="86.8" fill="#FEFFFF" transform="matrix(1.00, 0.00, -0.00, -1.00, 953.7, 240.5)">R</text><text xml:space="preserve" font-family="Impact,Impact" font-weight="bold" font-size="86.8" fill="#FEFFFF" transform="matrix(1.00, 0.00, -0.00, -1.00, 1000.4, 240.5)"> </text><text xml:space="preserve" font-family="Impact,Impact" font-weight="bold" font-size="86.8" fill="#FEFFFF" transform="matrix(1.00, 0.00, -0.00, -1.00, 728.9, 28.5)">A</text><text xml:space="preserve" font-family="Impact,Impact" font-weight="bold" font-size="86.8" fill="#FEFFFF" transform="matrix(1.00, 0.00, -0.00, -1.00, 771.0, 28.5)">V</text><text xml:space="preserve" font-family="Impact,Impact" font-weight="bold" font-size="86.8" fill="#FEFFFF" transform="matrix(1.00, 0.00, -0.00, -1.00, 815.4, 28.5)">A</text><text xml:space="preserve" font-family="Impact,Impact" font-weight="bold" font-size="86.8" fill="#FEFFFF" transform="matrix(1.00, 0.00, -0.00, -1.00, 859.5, 28.5)">I</text><text xml:space="preserve" font-family="Impact,Impact" font-weight="bold" font-size="86.8" fill="#FEFFFF" transform="matrix(1.00, 0.00, -0.00, -1.00, 884.4, 28.5)">L</text><text xml:space="preserve" font-family="Impact,Impact" font-weight="bold" font-size="86.8" fill="#FEFFFF" transform="matrix(1.00, 0.00, -0.00, -1.00, 919.7, 28.5)">A</text><text xml:space="preserve" font-family="Impact,Impact" font-weight="bold" font-size="86.8" fill="#FEFFFF" transform="matrix(1.00, 0.00, -0.00, -1.00, 963.8, 28.5)">B</text><text xml:space="preserve" font-family="Impact,Impact" font-weight="bold" font-size="86.8" fill="#FEFFFF" transform="matrix(1.00, 0.00, -0.00, -1.00, 1011.7, 28.5)">I</text><text xml:space="preserve" font-family="Impact,Impact" font-weight="bold" font-size="86.8" fill="#FEFFFF" transform="matrix(1.00, 0.00, -0.00, -1.00, 1036.7, 28.5)">L</text><text xml:space="preserve" font-family="Impact,Impact" font-weight="bold" font-size="86.8" fill="#FEFFFF" transform="matrix(1.00, 0.00, -0.00, -1.00, 1069.8, 28.5)">I</text><text xml:space="preserve" font-family="Impact,Impact" font-weight="bold" font-size="86.8" fill="#FEFFFF" transform="matrix(1.00, 0.00, -0.00, -1.00, 1094.7, 28.5)">T</text><text xml:space="preserve" font-family="Impact,Impact" font-weight="bold" font-size="86.8" fill="#FEFFFF" transform="matrix(1.00, 0.00, -0.00, -1.00, 1136.9, 28.5)">Y</text></g></svg>