<?xml version="1.0" encoding="UTF-8" standalone="no"?><svg xmlns="http://www.w3.org/2000/svg" xmlns:xlink="http://www.w3.org/1999/xlink" clip-rule="evenodd" stroke-miterlimit="10" viewBox="0 0 1920 1080"><desc>SVG generated by Keynote</desc><defs></defs><g transform="matrix(1.00, 0.00, -0.00, -1.00, 0.0, 1080.0)"><path d="M 0.0 1080.0 L 1920.0 1080.0 L 1920.0 0.0 L 0.0 0.0 Z M 0.0 1080.0 " fill="#000000"></path><text xml:space="preserve" font-family="Impact,Impact" font-weight="bold" font-size="218.0" fill="#FEFFFF" transform="matrix(1.00, 0.00, -0.00, -1.00, 414.3, 691.6)">R</text><text xml:space="preserve" font-family="Impact,Impact" font-weight="bold" font-size="218.0" fill="#FEFFFF" transform="matrix(1.00, 0.00, -0.00, -1.00, 531.6, 691.6)">E</text><text xml:space="preserve" font-family="Impact,Impact" font-weight="bold" font-size="218.0" fill="#FEFFFF" transform="matrix(1.00, 0.00, -0.00, -1.00, 622.1, 691.6)">P</text><text xml:space="preserve" font-family="Impact,Impact" font-weight="bold" font-size="218.0" fill="#FEFFFF" transform="matrix(1.00, 0.00, -0.00, -1.00, 731.5, 691.6)">L</text><text xml:space="preserve" font-family="Impact,Impact" font-weight="bold" font-size="218.0" fill="#FEFFFF" transform="matrix(1.00, 0.00, -0.00, -1.00, 814.5, 691.6)">I</text><text xml:space="preserve" font-family="Impact,Impact" font-weight="bold" font-size="218.0" fill="#FEFFFF" transform="matrix(1.00, 0.00, -0.00, -1.00, 877.3, 691.6)">C</text><text xml:space="preserve" font-family="Impact,Impact" font-weight="bold" font-size="218.0" fill="#FEFFFF" transform="matrix(1.00, 0.00, -0.00, -1.00, 998.0, 691.6)">A</text><text xml:space="preserve" font-family="Impact,Impact" font-weight="bold" font-size="218.0" fill="#FEFFFF" transform="matrix(1.00, 0.00, -0.00, -1.00, 1096.6, 691.6)">T</text><text xml:space="preserve" font-family="Impact,Impact" font-weight="bold" font-size="218.0" fill="#FEFFFF" transform="matrix(1.00, 0.00, -0.00, -1.00, 1197.1, 691.6)">I</text><text xml:space="preserve" font-family="Impact,Impact" font-weight="bold" font-size="218.0" fill="#FEFFFF" transform="matrix(1.00, 0.00, -0.00, -1.00, 1259.9, 691.6)">O</text><text xml:space="preserve" font-family="Impact,Impact" font-weight="bold" font-size="218.0" fill="#FEFFFF" transform="matrix(1.00, 0.00, -0.00, -1.00, 1379.1, 691.6)">N</text><text xml:space="preserve" font-family="Impact,Impact" font-weight="bold" font-size="218.0" fill="#FEFFFF" transform="matrix(1.00, 0.00, -0.00, -1.00, 1497.0, 691.6)"> </text><text xml:space="preserve" font-family="Impact,Impact" font-weight="bold" font-size="110.0" fill="#FEFFFF" transform="matrix(1.00, 0.00, -0.00, -1.00, 642.1, 458.8)">E</text><text xml:space="preserve" font-family="Impact,Impact" font-weight="bold" font-size="110.0" fill="#FEFFFF" transform="matrix(1.00, 0.00, -0.00, -1.00, 687.8, 458.8)">A</text><text xml:space="preserve" font-family="Impact,Impact" font-weight="bold" font-size="110.0" fill="#FEFFFF" transform="matrix(1.00, 0.00, -0.00, -1.00, 743.6, 458.8)">S</text><text xml:space="preserve" font-family="Impact,Impact" font-weight="bold" font-size="110.0" fill="#FEFFFF" transform="matrix(1.00, 0.00, -0.00, -1.00, 800.5, 458.8)">Y</text><text xml:space="preserve" font-family="Impact,Impact" font-weight="bold" font-size="110.0" fill="#FEFFFF" transform="matrix(1.00, 0.00, -0.00, -1.00, 852.6, 458.8)"> </text><text xml:space="preserve" font-family="Impact,Impact" font-weight="bold" font-size="110.0" fill="#FEFFFF" transform="matrix(1.00, 0.00, -0.00, -1.00, 872.0, 458.8)">T</text><text xml:space="preserve" font-family="Impact,Impact" font-weight="bold" font-size="110.0" fill="#FEFFFF" transform="matrix(1.00, 0.00, -0.00, -1.00, 922.7, 458.8)">O</text><text xml:space="preserve" font-family="Impact,Impact" font-weight="bold" font-size="110.0" fill="#FEFFFF" transform="matrix(1.00, 0.00, -0.00, -1.00, 982.8, 458.8)"> </text><text xml:space="preserve" font-family="Impact,Impact" font-weight="bold" font-size="110.0" fill="#FEFFFF" transform="matrix(1.00, 0.00, -0.00, -1.00, 1002.2, 458.8)">S</text><text xml:space="preserve" font-family="Impact,Impact" font-weight="bold" font-size="110.0" fill="#FEFFFF" transform="matrix(1.00, 0.00, -0.00, -1.00, 1059.1, 458.8)">E</text><text xml:space="preserve" font-family="Impact,Impact" font-weight="bold" font-size="110.0" fill="#FEFFFF" transform="matrix(1.00, 0.00, -0.00, -1.00, 1103.3, 458.8)">T</text><text xml:space="preserve" font-family="Impact,Impact" font-weight="bold" font-size="110.0" fill="#FEFFFF" transform="matrix(1.00, 0.00, -0.00, -1.00, 1154.0, 458.8)">U</text><text xml:space="preserve" font-family="Impact,Impact" font-weight="bold" font-size="110.0" fill="#FEFFFF" transform="matrix(1.00, 0.00, -0.00, -1.00, 1214.2, 458.8)">P</text><text xml:space="preserve" font-family="Impact,Impact" font-weight="bold" font-size="110.0" fill="#FEFFFF" transform="matrix(1.00, 0.00, -0.00, -1.00, 1269.4, 458.8)"> </text><text xml:space="preserve" font-family="Impact,Impact" font-weight="bold" font-size="110.0" fill="#FEFFFF" transform="matrix(1.00, 0.00, -0.00, -1.00, 636.9, 324.8)">M</text><text xml:space="preserve" font-family="Impact,Impact" font-weight="bold" font-size="110.0" fill="#FEFFFF" transform="matrix(1.00, 0.00, -0.00, -1.00, 715.7, 324.8)">A</text><text xml:space="preserve" font-family="Impact,Impact" font-weight="bold" font-size="110.0" fill="#FEFFFF" transform="matrix(1.00, 0.00, -0.00, -1.00, 771.5, 324.8)">S</text><text xml:space="preserve" font-family="Impact,Impact" font-weight="bold" font-size="110.0" fill="#FEFFFF" transform="matrix(1.00, 0.00, -0.00, -1.00, 828.4, 324.8)">T</text><text xml:space="preserve" font-family="Impact,Impact" font-weight="bold" font-size="110.0" fill="#FEFFFF" transform="matrix(1.00, 0.00, -0.00, -1.00, 879.1, 324.8)">E</text><text xml:space="preserve" font-family="Impact,Impact" font-weight="bold" font-size="110.0" fill="#FEFFFF" transform="matrix(1.00, 0.00, -0.00, -1.00, 924.7, 324.8)">R</text><text xml:space="preserve" font-family="Impact,Impact" font-weight="bold" font-size="110.0" fill="#FEFFFF" transform="matrix(1.00, 0.00, -0.00, -1.00, 984.0, 324.8)">-</text><text xml:space="preserve" font-family="Impact,Impact" font-weight="bold" font-size="110.0" fill="#FEFFFF" transform="matrix(1.00, 0.00, -0.00, -1.00, 1016.4, 324.8)">S</text><text xml:space="preserve" font-family="Impact,Impact" font-weight="bold" font-size="110.0" fill="#FEFFFF" transform="matrix(1.00, 0.00, -0.00, -1.00, 1073.3, 324.8)">L</text><text xml:space="preserve" font-family="Impact,Impact" font-weight="bold" font-size="110.0" fill="#FEFFFF" transform="matrix(1.00, 0.00, -0.00, -1.00, 1118.0, 324.8)">A</text><text xml:space="preserve" font-family="Impact,Impact" font-weight="bold" font-size="110.0" fill="#FEFFFF" transform="matrix(1.00, 0.00, -0.00, -1.00, 1171.4, 324.8)">V</text><text xml:space="preserve" font-family="Impact,Impact" font-weight="bold" font-size="110.0" fill="#FEFFFF" transform="matrix(1.00, 0.00, -0.00, -1.00, 1229.1, 324.8)">E</text><text xml:space="preserve" font-family="Impact,Impact" font-weight="bold" font-size="110.0" fill="#FEFFFF" transform="matrix(1.00, 0.00, -0.00, -1.00, 1274.8, 324.8)"> </text></g></svg>