<?xml version="1.0" encoding="UTF-8" standalone="no"?><svg xmlns="http://www.w3.org/2000/svg" xmlns:xlink="http://www.w3.org/1999/xlink" clip-rule="evenodd" stroke-miterlimit="10" viewBox="0 0 1920 1080"><desc>SVG generated by Keynote</desc><defs></defs><g transform="matrix(1.00, 0.00, -0.00, -1.00, 0.0, 1080.0)"><path d="M 0.0 1080.0 L 1920.0 1080.0 L 1920.0 0.0 L 0.0 0.0 Z M 0.0 1080.0 " fill="#000000"></path><text xml:space="preserve" font-family="Impact,Impact" font-weight="bold" font-size="79.0" fill="#FEFFFF" transform="matrix(1.00, 0.00, -0.00, -1.00, 40.4, 900.6)">B</text><text xml:space="preserve" font-family="Impact,Impact" font-weight="bold" font-size="79.0" fill="#FEFFFF" transform="matrix(1.00, 0.00, -0.00, -1.00, 84.1, 900.6)">U</text><text xml:space="preserve" font-family="Impact,Impact" font-weight="bold" font-size="79.0" fill="#FEFFFF" transform="matrix(1.00, 0.00, -0.00, -1.00, 127.3, 900.6)">T</text><text xml:space="preserve" font-family="Impact,Impact" font-weight="bold" font-size="79.0" fill="#FEFFFF" transform="matrix(1.00, 0.00, -0.00, -1.00, 163.7, 900.6)"> </text><text xml:space="preserve" font-family="Impact,Impact" font-weight="bold" font-size="79.0" fill="#FEFFFF" transform="matrix(1.00, 0.00, -0.00, -1.00, 177.6, 900.6)">L</text><text xml:space="preserve" font-family="Impact,Impact" font-weight="bold" font-size="79.0" fill="#FEFFFF" transform="matrix(1.00, 0.00, -0.00, -1.00, 207.7, 900.6)">E</text><text xml:space="preserve" font-family="Impact,Impact" font-weight="bold" font-size="79.0" fill="#FEFFFF" transform="matrix(1.00, 0.00, -0.00, -1.00, 240.5, 900.6)">V</text><text xml:space="preserve" font-family="Impact,Impact" font-weight="bold" font-size="79.0" fill="#FEFFFF" transform="matrix(1.00, 0.00, -0.00, -1.00, 281.9, 900.6)">E</text><text xml:space="preserve" font-family="Impact,Impact" font-weight="bold" font-size="79.0" fill="#FEFFFF" transform="matrix(1.00, 0.00, -0.00, -1.00, 314.7, 900.6)">L</text><text xml:space="preserve" font-family="Impact,Impact" font-weight="bold" font-size="79.0" fill="#FEFFFF" transform="matrix(1.00, 0.00, -0.00, -1.00, 344.7, 900.6)">U</text><text xml:space="preserve" font-family="Impact,Impact" font-weight="bold" font-size="79.0" fill="#FEFFFF" transform="matrix(1.00, 0.00, -0.00, -1.00, 387.9, 900.6)">P</text><text xml:space="preserve" font-family="Impact,Impact" font-weight="bold" font-size="79.0" fill="#FEFFFF" transform="matrix(1.00, 0.00, -0.00, -1.00, 427.6, 900.6)"> </text><text xml:space="preserve" font-family="Impact,Impact" font-weight="bold" font-size="79.0" fill="#FEFFFF" transform="matrix(1.00, 0.00, -0.00, -1.00, 441.5, 900.6)">P</text><text xml:space="preserve" font-family="Impact,Impact" font-weight="bold" font-size="79.0" fill="#FEFFFF" transform="matrix(1.00, 0.00, -0.00, -1.00, 481.2, 900.6)">R</text><text xml:space="preserve" font-family="Impact,Impact" font-weight="bold" font-size="79.0" fill="#FEFFFF" transform="matrix(1.00, 0.00, -0.00, -1.00, 523.7, 900.6)">O</text><text xml:space="preserve" font-family="Impact,Impact" font-weight="bold" font-size="79.0" fill="#FEFFFF" transform="matrix(1.00, 0.00, -0.00, -1.00, 566.9, 900.6)">V</text><text xml:space="preserve" font-family="Impact,Impact" font-weight="bold" font-size="79.0" fill="#FEFFFF" transform="matrix(1.00, 0.00, -0.00, -1.00, 608.3, 900.6)">I</text><text xml:space="preserve" font-family="Impact,Impact" font-weight="bold" font-size="79.0" fill="#FEFFFF" transform="matrix(1.00, 0.00, -0.00, -1.00, 631.0, 900.6)">D</text><text xml:space="preserve" font-family="Impact,Impact" font-weight="bold" font-size="79.0" fill="#FEFFFF" transform="matrix(1.00, 0.00, -0.00, -1.00, 674.7, 900.6)">E</text><text xml:space="preserve" font-family="Impact,Impact" font-weight="bold" font-size="79.0" fill="#FEFFFF" transform="matrix(1.00, 0.00, -0.00, -1.00, 707.5, 900.6)">S</text><text xml:space="preserve" font-family="Impact,Impact" font-weight="bold" font-size="79.0" fill="#FEFFFF" transform="matrix(1.00, 0.00, -0.00, -1.00, 748.3, 900.6)"> </text><text xml:space="preserve" font-family="Impact,Impact" font-weight="bold" font-size="79.0" fill="#FEFFFF" transform="matrix(1.00, 0.00, -0.00, -1.00, 762.3, 900.6)">A</text><text xml:space="preserve" font-family="Impact,Impact" font-weight="bold" font-size="79.0" fill="#FEFFFF" transform="matrix(1.00, 0.00, -0.00, -1.00, 802.4, 900.6)"> </text><text xml:space="preserve" font-family="Impact,Impact" font-weight="bold" font-size="79.0" fill="#FEFFFF" transform="matrix(1.00, 0.00, -0.00, -1.00, 816.3, 900.6)">S</text><text xml:space="preserve" font-family="Impact,Impact" font-weight="bold" font-size="79.0" fill="#FEFFFF" transform="matrix(1.00, 0.00, -0.00, -1.00, 857.2, 900.6)">I</text><text xml:space="preserve" font-family="Impact,Impact" font-weight="bold" font-size="79.0" fill="#FEFFFF" transform="matrix(1.00, 0.00, -0.00, -1.00, 880.0, 900.6)">M</text><text xml:space="preserve" font-family="Impact,Impact" font-weight="bold" font-size="79.0" fill="#FEFFFF" transform="matrix(1.00, 0.00, -0.00, -1.00, 936.6, 900.6)">P</text><text xml:space="preserve" font-family="Impact,Impact" font-weight="bold" font-size="79.0" fill="#FEFFFF" transform="matrix(1.00, 0.00, -0.00, -1.00, 976.2, 900.6)">L</text><text xml:space="preserve" font-family="Impact,Impact" font-weight="bold" font-size="79.0" fill="#FEFFFF" transform="matrix(1.00, 0.00, -0.00, -1.00, 1006.3, 900.6)">E</text><text xml:space="preserve" font-family="Impact,Impact" font-weight="bold" font-size="79.0" fill="#FEFFFF" transform="matrix(1.00, 0.00, -0.00, -1.00, 1039.1, 900.6)"> </text><text xml:space="preserve" font-family="Impact,Impact" font-weight="bold" font-size="79.0" fill="#FEFFFF" transform="matrix(1.00, 0.00, -0.00, -1.00, 1053.0, 900.6)">K</text><text xml:space="preserve" font-family="Impact,Impact" font-weight="bold" font-size="79.0" fill="#FEFFFF" transform="matrix(1.00, 0.00, -0.00, -1.00, 1095.4, 900.6)">E</text><text xml:space="preserve" font-family="Impact,Impact" font-weight="bold" font-size="79.0" fill="#FEFFFF" transform="matrix(1.00, 0.00, -0.00, -1.00, 1128.2, 900.6)">Y</text><text xml:space="preserve" font-family="Impact,Impact" font-weight="bold" font-size="79.0" fill="#FEFFFF" transform="matrix(1.00, 0.00, -0.00, -1.00, 1165.6, 900.6)">-</text><text xml:space="preserve" font-family="Impact,Impact" font-weight="bold" font-size="79.0" fill="#FEFFFF" transform="matrix(1.00, 0.00, -0.00, -1.00, 1188.9, 900.6)">V</text><text xml:space="preserve" font-family="Impact,Impact" font-weight="bold" font-size="79.0" fill="#FEFFFF" transform="matrix(1.00, 0.00, -0.00, -1.00, 1229.2, 900.6)">A</text><text xml:space="preserve" font-family="Impact,Impact" font-weight="bold" font-size="79.0" fill="#FEFFFF" transform="matrix(1.00, 0.00, -0.00, -1.00, 1269.3, 900.6)">L</text><text xml:space="preserve" font-family="Impact,Impact" font-weight="bold" font-size="79.0" fill="#FEFFFF" transform="matrix(1.00, 0.00, -0.00, -1.00, 1299.4, 900.6)">U</text><text xml:space="preserve" font-family="Impact,Impact" font-weight="bold" font-size="79.0" fill="#FEFFFF" transform="matrix(1.00, 0.00, -0.00, -1.00, 1342.6, 900.6)">E</text><text xml:space="preserve" font-family="Impact,Impact" font-weight="bold" font-size="79.0" fill="#FEFFFF" transform="matrix(1.00, 0.00, -0.00, -1.00, 1375.4, 900.6)"> </text><text xml:space="preserve" font-family="Impact,Impact" font-weight="bold" font-size="79.0" fill="#FEFFFF" transform="matrix(1.00, 0.00, -0.00, -1.00, 1389.3, 900.6)">S</text><text xml:space="preserve" font-family="Impact,Impact" font-weight="bold" font-size="79.0" fill="#FEFFFF" transform="matrix(1.00, 0.00, -0.00, -1.00, 1430.2, 900.6)">T</text><text xml:space="preserve" font-family="Impact,Impact" font-weight="bold" font-size="79.0" fill="#FEFFFF" transform="matrix(1.00, 0.00, -0.00, -1.00, 1466.6, 900.6)">O</text><text xml:space="preserve" font-family="Impact,Impact" font-weight="bold" font-size="79.0" fill="#FEFFFF" transform="matrix(1.00, 0.00, -0.00, -1.00, 1509.8, 900.6)">R</text><text xml:space="preserve" font-family="Impact,Impact" font-weight="bold" font-size="79.0" fill="#FEFFFF" transform="matrix(1.00, 0.00, -0.00, -1.00, 1552.3, 900.6)">E</text><text xml:space="preserve" font-family="Impact,Impact" font-weight="bold" font-size="79.0" fill="#FEFFFF" transform="matrix(1.00, 0.00, -0.00, -1.00, 1585.1, 900.6)"> </text><text xml:space="preserve" font-family="Impact,Impact" font-weight="bold" font-size="79.0" fill="#FEFFFF" transform="matrix(1.00, 0.00, -0.00, -1.00, 1599.0, 900.6)">T</text><text xml:space="preserve" font-family="Impact,Impact" font-weight="bold" font-size="79.0" fill="#FEFFFF" transform="matrix(1.00, 0.00, -0.00, -1.00, 1635.4, 900.6)">H</text><text xml:space="preserve" font-family="Impact,Impact" font-weight="bold" font-size="79.0" fill="#FEFFFF" transform="matrix(1.00, 0.00, -0.00, -1.00, 1679.3, 900.6)">A</text><text xml:space="preserve" font-family="Impact,Impact" font-weight="bold" font-size="79.0" fill="#FEFFFF" transform="matrix(1.00, 0.00, -0.00, -1.00, 1715.1, 900.6)">T</text><text xml:space="preserve" font-family="Impact,Impact" font-weight="bold" font-size="79.0" fill="#FEFFFF" transform="matrix(1.00, 0.00, -0.00, -1.00, 1751.5, 900.6)"> </text><text xml:space="preserve" font-family="Impact,Impact" font-weight="bold" font-size="79.0" fill="#FEFFFF" transform="matrix(1.00, 0.00, -0.00, -1.00, 1765.4, 900.6)">Y</text><text xml:space="preserve" font-family="Impact,Impact" font-weight="bold" font-size="79.0" fill="#FEFFFF" transform="matrix(1.00, 0.00, -0.00, -1.00, 1802.8, 900.6)">O</text><text xml:space="preserve" font-family="Impact,Impact" font-weight="bold" font-size="79.0" fill="#FEFFFF" transform="matrix(1.00, 0.00, -0.00, -1.00, 1846.0, 900.6)">U</text><text xml:space="preserve" font-family="Impact,Impact" font-weight="bold" font-size="79.0" fill="#FEFFFF" transform="matrix(1.00, 0.00, -0.00, -1.00, 1889.2, 900.6)"> </text><text xml:space="preserve" font-family="Impact,Impact" font-weight="bold" font-size="79.0" fill="#FEFFFF" transform="matrix(1.00, 0.00, -0.00, -1.00, 704.5, 803.6)">C</text><text xml:space="preserve" font-family="Impact,Impact" font-weight="bold" font-size="79.0" fill="#FEFFFF" transform="matrix(1.00, 0.00, -0.00, -1.00, 748.2, 803.6)">A</text><text xml:space="preserve" font-family="Impact,Impact" font-weight="bold" font-size="79.0" fill="#FEFFFF" transform="matrix(1.00, 0.00, -0.00, -1.00, 788.3, 803.6)">N</text><text xml:space="preserve" font-family="Impact,Impact" font-weight="bold" font-size="79.0" fill="#FEFFFF" transform="matrix(1.00, 0.00, -0.00, -1.00, 831.1, 803.6)"> </text><text xml:space="preserve" font-family="Impact,Impact" font-weight="bold" font-size="79.0" fill="#FEFFFF" transform="matrix(1.00, 0.00, -0.00, -1.00, 845.0, 803.6)">B</text><text xml:space="preserve" font-family="Impact,Impact" font-weight="bold" font-size="79.0" fill="#FEFFFF" transform="matrix(1.00, 0.00, -0.00, -1.00, 888.6, 803.6)">U</text><text xml:space="preserve" font-family="Impact,Impact" font-weight="bold" font-size="79.0" fill="#FEFFFF" transform="matrix(1.00, 0.00, -0.00, -1.00, 931.8, 803.6)">I</text><text xml:space="preserve" font-family="Impact,Impact" font-weight="bold" font-size="79.0" fill="#FEFFFF" transform="matrix(1.00, 0.00, -0.00, -1.00, 954.6, 803.6)">L</text><text xml:space="preserve" font-family="Impact,Impact" font-weight="bold" font-size="79.0" fill="#FEFFFF" transform="matrix(1.00, 0.00, -0.00, -1.00, 984.7, 803.6)">D</text><text xml:space="preserve" font-family="Impact,Impact" font-weight="bold" font-size="79.0" fill="#FEFFFF" transform="matrix(1.00, 0.00, -0.00, -1.00, 1028.3, 803.6)"> </text><text xml:space="preserve" font-family="Impact,Impact" font-weight="bold" font-size="79.0" fill="#FEFFFF" transform="matrix(1.00, 0.00, -0.00, -1.00, 1042.3, 803.6)">U</text><text xml:space="preserve" font-family="Impact,Impact" font-weight="bold" font-size="79.0" fill="#FEFFFF" transform="matrix(1.00, 0.00, -0.00, -1.00, 1085.5, 803.6)">P</text><text xml:space="preserve" font-family="Impact,Impact" font-weight="bold" font-size="79.0" fill="#FEFFFF" transform="matrix(1.00, 0.00, -0.00, -1.00, 1125.1, 803.6)"> </text><text xml:space="preserve" font-family="Impact,Impact" font-weight="bold" font-size="79.0" fill="#FEFFFF" transform="matrix(1.00, 0.00, -0.00, -1.00, 1139.1, 803.6)">O</text><text xml:space="preserve" font-family="Impact,Impact" font-weight="bold" font-size="79.0" fill="#FEFFFF" transform="matrix(1.00, 0.00, -0.00, -1.00, 1182.3, 803.6)">N</text><text xml:space="preserve" font-family="Impact,Impact" font-weight="bold" font-size="79.0" fill="#FEFFFF" transform="matrix(1.00, 0.00, -0.00, -1.00, 1225.0, 803.6)"> </text><text xml:space="preserve" font-family="Impact,Impact" font-weight="bold" font-size="79.0" fill="#FEFFFF" transform="matrix(1.00, 0.00, -0.00, -1.00, 1239.0, 803.6)"> </text><text xml:space="preserve" font-family="Impact,Impact" font-weight="bold" font-size="79.0" fill="#FEFFFF" transform="matrix(1.00, 0.00, -0.00, -1.00, 261.2, 609.6)">T</text><text xml:space="preserve" font-family="Impact,Impact" font-weight="bold" font-size="79.0" fill="#FEFFFF" transform="matrix(1.00, 0.00, -0.00, -1.00, 297.6, 609.6)">H</text><text xml:space="preserve" font-family="Impact,Impact" font-weight="bold" font-size="79.0" fill="#FEFFFF" transform="matrix(1.00, 0.00, -0.00, -1.00, 341.5, 609.6)">E</text><text xml:space="preserve" font-family="Impact,Impact" font-weight="bold" font-size="79.0" fill="#FEFFFF" transform="matrix(1.00, 0.00, -0.00, -1.00, 374.2, 609.6)">R</text><text xml:space="preserve" font-family="Impact,Impact" font-weight="bold" font-size="79.0" fill="#FEFFFF" transform="matrix(1.00, 0.00, -0.00, -1.00, 416.8, 609.6)">E</text><text xml:space="preserve" font-family="Impact,Impact" font-weight="bold" font-size="79.0" fill="#FEFFFF" transform="matrix(1.00, 0.00, -0.00, -1.00, 449.6, 609.6)">’</text><text xml:space="preserve" font-family="Impact,Impact" font-weight="bold" font-size="79.0" fill="#FEFFFF" transform="matrix(1.00, 0.00, -0.00, -1.00, 462.8, 609.6)">S</text><text xml:space="preserve" font-family="Impact,Impact" font-weight="bold" font-size="79.0" fill="#FEFFFF" transform="matrix(1.00, 0.00, -0.00, -1.00, 503.7, 609.6)"> </text><text xml:space="preserve" font-family="Impact,Impact" font-weight="bold" font-size="79.0" fill="#FEFFFF" transform="matrix(1.00, 0.00, -0.00, -1.00, 517.6, 609.6)">A</text><text xml:space="preserve" font-family="Impact,Impact" font-weight="bold" font-size="79.0" fill="#FEFFFF" transform="matrix(1.00, 0.00, -0.00, -1.00, 557.7, 609.6)"> </text><text xml:space="preserve" font-family="Impact,Impact" font-weight="bold" font-size="79.0" fill="#FEFFFF" transform="matrix(1.00, 0.00, -0.00, -1.00, 571.7, 609.6)">V</text><text xml:space="preserve" font-family="Impact,Impact" font-weight="bold" font-size="79.0" fill="#FEFFFF" transform="matrix(1.00, 0.00, -0.00, -1.00, 613.1, 609.6)">I</text><text xml:space="preserve" font-family="Impact,Impact" font-weight="bold" font-size="79.0" fill="#FEFFFF" transform="matrix(1.00, 0.00, -0.00, -1.00, 635.8, 609.6)">B</text><text xml:space="preserve" font-family="Impact,Impact" font-weight="bold" font-size="79.0" fill="#FEFFFF" transform="matrix(1.00, 0.00, -0.00, -1.00, 679.5, 609.6)">R</text><text xml:space="preserve" font-family="Impact,Impact" font-weight="bold" font-size="79.0" fill="#FEFFFF" transform="matrix(1.00, 0.00, -0.00, -1.00, 722.0, 609.6)">A</text><text xml:space="preserve" font-family="Impact,Impact" font-weight="bold" font-size="79.0" fill="#FEFFFF" transform="matrix(1.00, 0.00, -0.00, -1.00, 762.1, 609.6)">N</text><text xml:space="preserve" font-family="Impact,Impact" font-weight="bold" font-size="79.0" fill="#FEFFFF" transform="matrix(1.00, 0.00, -0.00, -1.00, 804.8, 609.6)">T</text><text xml:space="preserve" font-family="Impact,Impact" font-weight="bold" font-size="79.0" fill="#FEFFFF" transform="matrix(1.00, 0.00, -0.00, -1.00, 841.2, 609.6)"> </text><text xml:space="preserve" font-family="Impact,Impact" font-weight="bold" font-size="79.0" fill="#FEFFFF" transform="matrix(1.00, 0.00, -0.00, -1.00, 855.2, 609.6)">E</text><text xml:space="preserve" font-family="Impact,Impact" font-weight="bold" font-size="79.0" fill="#FEFFFF" transform="matrix(1.00, 0.00, -0.00, -1.00, 888.0, 609.6)">C</text><text xml:space="preserve" font-family="Impact,Impact" font-weight="bold" font-size="79.0" fill="#FEFFFF" transform="matrix(1.00, 0.00, -0.00, -1.00, 931.7, 609.6)">H</text><text xml:space="preserve" font-family="Impact,Impact" font-weight="bold" font-size="79.0" fill="#FEFFFF" transform="matrix(1.00, 0.00, -0.00, -1.00, 975.6, 609.6)">O</text><text xml:space="preserve" font-family="Impact,Impact" font-weight="bold" font-size="79.0" fill="#FEFFFF" transform="matrix(1.00, 0.00, -0.00, -1.00, 1018.8, 609.6)">-</text><text xml:space="preserve" font-family="Impact,Impact" font-weight="bold" font-size="79.0" fill="#FEFFFF" transform="matrix(1.00, 0.00, -0.00, -1.00, 1042.1, 609.6)">S</text><text xml:space="preserve" font-family="Impact,Impact" font-weight="bold" font-size="79.0" fill="#FEFFFF" transform="matrix(1.00, 0.00, -0.00, -1.00, 1082.9, 609.6)">Y</text><text xml:space="preserve" font-family="Impact,Impact" font-weight="bold" font-size="79.0" fill="#FEFFFF" transform="matrix(1.00, 0.00, -0.00, -1.00, 1120.3, 609.6)">S</text><text xml:space="preserve" font-family="Impact,Impact" font-weight="bold" font-size="79.0" fill="#FEFFFF" transform="matrix(1.00, 0.00, -0.00, -1.00, 1161.2, 609.6)">T</text><text xml:space="preserve" font-family="Impact,Impact" font-weight="bold" font-size="79.0" fill="#FEFFFF" transform="matrix(1.00, 0.00, -0.00, -1.00, 1197.6, 609.6)">E</text><text xml:space="preserve" font-family="Impact,Impact" font-weight="bold" font-size="79.0" fill="#FEFFFF" transform="matrix(1.00, 0.00, -0.00, -1.00, 1230.3, 609.6)">M</text><text xml:space="preserve" font-family="Impact,Impact" font-weight="bold" font-size="79.0" fill="#FEFFFF" transform="matrix(1.00, 0.00, -0.00, -1.00, 1287.0, 609.6)"> </text><text xml:space="preserve" font-family="Impact,Impact" font-weight="bold" font-size="79.0" fill="#FEFFFF" transform="matrix(1.00, 0.00, -0.00, -1.00, 1300.9, 609.6)">O</text><text xml:space="preserve" font-family="Impact,Impact" font-weight="bold" font-size="79.0" fill="#FEFFFF" transform="matrix(1.00, 0.00, -0.00, -1.00, 1344.1, 609.6)">F</text><text xml:space="preserve" font-family="Impact,Impact" font-weight="bold" font-size="79.0" fill="#FEFFFF" transform="matrix(1.00, 0.00, -0.00, -1.00, 1375.5, 609.6)"> </text><text xml:space="preserve" font-family="Impact,Impact" font-weight="bold" font-size="79.0" fill="#FEFFFF" transform="matrix(1.00, 0.00, -0.00, -1.00, 1389.5, 609.6)">P</text><text xml:space="preserve" font-family="Impact,Impact" font-weight="bold" font-size="79.0" fill="#FEFFFF" transform="matrix(1.00, 0.00, -0.00, -1.00, 1429.1, 609.6)">L</text><text xml:space="preserve" font-family="Impact,Impact" font-weight="bold" font-size="79.0" fill="#FEFFFF" transform="matrix(1.00, 0.00, -0.00, -1.00, 1459.2, 609.6)">U</text><text xml:space="preserve" font-family="Impact,Impact" font-weight="bold" font-size="79.0" fill="#FEFFFF" transform="matrix(1.00, 0.00, -0.00, -1.00, 1502.4, 609.6)">G</text><text xml:space="preserve" font-family="Impact,Impact" font-weight="bold" font-size="79.0" fill="#FEFFFF" transform="matrix(1.00, 0.00, -0.00, -1.00, 1546.0, 609.6)">I</text><text xml:space="preserve" font-family="Impact,Impact" font-weight="bold" font-size="79.0" fill="#FEFFFF" transform="matrix(1.00, 0.00, -0.00, -1.00, 1568.8, 609.6)">N</text><text xml:space="preserve" font-family="Impact,Impact" font-weight="bold" font-size="79.0" fill="#FEFFFF" transform="matrix(1.00, 0.00, -0.00, -1.00, 1611.5, 609.6)">S</text><text xml:space="preserve" font-family="Impact,Impact" font-weight="bold" font-size="79.0" fill="#FEFFFF" transform="matrix(1.00, 0.00, -0.00, -1.00, 1652.4, 609.6)">:</text><text xml:space="preserve" font-family="Impact,Impact" font-weight="bold" font-size="79.0" fill="#FEFFFF" transform="matrix(1.00, 0.00, -0.00, -1.00, 1668.3, 609.6)"> </text><text xml:space="preserve" font-family="Impact,Impact" font-weight="bold" font-size="79.0" fill="#FEFFFF" transform="matrix(1.00, 0.00, -0.00, -1.00, 817.4, 512.6)">S</text><text xml:space="preserve" font-family="Impact,Impact" font-weight="bold" font-size="79.0" fill="#FEFFFF" transform="matrix(1.00, 0.00, -0.00, -1.00, 858.2, 512.6)">U</text><text xml:space="preserve" font-family="Impact,Impact" font-weight="bold" font-size="79.0" fill="#FEFFFF" transform="matrix(1.00, 0.00, -0.00, -1.00, 901.4, 512.6)">B</text><text xml:space="preserve" font-family="Impact,Impact" font-weight="bold" font-size="79.0" fill="#FEFFFF" transform="matrix(1.00, 0.00, -0.00, -1.00, 945.1, 512.6)">L</text><text xml:space="preserve" font-family="Impact,Impact" font-weight="bold" font-size="79.0" fill="#FEFFFF" transform="matrix(1.00, 0.00, -0.00, -1.00, 975.1, 512.6)">E</text><text xml:space="preserve" font-family="Impact,Impact" font-weight="bold" font-size="79.0" fill="#FEFFFF" transform="matrix(1.00, 0.00, -0.00, -1.00, 1007.9, 512.6)">V</text><text xml:space="preserve" font-family="Impact,Impact" font-weight="bold" font-size="79.0" fill="#FEFFFF" transform="matrix(1.00, 0.00, -0.00, -1.00, 1049.2, 512.6)">E</text><text xml:space="preserve" font-family="Impact,Impact" font-weight="bold" font-size="79.0" fill="#FEFFFF" transform="matrix(1.00, 0.00, -0.00, -1.00, 1082.0, 512.6)">L</text><text xml:space="preserve" font-family="Impact,Impact" font-weight="bold" font-size="79.0" fill="#FEFFFF" transform="matrix(1.00, 0.00, -0.00, -1.00, 1112.1, 512.6)"> </text><text xml:space="preserve" font-family="Impact,Impact" font-weight="bold" font-size="79.0" fill="#FEFFFF" transform="matrix(1.00, 0.00, -0.00, -1.00, 765.5, 415.6)">M</text><text xml:space="preserve" font-family="Impact,Impact" font-weight="bold" font-size="79.0" fill="#FEFFFF" transform="matrix(1.00, 0.00, -0.00, -1.00, 822.1, 415.6)">A</text><text xml:space="preserve" font-family="Impact,Impact" font-weight="bold" font-size="79.0" fill="#FEFFFF" transform="matrix(1.00, 0.00, -0.00, -1.00, 862.2, 415.6)">P</text><text xml:space="preserve" font-family="Impact,Impact" font-weight="bold" font-size="79.0" fill="#FEFFFF" transform="matrix(1.00, 0.00, -0.00, -1.00, 901.9, 415.6)">-</text><text xml:space="preserve" font-family="Impact,Impact" font-weight="bold" font-size="79.0" fill="#FEFFFF" transform="matrix(1.00, 0.00, -0.00, -1.00, 925.2, 415.6)">R</text><text xml:space="preserve" font-family="Impact,Impact" font-weight="bold" font-size="79.0" fill="#FEFFFF" transform="matrix(1.00, 0.00, -0.00, -1.00, 967.7, 415.6)">E</text><text xml:space="preserve" font-family="Impact,Impact" font-weight="bold" font-size="79.0" fill="#FEFFFF" transform="matrix(1.00, 0.00, -0.00, -1.00, 1000.5, 415.6)">D</text><text xml:space="preserve" font-family="Impact,Impact" font-weight="bold" font-size="79.0" fill="#FEFFFF" transform="matrix(1.00, 0.00, -0.00, -1.00, 1044.1, 415.6)">U</text><text xml:space="preserve" font-family="Impact,Impact" font-weight="bold" font-size="79.0" fill="#FEFFFF" transform="matrix(1.00, 0.00, -0.00, -1.00, 1087.3, 415.6)">C</text><text xml:space="preserve" font-family="Impact,Impact" font-weight="bold" font-size="79.0" fill="#FEFFFF" transform="matrix(1.00, 0.00, -0.00, -1.00, 1131.0, 415.6)">E</text><text xml:space="preserve" font-family="Impact,Impact" font-weight="bold" font-size="79.0" fill="#FEFFFF" transform="matrix(1.00, 0.00, -0.00, -1.00, 1163.8, 415.6)"> </text><text xml:space="preserve" font-family="Impact,Impact" font-weight="bold" font-size="79.0" fill="#FEFFFF" transform="matrix(1.00, 0.00, -0.00, -1.00, 743.5, 318.6)">W</text><text xml:space="preserve" font-family="Impact,Impact" font-weight="bold" font-size="79.0" fill="#FEFFFF" transform="matrix(1.00, 0.00, -0.00, -1.00, 807.9, 318.6)">O</text><text xml:space="preserve" font-family="Impact,Impact" font-weight="bold" font-size="79.0" fill="#FEFFFF" transform="matrix(1.00, 0.00, -0.00, -1.00, 851.1, 318.6)">R</text><text xml:space="preserve" font-family="Impact,Impact" font-weight="bold" font-size="79.0" fill="#FEFFFF" transform="matrix(1.00, 0.00, -0.00, -1.00, 893.6, 318.6)">K</text><text xml:space="preserve" font-family="Impact,Impact" font-weight="bold" font-size="79.0" fill="#FEFFFF" transform="matrix(1.00, 0.00, -0.00, -1.00, 936.0, 318.6)"> </text><text xml:space="preserve" font-family="Impact,Impact" font-weight="bold" font-size="79.0" fill="#FEFFFF" transform="matrix(1.00, 0.00, -0.00, -1.00, 949.9, 318.6)">Q</text><text xml:space="preserve" font-family="Impact,Impact" font-weight="bold" font-size="79.0" fill="#FEFFFF" transform="matrix(1.00, 0.00, -0.00, -1.00, 993.1, 318.6)">U</text><text xml:space="preserve" font-family="Impact,Impact" font-weight="bold" font-size="79.0" fill="#FEFFFF" transform="matrix(1.00, 0.00, -0.00, -1.00, 1036.3, 318.6)">E</text><text xml:space="preserve" font-family="Impact,Impact" font-weight="bold" font-size="79.0" fill="#FEFFFF" transform="matrix(1.00, 0.00, -0.00, -1.00, 1069.1, 318.6)">U</text><text xml:space="preserve" font-family="Impact,Impact" font-weight="bold" font-size="79.0" fill="#FEFFFF" transform="matrix(1.00, 0.00, -0.00, -1.00, 1112.3, 318.6)">E</text><text xml:space="preserve" font-family="Impact,Impact" font-weight="bold" font-size="79.0" fill="#FEFFFF" transform="matrix(1.00, 0.00, -0.00, -1.00, 1145.0, 318.6)">S</text><text xml:space="preserve" font-family="Impact,Impact" font-weight="bold" font-size="79.0" fill="#FEFFFF" transform="matrix(1.00, 0.00, -0.00, -1.00, 1185.9, 318.6)"> </text><text xml:space="preserve" font-family="Impact,Impact" font-weight="bold" font-size="79.0" fill="#FEFFFF" transform="matrix(1.00, 0.00, -0.00, -1.00, 768.5, 221.6)">R</text><text xml:space="preserve" font-family="Impact,Impact" font-weight="bold" font-size="79.0" fill="#FEFFFF" transform="matrix(1.00, 0.00, -0.00, -1.00, 811.0, 221.6)">E</text><text xml:space="preserve" font-family="Impact,Impact" font-weight="bold" font-size="79.0" fill="#FEFFFF" transform="matrix(1.00, 0.00, -0.00, -1.00, 843.8, 221.6)">P</text><text xml:space="preserve" font-family="Impact,Impact" font-weight="bold" font-size="79.0" fill="#FEFFFF" transform="matrix(1.00, 0.00, -0.00, -1.00, 883.5, 221.6)">L</text><text xml:space="preserve" font-family="Impact,Impact" font-weight="bold" font-size="79.0" fill="#FEFFFF" transform="matrix(1.00, 0.00, -0.00, -1.00, 913.6, 221.6)">I</text><text xml:space="preserve" font-family="Impact,Impact" font-weight="bold" font-size="79.0" fill="#FEFFFF" transform="matrix(1.00, 0.00, -0.00, -1.00, 936.3, 221.6)">C</text><text xml:space="preserve" font-family="Impact,Impact" font-weight="bold" font-size="79.0" fill="#FEFFFF" transform="matrix(1.00, 0.00, -0.00, -1.00, 980.1, 221.6)">A</text><text xml:space="preserve" font-family="Impact,Impact" font-weight="bold" font-size="79.0" fill="#FEFFFF" transform="matrix(1.00, 0.00, -0.00, -1.00, 1015.8, 221.6)">T</text><text xml:space="preserve" font-family="Impact,Impact" font-weight="bold" font-size="79.0" fill="#FEFFFF" transform="matrix(1.00, 0.00, -0.00, -1.00, 1052.2, 221.6)">I</text><text xml:space="preserve" font-family="Impact,Impact" font-weight="bold" font-size="79.0" fill="#FEFFFF" transform="matrix(1.00, 0.00, -0.00, -1.00, 1075.0, 221.6)">O</text><text xml:space="preserve" font-family="Impact,Impact" font-weight="bold" font-size="79.0" fill="#FEFFFF" transform="matrix(1.00, 0.00, -0.00, -1.00, 1118.2, 221.6)">N</text><text xml:space="preserve" font-family="Impact,Impact" font-weight="bold" font-size="79.0" fill="#FEFFFF" transform="matrix(1.00, 0.00, -0.00, -1.00, 1160.9, 221.6)"> </text><text xml:space="preserve" font-family="Impact,Impact" font-weight="bold" font-size="79.0" fill="#FEFFFF" transform="matrix(1.00, 0.00, -0.00, -1.00, 942.9, 124.6)">…</text><text xml:space="preserve" font-family="Impact,Impact" font-weight="bold" font-size="79.0" fill="#FEFFFF" transform="matrix(1.00, 0.00, -0.00, -1.00, 986.6, 124.6)"> </text></g></svg>