<?xml version="1.0" encoding="UTF-8" standalone="no"?><svg xmlns="http://www.w3.org/2000/svg" xmlns:xlink="http://www.w3.org/1999/xlink" clip-rule="evenodd" stroke-miterlimit="10" viewBox="0 0 1920 1080"><desc>SVG generated by Keynote</desc><defs></defs><g transform="matrix(1.00, 0.00, -0.00, -1.00, 0.0, 1080.0)"><path d="M 0.0 1080.0 L 1920.0 1080.0 L 1920.0 0.0 L 0.0 0.0 Z M 0.0 1080.0 " fill="#000000"></path><image xlink:href="../../DADCFE25-7B4F-4E23-8EF4-4D7488FB0F42/assets/A800FA3B667CBD0DFF36DE2E1B45A977.png" width="700.00" height="931.00" transform="matrix(1.16, 0.00, -0.00, -1.16, 1082.9, 1010.8)"></image><text xml:space="preserve" font-family="Impact,Impact" font-weight="bold" font-size="160.0" fill="#FEFFFF" transform="matrix(1.00, 0.00, -0.00, -1.00, 144.8, 912.1)">B</text><text xml:space="preserve" font-family="Impact,Impact" font-weight="bold" font-size="160.0" fill="#FEFFFF" transform="matrix(1.00, 0.00, -0.00, -1.00, 233.2, 912.1)">U</text><text xml:space="preserve" font-family="Impact,Impact" font-weight="bold" font-size="160.0" fill="#FEFFFF" transform="matrix(1.00, 0.00, -0.00, -1.00, 320.7, 912.1)">T</text><text xml:space="preserve" font-family="Impact,Impact" font-weight="bold" font-size="160.0" fill="#FEFFFF" transform="matrix(1.00, 0.00, -0.00, -1.00, 394.5, 912.1)"> </text><text xml:space="preserve" font-family="Impact,Impact" font-weight="bold" font-size="160.0" fill="#FEFFFF" transform="matrix(1.00, 0.00, -0.00, -1.00, 422.7, 912.1)">S</text><text xml:space="preserve" font-family="Impact,Impact" font-weight="bold" font-size="160.0" fill="#FEFFFF" transform="matrix(1.00, 0.00, -0.00, -1.00, 505.5, 912.1)">T</text><text xml:space="preserve" font-family="Impact,Impact" font-weight="bold" font-size="160.0" fill="#FEFFFF" transform="matrix(1.00, 0.00, -0.00, -1.00, 579.3, 912.1)">E</text><text xml:space="preserve" font-family="Impact,Impact" font-weight="bold" font-size="160.0" fill="#FEFFFF" transform="matrix(1.00, 0.00, -0.00, -1.00, 645.6, 912.1)">V</text><text xml:space="preserve" font-family="Impact,Impact" font-weight="bold" font-size="160.0" fill="#FEFFFF" transform="matrix(1.00, 0.00, -0.00, -1.00, 729.4, 912.1)">E</text><text xml:space="preserve" font-family="Impact,Impact" font-weight="bold" font-size="160.0" fill="#FEFFFF" transform="matrix(1.00, 0.00, -0.00, -1.00, 795.8, 912.1)"> </text><text xml:space="preserve" font-family="Impact,Impact" font-weight="bold" font-size="160.0" fill="#FEFFFF" transform="matrix(1.00, 0.00, -0.00, -1.00, 824.0, 912.1)">C</text><text xml:space="preserve" font-family="Impact,Impact" font-weight="bold" font-size="160.0" fill="#FEFFFF" transform="matrix(1.00, 0.00, -0.00, -1.00, 912.5, 912.1)">A</text><text xml:space="preserve" font-family="Impact,Impact" font-weight="bold" font-size="160.0" fill="#FEFFFF" transform="matrix(1.00, 0.00, -0.00, -1.00, 993.7, 912.1)">N</text><text xml:space="preserve" font-family="Impact,Impact" font-weight="bold" font-size="160.0" fill="#FEFFFF" transform="matrix(1.00, 0.00, -0.00, -1.00, 1080.2, 912.1)"> </text><text xml:space="preserve" font-family="Impact,Impact" font-weight="bold" font-size="160.0" fill="#FEFFFF" transform="matrix(1.00, 0.00, -0.00, -1.00, 169.3, 717.1)">N</text><text xml:space="preserve" font-family="Impact,Impact" font-weight="bold" font-size="160.0" fill="#FEFFFF" transform="matrix(1.00, 0.00, -0.00, -1.00, 255.9, 717.1)">O</text><text xml:space="preserve" font-family="Impact,Impact" font-weight="bold" font-size="160.0" fill="#FEFFFF" transform="matrix(1.00, 0.00, -0.00, -1.00, 343.4, 717.1)">W</text><text xml:space="preserve" font-family="Impact,Impact" font-weight="bold" font-size="160.0" fill="#FEFFFF" transform="matrix(1.00, 0.00, -0.00, -1.00, 473.8, 717.1)"> </text><text xml:space="preserve" font-family="Impact,Impact" font-weight="bold" font-size="160.0" fill="#FEFFFF" transform="matrix(1.00, 0.00, -0.00, -1.00, 502.0, 717.1)">F</text><text xml:space="preserve" font-family="Impact,Impact" font-weight="bold" font-size="160.0" fill="#FEFFFF" transform="matrix(1.00, 0.00, -0.00, -1.00, 562.4, 717.1)">A</text><text xml:space="preserve" font-family="Impact,Impact" font-weight="bold" font-size="160.0" fill="#FEFFFF" transform="matrix(1.00, 0.00, -0.00, -1.00, 643.6, 717.1)">C</text><text xml:space="preserve" font-family="Impact,Impact" font-weight="bold" font-size="160.0" fill="#FEFFFF" transform="matrix(1.00, 0.00, -0.00, -1.00, 732.1, 717.1)">E</text><text xml:space="preserve" font-family="Impact,Impact" font-weight="bold" font-size="160.0" fill="#FEFFFF" transform="matrix(1.00, 0.00, -0.00, -1.00, 798.5, 717.1)"> </text><text xml:space="preserve" font-family="Impact,Impact" font-weight="bold" font-size="160.0" fill="#FEFFFF" transform="matrix(1.00, 0.00, -0.00, -1.00, 826.8, 717.1)">T</text><text xml:space="preserve" font-family="Impact,Impact" font-weight="bold" font-size="160.0" fill="#FEFFFF" transform="matrix(1.00, 0.00, -0.00, -1.00, 900.5, 717.1)">H</text><text xml:space="preserve" font-family="Impact,Impact" font-weight="bold" font-size="160.0" fill="#FEFFFF" transform="matrix(1.00, 0.00, -0.00, -1.00, 989.4, 717.1)">E</text><text xml:space="preserve" font-family="Impact,Impact" font-weight="bold" font-size="160.0" fill="#FEFFFF" transform="matrix(1.00, 0.00, -0.00, -1.00, 1055.8, 717.1)"> </text><text xml:space="preserve" font-family="Impact,Impact" font-weight="bold" font-size="160.0" fill="#FEFFFF" transform="matrix(1.00, 0.00, -0.00, -1.00, 196.5, 522.1)">F</text><text xml:space="preserve" font-family="Impact,Impact" font-weight="bold" font-size="160.0" fill="#FEFFFF" transform="matrix(1.00, 0.00, -0.00, -1.00, 260.1, 522.1)">U</text><text xml:space="preserve" font-family="Impact,Impact" font-weight="bold" font-size="160.0" fill="#FEFFFF" transform="matrix(1.00, 0.00, -0.00, -1.00, 347.6, 522.1)">T</text><text xml:space="preserve" font-family="Impact,Impact" font-weight="bold" font-size="160.0" fill="#FEFFFF" transform="matrix(1.00, 0.00, -0.00, -1.00, 421.4, 522.1)">U</text><text xml:space="preserve" font-family="Impact,Impact" font-weight="bold" font-size="160.0" fill="#FEFFFF" transform="matrix(1.00, 0.00, -0.00, -1.00, 508.8, 522.1)">R</text><text xml:space="preserve" font-family="Impact,Impact" font-weight="bold" font-size="160.0" fill="#FEFFFF" transform="matrix(1.00, 0.00, -0.00, -1.00, 595.0, 522.1)">E</text><text xml:space="preserve" font-family="Impact,Impact" font-weight="bold" font-size="160.0" fill="#FEFFFF" transform="matrix(1.00, 0.00, -0.00, -1.00, 661.5, 522.1)"> </text><text xml:space="preserve" font-family="Impact,Impact" font-weight="bold" font-size="160.0" fill="#FEFFFF" transform="matrix(1.00, 0.00, -0.00, -1.00, 689.7, 522.1)">W</text><text xml:space="preserve" font-family="Impact,Impact" font-weight="bold" font-size="160.0" fill="#FEFFFF" transform="matrix(1.00, 0.00, -0.00, -1.00, 820.1, 522.1)">I</text><text xml:space="preserve" font-family="Impact,Impact" font-weight="bold" font-size="160.0" fill="#FEFFFF" transform="matrix(1.00, 0.00, -0.00, -1.00, 866.2, 522.1)">T</text><text xml:space="preserve" font-family="Impact,Impact" font-weight="bold" font-size="160.0" fill="#FEFFFF" transform="matrix(1.00, 0.00, -0.00, -1.00, 939.9, 522.1)">H</text><text xml:space="preserve" font-family="Impact,Impact" font-weight="bold" font-size="160.0" fill="#FEFFFF" transform="matrix(1.00, 0.00, -0.00, -1.00, 1028.7, 522.1)"> </text><text xml:space="preserve" font-family="Impact,Impact" font-weight="bold" font-size="160.0" fill="#FEFFFF" transform="matrix(1.00, 0.00, -0.00, -1.00, 231.3, 327.1)">M</text><text xml:space="preserve" font-family="Impact,Impact" font-weight="bold" font-size="160.0" fill="#FEFFFF" transform="matrix(1.00, 0.00, -0.00, -1.00, 346.0, 327.1)">U</text><text xml:space="preserve" font-family="Impact,Impact" font-weight="bold" font-size="160.0" fill="#FEFFFF" transform="matrix(1.00, 0.00, -0.00, -1.00, 433.5, 327.1)">C</text><text xml:space="preserve" font-family="Impact,Impact" font-weight="bold" font-size="160.0" fill="#FEFFFF" transform="matrix(1.00, 0.00, -0.00, -1.00, 522.0, 327.1)">H</text><text xml:space="preserve" font-family="Impact,Impact" font-weight="bold" font-size="160.0" fill="#FEFFFF" transform="matrix(1.00, 0.00, -0.00, -1.00, 610.8, 327.1)"> </text><text xml:space="preserve" font-family="Impact,Impact" font-weight="bold" font-size="160.0" fill="#FEFFFF" transform="matrix(1.00, 0.00, -0.00, -1.00, 639.1, 327.1)">M</text><text xml:space="preserve" font-family="Impact,Impact" font-weight="bold" font-size="160.0" fill="#FEFFFF" transform="matrix(1.00, 0.00, -0.00, -1.00, 753.8, 327.1)">O</text><text xml:space="preserve" font-family="Impact,Impact" font-weight="bold" font-size="160.0" fill="#FEFFFF" transform="matrix(1.00, 0.00, -0.00, -1.00, 841.3, 327.1)">R</text><text xml:space="preserve" font-family="Impact,Impact" font-weight="bold" font-size="160.0" fill="#FEFFFF" transform="matrix(1.00, 0.00, -0.00, -1.00, 927.5, 327.1)">E</text><text xml:space="preserve" font-family="Impact,Impact" font-weight="bold" font-size="160.0" fill="#FEFFFF" transform="matrix(1.00, 0.00, -0.00, -1.00, 993.9, 327.1)"> </text><g><clipPath id="clip0x7f80bf7e7a40"><path d="M 0.0 98.6 L 1259.5 98.6 L 1259.5 1076.4 L 0.0 1076.4 Z M 0.0 98.6 "></path></clipPath><g clip-path="url(#clip0x7f80bf7e7a40)"><text xml:space="preserve" font-family="Impact,Impact" font-weight="bold" font-size="160.0" fill="#FEFFFF" transform="matrix(1.00, 0.00, -0.00, -1.00, 228.1, 132.1)">C</text><text xml:space="preserve" font-family="Impact,Impact" font-weight="bold" font-size="160.0" fill="#FEFFFF" transform="matrix(1.00, 0.00, -0.00, -1.00, 316.6, 132.1)">O</text><text xml:space="preserve" font-family="Impact,Impact" font-weight="bold" font-size="160.0" fill="#FEFFFF" transform="matrix(1.00, 0.00, -0.00, -1.00, 404.2, 132.1)">N</text><text xml:space="preserve" font-family="Impact,Impact" font-weight="bold" font-size="160.0" fill="#FEFFFF" transform="matrix(1.00, 0.00, -0.00, -1.00, 490.8, 132.1)">F</text><text xml:space="preserve" font-family="Impact,Impact" font-weight="bold" font-size="160.0" fill="#FEFFFF" transform="matrix(1.00, 0.00, -0.00, -1.00, 554.4, 132.1)">I</text><text xml:space="preserve" font-family="Impact,Impact" font-weight="bold" font-size="160.0" fill="#FEFFFF" transform="matrix(1.00, 0.00, -0.00, -1.00, 600.4, 132.1)">D</text><text xml:space="preserve" font-family="Impact,Impact" font-weight="bold" font-size="160.0" fill="#FEFFFF" transform="matrix(1.00, 0.00, -0.00, -1.00, 688.8, 132.1)">E</text><text xml:space="preserve" font-family="Impact,Impact" font-weight="bold" font-size="160.0" fill="#FEFFFF" transform="matrix(1.00, 0.00, -0.00, -1.00, 755.3, 132.1)">N</text><text xml:space="preserve" font-family="Impact,Impact" font-weight="bold" font-size="160.0" fill="#FEFFFF" transform="matrix(1.00, 0.00, -0.00, -1.00, 841.8, 132.1)">C</text><text xml:space="preserve" font-family="Impact,Impact" font-weight="bold" font-size="160.0" fill="#FEFFFF" transform="matrix(1.00, 0.00, -0.00, -1.00, 930.4, 132.1)">E</text></g></g></g></svg>