<?xml version="1.0" encoding="UTF-8" standalone="no"?><svg xmlns="http://www.w3.org/2000/svg" xmlns:xlink="http://www.w3.org/1999/xlink" clip-rule="evenodd" stroke-miterlimit="10" viewBox="0 0 1920 1080"><desc>SVG generated by Keynote</desc><defs></defs><g transform="matrix(1.00, 0.00, -0.00, -1.00, 0.0, 1080.0)"><path d="M 0.0 1080.0 L 1920.0 1080.0 L 1920.0 0.0 L 0.0 0.0 Z M 0.0 1080.0 " fill="#000000"></path><text xml:space="preserve" font-family="Impact,Impact" font-weight="bold" font-size="112.0" fill="#FEFFFF" transform="matrix(1.00, 0.00, -0.00, -1.00, 122.0, 564.0)">S</text><text xml:space="preserve" font-family="Impact,Impact" font-weight="bold" font-size="112.0" fill="#FEFFFF" transform="matrix(1.00, 0.00, -0.00, -1.00, 180.0, 564.0)">T</text><text xml:space="preserve" font-family="Impact,Impact" font-weight="bold" font-size="112.0" fill="#FEFFFF" transform="matrix(1.00, 0.00, -0.00, -1.00, 231.6, 564.0)">I</text><text xml:space="preserve" font-family="Impact,Impact" font-weight="bold" font-size="112.0" fill="#FEFFFF" transform="matrix(1.00, 0.00, -0.00, -1.00, 263.8, 564.0)">L</text><text xml:space="preserve" font-family="Impact,Impact" font-weight="bold" font-size="112.0" fill="#FEFFFF" transform="matrix(1.00, 0.00, -0.00, -1.00, 306.5, 564.0)">L</text><text xml:space="preserve" font-family="Impact,Impact" font-weight="bold" font-size="112.0" fill="#FEFFFF" transform="matrix(1.00, 0.00, -0.00, -1.00, 352.1, 564.0)">,</text><text xml:space="preserve" font-family="Impact,Impact" font-weight="bold" font-size="112.0" fill="#FEFFFF" transform="matrix(1.00, 0.00, -0.00, -1.00, 371.0, 564.0)"> </text><text xml:space="preserve" font-family="Impact,Impact" font-weight="bold" font-size="112.0" fill="#FEFFFF" transform="matrix(1.00, 0.00, -0.00, -1.00, 390.7, 564.0)">U</text><text xml:space="preserve" font-family="Impact,Impact" font-weight="bold" font-size="112.0" fill="#FEFFFF" transform="matrix(1.00, 0.00, -0.00, -1.00, 452.0, 564.0)">N</text><text xml:space="preserve" font-family="Impact,Impact" font-weight="bold" font-size="112.0" fill="#FEFFFF" transform="matrix(1.00, 0.00, -0.00, -1.00, 512.6, 564.0)">D</text><text xml:space="preserve" font-family="Impact,Impact" font-weight="bold" font-size="112.0" fill="#FEFFFF" transform="matrix(1.00, 0.00, -0.00, -1.00, 574.4, 564.0)">E</text><text xml:space="preserve" font-family="Impact,Impact" font-weight="bold" font-size="112.0" fill="#FEFFFF" transform="matrix(1.00, 0.00, -0.00, -1.00, 620.9, 564.0)">R</text><text xml:space="preserve" font-family="Impact,Impact" font-weight="bold" font-size="112.0" fill="#FEFFFF" transform="matrix(1.00, 0.00, -0.00, -1.00, 681.2, 564.0)"> </text><text xml:space="preserve" font-family="Impact,Impact" font-weight="bold" font-size="112.0" fill="#FEFFFF" transform="matrix(1.00, 0.00, -0.00, -1.00, 701.0, 564.0)">H</text><text xml:space="preserve" font-family="Impact,Impact" font-weight="bold" font-size="112.0" fill="#FEFFFF" transform="matrix(1.00, 0.00, -0.00, -1.00, 763.2, 564.0)">E</text><text xml:space="preserve" font-family="Impact,Impact" font-weight="bold" font-size="112.0" fill="#FEFFFF" transform="matrix(1.00, 0.00, -0.00, -1.00, 809.6, 564.0)">A</text><text xml:space="preserve" font-family="Impact,Impact" font-weight="bold" font-size="112.0" fill="#FEFFFF" transform="matrix(1.00, 0.00, -0.00, -1.00, 864.0, 564.0)">V</text><text xml:space="preserve" font-family="Impact,Impact" font-weight="bold" font-size="112.0" fill="#FEFFFF" transform="matrix(1.00, 0.00, -0.00, -1.00, 925.5, 564.0)">Y</text><text xml:space="preserve" font-family="Impact,Impact" font-weight="bold" font-size="112.0" fill="#FEFFFF" transform="matrix(1.00, 0.00, -0.00, -1.00, 978.5, 564.0)"> </text><text xml:space="preserve" font-family="Impact,Impact" font-weight="bold" font-size="112.0" fill="#FEFFFF" transform="matrix(1.00, 0.00, -0.00, -1.00, 998.3, 564.0)">D</text><text xml:space="preserve" font-family="Impact,Impact" font-weight="bold" font-size="112.0" fill="#FEFFFF" transform="matrix(1.00, 0.00, -0.00, -1.00, 1060.1, 564.0)">E</text><text xml:space="preserve" font-family="Impact,Impact" font-weight="bold" font-size="112.0" fill="#FEFFFF" transform="matrix(1.00, 0.00, -0.00, -1.00, 1106.6, 564.0)">V</text><text xml:space="preserve" font-family="Impact,Impact" font-weight="bold" font-size="112.0" fill="#FEFFFF" transform="matrix(1.00, 0.00, -0.00, -1.00, 1165.3, 564.0)">E</text><text xml:space="preserve" font-family="Impact,Impact" font-weight="bold" font-size="112.0" fill="#FEFFFF" transform="matrix(1.00, 0.00, -0.00, -1.00, 1211.8, 564.0)">L</text><text xml:space="preserve" font-family="Impact,Impact" font-weight="bold" font-size="112.0" fill="#FEFFFF" transform="matrix(1.00, 0.00, -0.00, -1.00, 1252.7, 564.0)">O</text><text xml:space="preserve" font-family="Impact,Impact" font-weight="bold" font-size="112.0" fill="#FEFFFF" transform="matrix(1.00, 0.00, -0.00, -1.00, 1314.0, 564.0)">P</text><text xml:space="preserve" font-family="Impact,Impact" font-weight="bold" font-size="112.0" fill="#FEFFFF" transform="matrix(1.00, 0.00, -0.00, -1.00, 1370.2, 564.0)">M</text><text xml:space="preserve" font-family="Impact,Impact" font-weight="bold" font-size="112.0" fill="#FEFFFF" transform="matrix(1.00, 0.00, -0.00, -1.00, 1450.4, 564.0)">E</text><text xml:space="preserve" font-family="Impact,Impact" font-weight="bold" font-size="112.0" fill="#FEFFFF" transform="matrix(1.00, 0.00, -0.00, -1.00, 1496.9, 564.0)">N</text><text xml:space="preserve" font-family="Impact,Impact" font-weight="bold" font-size="112.0" fill="#FEFFFF" transform="matrix(1.00, 0.00, -0.00, -1.00, 1557.5, 564.0)">T</text><text xml:space="preserve" font-family="Impact,Impact" font-weight="bold" font-size="112.0" fill="#FEFFFF" transform="matrix(1.00, 0.00, -0.00, -1.00, 1609.1, 564.0)"> </text><text xml:space="preserve" font-family="Impact,Impact" font-weight="bold" font-size="112.0" fill="#FEFFFF" transform="matrix(1.00, 0.00, -0.00, -1.00, 1628.9, 564.0)">A</text><text xml:space="preserve" font-family="Impact,Impact" font-weight="bold" font-size="112.0" fill="#FEFFFF" transform="matrix(1.00, 0.00, -0.00, -1.00, 1685.8, 564.0)">N</text><text xml:space="preserve" font-family="Impact,Impact" font-weight="bold" font-size="112.0" fill="#FEFFFF" transform="matrix(1.00, 0.00, -0.00, -1.00, 1746.4, 564.0)">D</text><text xml:space="preserve" font-family="Impact,Impact" font-weight="bold" font-size="112.0" fill="#FEFFFF" transform="matrix(1.00, 0.00, -0.00, -1.00, 1808.2, 564.0)"> </text><text xml:space="preserve" font-family="Impact,Impact" font-weight="bold" font-size="112.0" fill="#FEFFFF" transform="matrix(1.00, 0.00, -0.00, -1.00, 784.1, 427.0)">T</text><text xml:space="preserve" font-family="Impact,Impact" font-weight="bold" font-size="112.0" fill="#FEFFFF" transform="matrix(1.00, 0.00, -0.00, -1.00, 835.7, 427.0)">E</text><text xml:space="preserve" font-family="Impact,Impact" font-weight="bold" font-size="112.0" fill="#FEFFFF" transform="matrix(1.00, 0.00, -0.00, -1.00, 882.2, 427.0)">S</text><text xml:space="preserve" font-family="Impact,Impact" font-weight="bold" font-size="112.0" fill="#FEFFFF" transform="matrix(1.00, 0.00, -0.00, -1.00, 940.1, 427.0)">T</text><text xml:space="preserve" font-family="Impact,Impact" font-weight="bold" font-size="112.0" fill="#FEFFFF" transform="matrix(1.00, 0.00, -0.00, -1.00, 991.7, 427.0)">I</text><text xml:space="preserve" font-family="Impact,Impact" font-weight="bold" font-size="112.0" fill="#FEFFFF" transform="matrix(1.00, 0.00, -0.00, -1.00, 1024.0, 427.0)">N</text><text xml:space="preserve" font-family="Impact,Impact" font-weight="bold" font-size="112.0" fill="#FEFFFF" transform="matrix(1.00, 0.00, -0.00, -1.00, 1084.6, 427.0)">G</text></g></svg>