<?xml version="1.0" encoding="UTF-8" standalone="no"?><svg xmlns="http://www.w3.org/2000/svg" xmlns:xlink="http://www.w3.org/1999/xlink" clip-rule="evenodd" stroke-miterlimit="10" viewBox="0 0 1920 1080"><desc>SVG generated by Keynote</desc><defs></defs><g transform="matrix(1.00, 0.00, -0.00, -1.00, 0.0, 1080.0)"><path d="M 0.0 1080.0 L 1920.0 1080.0 L 1920.0 0.0 L 0.0 0.0 Z M 0.0 1080.0 " fill="#000000"></path><image xlink:href="BC259EAE24715265E30DEEBB8D1AF6EA.png" width="480.00" height="360.00" transform="matrix(1.76, 0.00, -0.00, -1.76, 1086.3, 543.4)"></image><text xml:space="preserve" font-family="Impact,Impact" font-weight="bold" font-size="140.0" fill="#FEFFFF" transform="matrix(1.00, 0.00, -0.00, -1.00, 142.9, 873.9)">W</text><text xml:space="preserve" font-family="Impact,Impact" font-weight="bold" font-size="140.0" fill="#FEFFFF" transform="matrix(1.00, 0.00, -0.00, -1.00, 257.0, 873.9)">H</text><text xml:space="preserve" font-family="Impact,Impact" font-weight="bold" font-size="140.0" fill="#FEFFFF" transform="matrix(1.00, 0.00, -0.00, -1.00, 334.8, 873.9)">A</text><text xml:space="preserve" font-family="Impact,Impact" font-weight="bold" font-size="140.0" fill="#FEFFFF" transform="matrix(1.00, 0.00, -0.00, -1.00, 398.1, 873.9)">T</text><text xml:space="preserve" font-family="Impact,Impact" font-weight="bold" font-size="140.0" fill="#FEFFFF" transform="matrix(1.00, 0.00, -0.00, -1.00, 462.5, 873.9)"> </text><text xml:space="preserve" font-family="Impact,Impact" font-weight="bold" font-size="140.0" fill="#FEFFFF" transform="matrix(1.00, 0.00, -0.00, -1.00, 487.3, 873.9)">A</text><text xml:space="preserve" font-family="Impact,Impact" font-weight="bold" font-size="140.0" fill="#FEFFFF" transform="matrix(1.00, 0.00, -0.00, -1.00, 558.3, 873.9)">B</text><text xml:space="preserve" font-family="Impact,Impact" font-weight="bold" font-size="140.0" fill="#FEFFFF" transform="matrix(1.00, 0.00, -0.00, -1.00, 635.7, 873.9)">O</text><text xml:space="preserve" font-family="Impact,Impact" font-weight="bold" font-size="140.0" fill="#FEFFFF" transform="matrix(1.00, 0.00, -0.00, -1.00, 712.3, 873.9)">U</text><text xml:space="preserve" font-family="Impact,Impact" font-weight="bold" font-size="140.0" fill="#FEFFFF" transform="matrix(1.00, 0.00, -0.00, -1.00, 788.7, 873.9)">T</text><text xml:space="preserve" font-family="Impact,Impact" font-weight="bold" font-size="140.0" fill="#FEFFFF" transform="matrix(1.00, 0.00, -0.00, -1.00, 853.2, 873.9)"> </text><text xml:space="preserve" font-family="Impact,Impact" font-weight="bold" font-size="140.0" fill="#FEFFFF" transform="matrix(1.00, 0.00, -0.00, -1.00, 878.0, 873.9)">H</text><text xml:space="preserve" font-family="Impact,Impact" font-weight="bold" font-size="140.0" fill="#FEFFFF" transform="matrix(1.00, 0.00, -0.00, -1.00, 955.8, 873.9)">I</text><text xml:space="preserve" font-family="Impact,Impact" font-weight="bold" font-size="140.0" fill="#FEFFFF" transform="matrix(1.00, 0.00, -0.00, -1.00, 996.2, 873.9)">G</text><text xml:space="preserve" font-family="Impact,Impact" font-weight="bold" font-size="140.0" fill="#FEFFFF" transform="matrix(1.00, 0.00, -0.00, -1.00, 1073.4, 873.9)">H</text><text xml:space="preserve" font-family="Impact,Impact" font-weight="bold" font-size="140.0" fill="#FEFFFF" transform="matrix(1.00, 0.00, -0.00, -1.00, 1151.2, 873.9)">T</text><text xml:space="preserve" font-family="Impact,Impact" font-weight="bold" font-size="140.0" fill="#FEFFFF" transform="matrix(1.00, 0.00, -0.00, -1.00, 1215.7, 873.9)"> </text><text xml:space="preserve" font-family="Impact,Impact" font-weight="bold" font-size="140.0" fill="#FEFFFF" transform="matrix(1.00, 0.00, -0.00, -1.00, 126.0, 702.9)">A</text><text xml:space="preserve" font-family="Impact,Impact" font-weight="bold" font-size="140.0" fill="#FEFFFF" transform="matrix(1.00, 0.00, -0.00, -1.00, 194.0, 702.9)">V</text><text xml:space="preserve" font-family="Impact,Impact" font-weight="bold" font-size="140.0" fill="#FEFFFF" transform="matrix(1.00, 0.00, -0.00, -1.00, 265.6, 702.9)">A</text><text xml:space="preserve" font-family="Impact,Impact" font-weight="bold" font-size="140.0" fill="#FEFFFF" transform="matrix(1.00, 0.00, -0.00, -1.00, 336.6, 702.9)">I</text><text xml:space="preserve" font-family="Impact,Impact" font-weight="bold" font-size="140.0" fill="#FEFFFF" transform="matrix(1.00, 0.00, -0.00, -1.00, 376.9, 702.9)">L</text><text xml:space="preserve" font-family="Impact,Impact" font-weight="bold" font-size="140.0" fill="#FEFFFF" transform="matrix(1.00, 0.00, -0.00, -1.00, 433.8, 702.9)">A</text><text xml:space="preserve" font-family="Impact,Impact" font-weight="bold" font-size="140.0" fill="#FEFFFF" transform="matrix(1.00, 0.00, -0.00, -1.00, 504.9, 702.9)">B</text><text xml:space="preserve" font-family="Impact,Impact" font-weight="bold" font-size="140.0" fill="#FEFFFF" transform="matrix(1.00, 0.00, -0.00, -1.00, 582.2, 702.9)">I</text><text xml:space="preserve" font-family="Impact,Impact" font-weight="bold" font-size="140.0" fill="#FEFFFF" transform="matrix(1.00, 0.00, -0.00, -1.00, 622.5, 702.9)">L</text><text xml:space="preserve" font-family="Impact,Impact" font-weight="bold" font-size="140.0" fill="#FEFFFF" transform="matrix(1.00, 0.00, -0.00, -1.00, 675.8, 702.9)">I</text><text xml:space="preserve" font-family="Impact,Impact" font-weight="bold" font-size="140.0" fill="#FEFFFF" transform="matrix(1.00, 0.00, -0.00, -1.00, 716.1, 702.9)">T</text><text xml:space="preserve" font-family="Impact,Impact" font-weight="bold" font-size="140.0" fill="#FEFFFF" transform="matrix(1.00, 0.00, -0.00, -1.00, 784.1, 702.9)">Y</text><text xml:space="preserve" font-family="Impact,Impact" font-weight="bold" font-size="140.0" fill="#FEFFFF" transform="matrix(1.00, 0.00, -0.00, -1.00, 850.3, 702.9)"> </text><text xml:space="preserve" font-family="Impact,Impact" font-weight="bold" font-size="140.0" fill="#FEFFFF" transform="matrix(1.00, 0.00, -0.00, -1.00, 875.1, 702.9)">O</text><text xml:space="preserve" font-family="Impact,Impact" font-weight="bold" font-size="140.0" fill="#FEFFFF" transform="matrix(1.00, 0.00, -0.00, -1.00, 951.7, 702.9)">F</text><text xml:space="preserve" font-family="Impact,Impact" font-weight="bold" font-size="140.0" fill="#FEFFFF" transform="matrix(1.00, 0.00, -0.00, -1.00, 1007.4, 702.9)"> </text><text xml:space="preserve" font-family="Impact,Impact" font-weight="bold" font-size="140.0" fill="#FEFFFF" transform="matrix(1.00, 0.00, -0.00, -1.00, 1032.2, 702.9)">T</text><text xml:space="preserve" font-family="Impact,Impact" font-weight="bold" font-size="140.0" fill="#FEFFFF" transform="matrix(1.00, 0.00, -0.00, -1.00, 1096.7, 702.9)">H</text><text xml:space="preserve" font-family="Impact,Impact" font-weight="bold" font-size="140.0" fill="#FEFFFF" transform="matrix(1.00, 0.00, -0.00, -1.00, 1174.4, 702.9)">E</text><text xml:space="preserve" font-family="Impact,Impact" font-weight="bold" font-size="140.0" fill="#FEFFFF" transform="matrix(1.00, 0.00, -0.00, -1.00, 1232.6, 702.9)"> </text><text xml:space="preserve" font-family="Impact,Impact" font-weight="bold" font-size="140.0" fill="#FEFFFF" transform="matrix(1.00, 0.00, -0.00, -1.00, 169.8, 531.9)">D</text><text xml:space="preserve" font-family="Impact,Impact" font-weight="bold" font-size="140.0" fill="#FEFFFF" transform="matrix(1.00, 0.00, -0.00, -1.00, 247.1, 531.9)">A</text><text xml:space="preserve" font-family="Impact,Impact" font-weight="bold" font-size="140.0" fill="#FEFFFF" transform="matrix(1.00, 0.00, -0.00, -1.00, 310.5, 531.9)">T</text><text xml:space="preserve" font-family="Impact,Impact" font-weight="bold" font-size="140.0" fill="#FEFFFF" transform="matrix(1.00, 0.00, -0.00, -1.00, 369.4, 531.9)">A</text><text xml:space="preserve" font-family="Impact,Impact" font-weight="bold" font-size="140.0" fill="#FEFFFF" transform="matrix(1.00, 0.00, -0.00, -1.00, 440.5, 531.9)"> </text><text xml:space="preserve" font-family="Impact,Impact" font-weight="bold" font-size="140.0" fill="#FEFFFF" transform="matrix(1.00, 0.00, -0.00, -1.00, 465.2, 531.9)">P</text><text xml:space="preserve" font-family="Impact,Impact" font-weight="bold" font-size="140.0" fill="#FEFFFF" transform="matrix(1.00, 0.00, -0.00, -1.00, 535.5, 531.9)">E</text><text xml:space="preserve" font-family="Impact,Impact" font-weight="bold" font-size="140.0" fill="#FEFFFF" transform="matrix(1.00, 0.00, -0.00, -1.00, 593.6, 531.9)">R</text><text xml:space="preserve" font-family="Impact,Impact" font-weight="bold" font-size="140.0" fill="#FEFFFF" transform="matrix(1.00, 0.00, -0.00, -1.00, 668.9, 531.9)">S</text><text xml:space="preserve" font-family="Impact,Impact" font-weight="bold" font-size="140.0" fill="#FEFFFF" transform="matrix(1.00, 0.00, -0.00, -1.00, 741.3, 531.9)">I</text><text xml:space="preserve" font-family="Impact,Impact" font-weight="bold" font-size="140.0" fill="#FEFFFF" transform="matrix(1.00, 0.00, -0.00, -1.00, 781.7, 531.9)">S</text><text xml:space="preserve" font-family="Impact,Impact" font-weight="bold" font-size="140.0" fill="#FEFFFF" transform="matrix(1.00, 0.00, -0.00, -1.00, 854.1, 531.9)">T</text><text xml:space="preserve" font-family="Impact,Impact" font-weight="bold" font-size="140.0" fill="#FEFFFF" transform="matrix(1.00, 0.00, -0.00, -1.00, 918.6, 531.9)">E</text><text xml:space="preserve" font-family="Impact,Impact" font-weight="bold" font-size="140.0" fill="#FEFFFF" transform="matrix(1.00, 0.00, -0.00, -1.00, 976.7, 531.9)">N</text><text xml:space="preserve" font-family="Impact,Impact" font-weight="bold" font-size="140.0" fill="#FEFFFF" transform="matrix(1.00, 0.00, -0.00, -1.00, 1052.4, 531.9)">C</text><text xml:space="preserve" font-family="Impact,Impact" font-weight="bold" font-size="140.0" fill="#FEFFFF" transform="matrix(1.00, 0.00, -0.00, -1.00, 1129.9, 531.9)">E</text><text xml:space="preserve" font-family="Impact,Impact" font-weight="bold" font-size="140.0" fill="#FEFFFF" transform="matrix(1.00, 0.00, -0.00, -1.00, 1188.0, 531.9)"> </text><text xml:space="preserve" font-family="Impact,Impact" font-weight="bold" font-size="140.0" fill="#FEFFFF" transform="matrix(1.00, 0.00, -0.00, -1.00, 482.7, 360.9)">L</text><text xml:space="preserve" font-family="Impact,Impact" font-weight="bold" font-size="140.0" fill="#FEFFFF" transform="matrix(1.00, 0.00, -0.00, -1.00, 539.5, 360.9)">A</text><text xml:space="preserve" font-family="Impact,Impact" font-weight="bold" font-size="140.0" fill="#FEFFFF" transform="matrix(1.00, 0.00, -0.00, -1.00, 602.1, 360.9)">Y</text><text xml:space="preserve" font-family="Impact,Impact" font-weight="bold" font-size="140.0" fill="#FEFFFF" transform="matrix(1.00, 0.00, -0.00, -1.00, 668.4, 360.9)">E</text><text xml:space="preserve" font-family="Impact,Impact" font-weight="bold" font-size="140.0" fill="#FEFFFF" transform="matrix(1.00, 0.00, -0.00, -1.00, 726.5, 360.9)">R</text><text xml:space="preserve" font-family="Impact,Impact" font-weight="bold" font-size="140.0" fill="#FEFFFF" transform="matrix(1.00, 0.00, -0.00, -1.00, 801.8, 360.9)">?</text></g></svg>