<?xml version="1.0" encoding="UTF-8" standalone="no"?><svg xmlns="http://www.w3.org/2000/svg" xmlns:xlink="http://www.w3.org/1999/xlink" clip-rule="evenodd" stroke-miterlimit="10" viewBox="0 0 1920 1080"><desc>SVG generated by Keynote</desc><defs></defs><g transform="matrix(1.00, 0.00, -0.00, -1.00, 0.0, 1080.0)"><path d="M 0.0 1080.0 L 1920.0 1080.0 L 1920.0 0.0 L 0.0 0.0 Z M 0.0 1080.0 " fill="#000000"></path><text xml:space="preserve" font-family="Impact,Impact" font-weight="bold" font-size="160.0" fill="#FEFFFF" transform="matrix(1.00, 0.00, -0.00, -1.00, 407.5, 576.2)">V</text><text xml:space="preserve" font-family="Impact,Impact" font-weight="bold" font-size="160.0" fill="#FEFFFF" transform="matrix(1.00, 0.00, -0.00, -1.00, 491.3, 576.2)">E</text><text xml:space="preserve" font-family="Impact,Impact" font-weight="bold" font-size="160.0" fill="#FEFFFF" transform="matrix(1.00, 0.00, -0.00, -1.00, 557.7, 576.2)">C</text><text xml:space="preserve" font-family="Impact,Impact" font-weight="bold" font-size="160.0" fill="#FEFFFF" transform="matrix(1.00, 0.00, -0.00, -1.00, 646.2, 576.2)">T</text><text xml:space="preserve" font-family="Impact,Impact" font-weight="bold" font-size="160.0" fill="#FEFFFF" transform="matrix(1.00, 0.00, -0.00, -1.00, 719.9, 576.2)">O</text><text xml:space="preserve" font-family="Impact,Impact" font-weight="bold" font-size="160.0" fill="#FEFFFF" transform="matrix(1.00, 0.00, -0.00, -1.00, 807.4, 576.2)">R</text><text xml:space="preserve" font-family="Impact,Impact" font-weight="bold" font-size="160.0" fill="#FEFFFF" transform="matrix(1.00, 0.00, -0.00, -1.00, 893.4, 576.2)"> </text><text xml:space="preserve" font-family="Impact,Impact" font-weight="bold" font-size="160.0" fill="#FEFFFF" transform="matrix(1.00, 0.00, -0.00, -1.00, 921.7, 576.2)">C</text><text xml:space="preserve" font-family="Impact,Impact" font-weight="bold" font-size="160.0" fill="#FEFFFF" transform="matrix(1.00, 0.00, -0.00, -1.00, 1010.2, 576.2)">L</text><text xml:space="preserve" font-family="Impact,Impact" font-weight="bold" font-size="160.0" fill="#FEFFFF" transform="matrix(1.00, 0.00, -0.00, -1.00, 1068.7, 576.2)">O</text><text xml:space="preserve" font-family="Impact,Impact" font-weight="bold" font-size="160.0" fill="#FEFFFF" transform="matrix(1.00, 0.00, -0.00, -1.00, 1156.2, 576.2)">C</text><text xml:space="preserve" font-family="Impact,Impact" font-weight="bold" font-size="160.0" fill="#FEFFFF" transform="matrix(1.00, 0.00, -0.00, -1.00, 1244.7, 576.2)">K</text><text xml:space="preserve" font-family="Impact,Impact" font-weight="bold" font-size="160.0" fill="#FEFFFF" transform="matrix(1.00, 0.00, -0.00, -1.00, 1328.1, 576.2)">S</text><text xml:space="preserve" font-family="Impact,Impact" font-weight="bold" font-size="160.0" fill="#FEFFFF" transform="matrix(1.00, 0.00, -0.00, -1.00, 1410.9, 576.2)"> </text><text xml:space="preserve" font-family="Impact,Impact" font-weight="bold" font-size="160.0" fill="#FEFFFF" transform="matrix(1.00, 0.00, -0.00, -1.00, 1439.1, 576.2)">=</text><text xml:space="preserve" font-family="Impact,Impact" font-weight="bold" font-size="160.0" fill="#FEFFFF" transform="matrix(1.00, 0.00, -0.00, -1.00, 1524.5, 576.2)"> </text><text xml:space="preserve" font-family="Impact,Impact" font-weight="bold" font-size="160.0" fill="#FEFFFF" transform="matrix(1.00, 0.00, -0.00, -1.00, 157.9, 381.2)">D</text><text xml:space="preserve" font-family="Impact,Impact" font-weight="bold" font-size="160.0" fill="#FEFFFF" transform="matrix(1.00, 0.00, -0.00, -1.00, 246.3, 381.2)">I</text><text xml:space="preserve" font-family="Impact,Impact" font-weight="bold" font-size="160.0" fill="#FEFFFF" transform="matrix(1.00, 0.00, -0.00, -1.00, 292.4, 381.2)">S</text><text xml:space="preserve" font-family="Impact,Impact" font-weight="bold" font-size="160.0" fill="#FEFFFF" transform="matrix(1.00, 0.00, -0.00, -1.00, 375.1, 381.2)">T</text><text xml:space="preserve" font-family="Impact,Impact" font-weight="bold" font-size="160.0" fill="#FEFFFF" transform="matrix(1.00, 0.00, -0.00, -1.00, 448.8, 381.2)">R</text><text xml:space="preserve" font-family="Impact,Impact" font-weight="bold" font-size="160.0" fill="#FEFFFF" transform="matrix(1.00, 0.00, -0.00, -1.00, 534.9, 381.2)">I</text><text xml:space="preserve" font-family="Impact,Impact" font-weight="bold" font-size="160.0" fill="#FEFFFF" transform="matrix(1.00, 0.00, -0.00, -1.00, 580.9, 381.2)">B</text><text xml:space="preserve" font-family="Impact,Impact" font-weight="bold" font-size="160.0" fill="#FEFFFF" transform="matrix(1.00, 0.00, -0.00, -1.00, 669.4, 381.2)">U</text><text xml:space="preserve" font-family="Impact,Impact" font-weight="bold" font-size="160.0" fill="#FEFFFF" transform="matrix(1.00, 0.00, -0.00, -1.00, 756.9, 381.2)">T</text><text xml:space="preserve" font-family="Impact,Impact" font-weight="bold" font-size="160.0" fill="#FEFFFF" transform="matrix(1.00, 0.00, -0.00, -1.00, 830.6, 381.2)">E</text><text xml:space="preserve" font-family="Impact,Impact" font-weight="bold" font-size="160.0" fill="#FEFFFF" transform="matrix(1.00, 0.00, -0.00, -1.00, 897.0, 381.2)">D</text><text xml:space="preserve" font-family="Impact,Impact" font-weight="bold" font-size="160.0" fill="#FEFFFF" transform="matrix(1.00, 0.00, -0.00, -1.00, 985.4, 381.2)"> </text><text xml:space="preserve" font-family="Impact,Impact" font-weight="bold" font-size="160.0" fill="#FEFFFF" transform="matrix(1.00, 0.00, -0.00, -1.00, 1013.7, 381.2)">V</text><text xml:space="preserve" font-family="Impact,Impact" font-weight="bold" font-size="160.0" fill="#FEFFFF" transform="matrix(1.00, 0.00, -0.00, -1.00, 1097.6, 381.2)">E</text><text xml:space="preserve" font-family="Impact,Impact" font-weight="bold" font-size="160.0" fill="#FEFFFF" transform="matrix(1.00, 0.00, -0.00, -1.00, 1164.0, 381.2)">R</text><text xml:space="preserve" font-family="Impact,Impact" font-weight="bold" font-size="160.0" fill="#FEFFFF" transform="matrix(1.00, 0.00, -0.00, -1.00, 1250.1, 381.2)">S</text><text xml:space="preserve" font-family="Impact,Impact" font-weight="bold" font-size="160.0" fill="#FEFFFF" transform="matrix(1.00, 0.00, -0.00, -1.00, 1332.8, 381.2)">I</text><text xml:space="preserve" font-family="Impact,Impact" font-weight="bold" font-size="160.0" fill="#FEFFFF" transform="matrix(1.00, 0.00, -0.00, -1.00, 1378.9, 381.2)">O</text><text xml:space="preserve" font-family="Impact,Impact" font-weight="bold" font-size="160.0" fill="#FEFFFF" transform="matrix(1.00, 0.00, -0.00, -1.00, 1466.4, 381.2)">N</text><text xml:space="preserve" font-family="Impact,Impact" font-weight="bold" font-size="160.0" fill="#FEFFFF" transform="matrix(1.00, 0.00, -0.00, -1.00, 1553.0, 381.2)">I</text><text xml:space="preserve" font-family="Impact,Impact" font-weight="bold" font-size="160.0" fill="#FEFFFF" transform="matrix(1.00, 0.00, -0.00, -1.00, 1599.0, 381.2)">N</text><text xml:space="preserve" font-family="Impact,Impact" font-weight="bold" font-size="160.0" fill="#FEFFFF" transform="matrix(1.00, 0.00, -0.00, -1.00, 1685.6, 381.2)">G</text></g></svg>