<?xml version="1.0" encoding="UTF-8" standalone="no"?><svg xmlns="http://www.w3.org/2000/svg" xmlns:xlink="http://www.w3.org/1999/xlink" clip-rule="evenodd" stroke-miterlimit="10" viewBox="0 0 1920 1080"><desc>SVG generated by Keynote</desc><defs></defs><g transform="matrix(1.00, 0.00, -0.00, -1.00, 0.0, 1080.0)"><path d="M 0.0 1080.0 L 1920.0 1080.0 L 1920.0 0.0 L 0.0 0.0 Z M 0.0 1080.0 " fill="#000000"></path><text xml:space="preserve" font-family="Impact,Impact" font-weight="bold" font-size="119.0" fill="#FEFFFF" transform="matrix(1.00, 0.00, -0.00, -1.00, 470.3, 785.9)">A</text><text xml:space="preserve" font-family="Impact,Impact" font-weight="bold" font-size="119.0" fill="#FEFFFF" transform="matrix(1.00, 0.00, -0.00, -1.00, 530.8, 785.9)">L</text><text xml:space="preserve" font-family="Impact,Impact" font-weight="bold" font-size="119.0" fill="#FEFFFF" transform="matrix(1.00, 0.00, -0.00, -1.00, 576.1, 785.9)">L</text><text xml:space="preserve" font-family="Impact,Impact" font-weight="bold" font-size="119.0" fill="#FEFFFF" transform="matrix(1.00, 0.00, -0.00, -1.00, 621.5, 785.9)"> </text><text xml:space="preserve" font-family="Impact,Impact" font-weight="bold" font-size="119.0" fill="#FEFFFF" transform="matrix(1.00, 0.00, -0.00, -1.00, 642.5, 785.9)">N</text><text xml:space="preserve" font-family="Impact,Impact" font-weight="bold" font-size="119.0" fill="#FEFFFF" transform="matrix(1.00, 0.00, -0.00, -1.00, 707.0, 785.9)">O</text><text xml:space="preserve" font-family="Impact,Impact" font-weight="bold" font-size="119.0" fill="#FEFFFF" transform="matrix(1.00, 0.00, -0.00, -1.00, 772.1, 785.9)">D</text><text xml:space="preserve" font-family="Impact,Impact" font-weight="bold" font-size="119.0" fill="#FEFFFF" transform="matrix(1.00, 0.00, -0.00, -1.00, 837.8, 785.9)">E</text><text xml:space="preserve" font-family="Impact,Impact" font-weight="bold" font-size="119.0" fill="#FEFFFF" transform="matrix(1.00, 0.00, -0.00, -1.00, 887.2, 785.9)">S</text><text xml:space="preserve" font-family="Impact,Impact" font-weight="bold" font-size="119.0" fill="#FEFFFF" transform="matrix(1.00, 0.00, -0.00, -1.00, 948.8, 785.9)"> </text><text xml:space="preserve" font-family="Impact,Impact" font-weight="bold" font-size="119.0" fill="#FEFFFF" transform="matrix(1.00, 0.00, -0.00, -1.00, 969.8, 785.9)">A</text><text xml:space="preserve" font-family="Impact,Impact" font-weight="bold" font-size="119.0" fill="#FEFFFF" transform="matrix(1.00, 0.00, -0.00, -1.00, 1030.2, 785.9)">R</text><text xml:space="preserve" font-family="Impact,Impact" font-weight="bold" font-size="119.0" fill="#FEFFFF" transform="matrix(1.00, 0.00, -0.00, -1.00, 1094.3, 785.9)">E</text><text xml:space="preserve" font-family="Impact,Impact" font-weight="bold" font-size="119.0" fill="#FEFFFF" transform="matrix(1.00, 0.00, -0.00, -1.00, 1143.7, 785.9)"> </text><text xml:space="preserve" font-family="Impact,Impact" font-weight="bold" font-size="119.0" fill="#FEFFFF" transform="matrix(1.00, 0.00, -0.00, -1.00, 1164.8, 785.9)">E</text><text xml:space="preserve" font-family="Impact,Impact" font-weight="bold" font-size="119.0" fill="#FEFFFF" transform="matrix(1.00, 0.00, -0.00, -1.00, 1214.2, 785.9)">Q</text><text xml:space="preserve" font-family="Impact,Impact" font-weight="bold" font-size="119.0" fill="#FEFFFF" transform="matrix(1.00, 0.00, -0.00, -1.00, 1279.3, 785.9)">U</text><text xml:space="preserve" font-family="Impact,Impact" font-weight="bold" font-size="119.0" fill="#FEFFFF" transform="matrix(1.00, 0.00, -0.00, -1.00, 1344.4, 785.9)">A</text><text xml:space="preserve" font-family="Impact,Impact" font-weight="bold" font-size="119.0" fill="#FEFFFF" transform="matrix(1.00, 0.00, -0.00, -1.00, 1404.8, 785.9)">L</text><text xml:space="preserve" font-family="Impact,Impact" font-weight="bold" font-size="119.0" fill="#FEFFFF" transform="matrix(1.00, 0.00, -0.00, -1.00, 1450.2, 785.9)"> </text><text xml:space="preserve" font-family="Impact,Impact" font-weight="bold" font-size="119.0" fill="#FEFFFF" transform="matrix(1.00, 0.00, -0.00, -1.00, 53.5, 640.9)">O</text><text xml:space="preserve" font-family="Impact,Impact" font-weight="bold" font-size="119.0" fill="#FEFFFF" transform="matrix(1.00, 0.00, -0.00, -1.00, 118.5, 640.9)">N</text><text xml:space="preserve" font-family="Impact,Impact" font-weight="bold" font-size="119.0" fill="#FEFFFF" transform="matrix(1.00, 0.00, -0.00, -1.00, 182.9, 640.9)">E</text><text xml:space="preserve" font-family="Impact,Impact" font-weight="bold" font-size="119.0" fill="#FEFFFF" transform="matrix(1.00, 0.00, -0.00, -1.00, 232.3, 640.9)"> </text><text xml:space="preserve" font-family="Impact,Impact" font-weight="bold" font-size="119.0" fill="#FEFFFF" transform="matrix(1.00, 0.00, -0.00, -1.00, 253.3, 640.9)">N</text><text xml:space="preserve" font-family="Impact,Impact" font-weight="bold" font-size="119.0" fill="#FEFFFF" transform="matrix(1.00, 0.00, -0.00, -1.00, 317.7, 640.9)">O</text><text xml:space="preserve" font-family="Impact,Impact" font-weight="bold" font-size="119.0" fill="#FEFFFF" transform="matrix(1.00, 0.00, -0.00, -1.00, 382.7, 640.9)">D</text><text xml:space="preserve" font-family="Impact,Impact" font-weight="bold" font-size="119.0" fill="#FEFFFF" transform="matrix(1.00, 0.00, -0.00, -1.00, 448.4, 640.9)">E</text><text xml:space="preserve" font-family="Impact,Impact" font-weight="bold" font-size="119.0" fill="#FEFFFF" transform="matrix(1.00, 0.00, -0.00, -1.00, 497.8, 640.9)"> </text><text xml:space="preserve" font-family="Impact,Impact" font-weight="bold" font-size="119.0" fill="#FEFFFF" transform="matrix(1.00, 0.00, -0.00, -1.00, 518.8, 640.9)">C</text><text xml:space="preserve" font-family="Impact,Impact" font-weight="bold" font-size="119.0" fill="#FEFFFF" transform="matrix(1.00, 0.00, -0.00, -1.00, 584.7, 640.9)">A</text><text xml:space="preserve" font-family="Impact,Impact" font-weight="bold" font-size="119.0" fill="#FEFFFF" transform="matrix(1.00, 0.00, -0.00, -1.00, 645.0, 640.9)">N</text><text xml:space="preserve" font-family="Impact,Impact" font-weight="bold" font-size="119.0" fill="#FEFFFF" transform="matrix(1.00, 0.00, -0.00, -1.00, 709.4, 640.9)"> </text><text xml:space="preserve" font-family="Impact,Impact" font-weight="bold" font-size="119.0" fill="#FEFFFF" transform="matrix(1.00, 0.00, -0.00, -1.00, 730.4, 640.9)">B</text><text xml:space="preserve" font-family="Impact,Impact" font-weight="bold" font-size="119.0" fill="#FEFFFF" transform="matrix(1.00, 0.00, -0.00, -1.00, 796.2, 640.9)">E</text><text xml:space="preserve" font-family="Impact,Impact" font-weight="bold" font-size="119.0" fill="#FEFFFF" transform="matrix(1.00, 0.00, -0.00, -1.00, 845.6, 640.9)"> </text><text xml:space="preserve" font-family="Impact,Impact" font-weight="bold" font-size="119.0" fill="#FEFFFF" transform="matrix(1.00, 0.00, -0.00, -1.00, 866.6, 640.9)">I</text><text xml:space="preserve" font-family="Impact,Impact" font-weight="bold" font-size="119.0" fill="#FEFFFF" transform="matrix(1.00, 0.00, -0.00, -1.00, 900.9, 640.9)">N</text><text xml:space="preserve" font-family="Impact,Impact" font-weight="bold" font-size="119.0" fill="#FEFFFF" transform="matrix(1.00, 0.00, -0.00, -1.00, 965.3, 640.9)"> </text><text xml:space="preserve" font-family="Impact,Impact" font-weight="bold" font-size="119.0" fill="#FEFFFF" transform="matrix(1.00, 0.00, -0.00, -1.00, 986.3, 640.9)">O</text><text xml:space="preserve" font-family="Impact,Impact" font-weight="bold" font-size="119.0" fill="#FEFFFF" transform="matrix(1.00, 0.00, -0.00, -1.00, 1051.4, 640.9)">N</text><text xml:space="preserve" font-family="Impact,Impact" font-weight="bold" font-size="119.0" fill="#FEFFFF" transform="matrix(1.00, 0.00, -0.00, -1.00, 1115.7, 640.9)">E</text><text xml:space="preserve" font-family="Impact,Impact" font-weight="bold" font-size="119.0" fill="#FEFFFF" transform="matrix(1.00, 0.00, -0.00, -1.00, 1165.1, 640.9)"> </text><text xml:space="preserve" font-family="Impact,Impact" font-weight="bold" font-size="119.0" fill="#FEFFFF" transform="matrix(1.00, 0.00, -0.00, -1.00, 1186.1, 640.9)">O</text><text xml:space="preserve" font-family="Impact,Impact" font-weight="bold" font-size="119.0" fill="#FEFFFF" transform="matrix(1.00, 0.00, -0.00, -1.00, 1251.2, 640.9)">F</text><text xml:space="preserve" font-family="Impact,Impact" font-weight="bold" font-size="119.0" fill="#FEFFFF" transform="matrix(1.00, 0.00, -0.00, -1.00, 1298.5, 640.9)"> </text><text xml:space="preserve" font-family="Impact,Impact" font-weight="bold" font-size="119.0" fill="#FEFFFF" transform="matrix(1.00, 0.00, -0.00, -1.00, 1319.5, 640.9)">T</text><text xml:space="preserve" font-family="Impact,Impact" font-weight="bold" font-size="119.0" fill="#FEFFFF" transform="matrix(1.00, 0.00, -0.00, -1.00, 1374.3, 640.9)">H</text><text xml:space="preserve" font-family="Impact,Impact" font-weight="bold" font-size="119.0" fill="#FEFFFF" transform="matrix(1.00, 0.00, -0.00, -1.00, 1440.4, 640.9)">E</text><text xml:space="preserve" font-family="Impact,Impact" font-weight="bold" font-size="119.0" fill="#FEFFFF" transform="matrix(1.00, 0.00, -0.00, -1.00, 1489.8, 640.9)"> </text><text xml:space="preserve" font-family="Impact,Impact" font-weight="bold" font-size="119.0" fill="#FEFFFF" transform="matrix(1.00, 0.00, -0.00, -1.00, 1510.8, 640.9)">S</text><text xml:space="preserve" font-family="Impact,Impact" font-weight="bold" font-size="119.0" fill="#FEFFFF" transform="matrix(1.00, 0.00, -0.00, -1.00, 1572.4, 640.9)">T</text><text xml:space="preserve" font-family="Impact,Impact" font-weight="bold" font-size="119.0" fill="#FEFFFF" transform="matrix(1.00, 0.00, -0.00, -1.00, 1622.4, 640.9)">A</text><text xml:space="preserve" font-family="Impact,Impact" font-weight="bold" font-size="119.0" fill="#FEFFFF" transform="matrix(1.00, 0.00, -0.00, -1.00, 1676.2, 640.9)">T</text><text xml:space="preserve" font-family="Impact,Impact" font-weight="bold" font-size="119.0" fill="#FEFFFF" transform="matrix(1.00, 0.00, -0.00, -1.00, 1731.0, 640.9)">E</text><text xml:space="preserve" font-family="Impact,Impact" font-weight="bold" font-size="119.0" fill="#FEFFFF" transform="matrix(1.00, 0.00, -0.00, -1.00, 1780.4, 640.9)">S</text><text xml:space="preserve" font-family="Impact,Impact" font-weight="bold" font-size="119.0" fill="#FEFFFF" transform="matrix(1.00, 0.00, -0.00, -1.00, 1842.0, 640.9)">:</text><text xml:space="preserve" font-family="Impact,Impact" font-weight="bold" font-size="119.0" fill="#FEFFFF" transform="matrix(1.00, 0.00, -0.00, -1.00, 1866.1, 640.9)"> </text><text xml:space="preserve" font-family="Impact,Impact" font-weight="bold" font-size="119.0" fill="#FEFFFF" transform="matrix(1.00, 0.00, -0.00, -1.00, 721.7, 495.9)">F</text><text xml:space="preserve" font-family="Impact,Impact" font-weight="bold" font-size="119.0" fill="#FEFFFF" transform="matrix(1.00, 0.00, -0.00, -1.00, 769.1, 495.9)">O</text><text xml:space="preserve" font-family="Impact,Impact" font-weight="bold" font-size="119.0" fill="#FEFFFF" transform="matrix(1.00, 0.00, -0.00, -1.00, 834.2, 495.9)">L</text><text xml:space="preserve" font-family="Impact,Impact" font-weight="bold" font-size="119.0" fill="#FEFFFF" transform="matrix(1.00, 0.00, -0.00, -1.00, 879.6, 495.9)">L</text><text xml:space="preserve" font-family="Impact,Impact" font-weight="bold" font-size="119.0" fill="#FEFFFF" transform="matrix(1.00, 0.00, -0.00, -1.00, 923.0, 495.9)">O</text><text xml:space="preserve" font-family="Impact,Impact" font-weight="bold" font-size="119.0" fill="#FEFFFF" transform="matrix(1.00, 0.00, -0.00, -1.00, 988.1, 495.9)">W</text><text xml:space="preserve" font-family="Impact,Impact" font-weight="bold" font-size="119.0" fill="#FEFFFF" transform="matrix(1.00, 0.00, -0.00, -1.00, 1085.2, 495.9)">E</text><text xml:space="preserve" font-family="Impact,Impact" font-weight="bold" font-size="119.0" fill="#FEFFFF" transform="matrix(1.00, 0.00, -0.00, -1.00, 1134.6, 495.9)">R</text><text xml:space="preserve" font-family="Impact,Impact" font-weight="bold" font-size="119.0" fill="#FEFFFF" transform="matrix(1.00, 0.00, -0.00, -1.00, 1198.7, 495.9)"> </text><text xml:space="preserve" font-family="Impact,Impact" font-weight="bold" font-size="119.0" fill="#FEFFFF" transform="matrix(1.00, 0.00, -0.00, -1.00, 702.6, 350.9)">C</text><text xml:space="preserve" font-family="Impact,Impact" font-weight="bold" font-size="119.0" fill="#FEFFFF" transform="matrix(1.00, 0.00, -0.00, -1.00, 768.5, 350.9)">A</text><text xml:space="preserve" font-family="Impact,Impact" font-weight="bold" font-size="119.0" fill="#FEFFFF" transform="matrix(1.00, 0.00, -0.00, -1.00, 828.9, 350.9)">N</text><text xml:space="preserve" font-family="Impact,Impact" font-weight="bold" font-size="119.0" fill="#FEFFFF" transform="matrix(1.00, 0.00, -0.00, -1.00, 893.3, 350.9)">D</text><text xml:space="preserve" font-family="Impact,Impact" font-weight="bold" font-size="119.0" fill="#FEFFFF" transform="matrix(1.00, 0.00, -0.00, -1.00, 959.0, 350.9)">I</text><text xml:space="preserve" font-family="Impact,Impact" font-weight="bold" font-size="119.0" fill="#FEFFFF" transform="matrix(1.00, 0.00, -0.00, -1.00, 993.3, 350.9)">D</text><text xml:space="preserve" font-family="Impact,Impact" font-weight="bold" font-size="119.0" fill="#FEFFFF" transform="matrix(1.00, 0.00, -0.00, -1.00, 1059.0, 350.9)">A</text><text xml:space="preserve" font-family="Impact,Impact" font-weight="bold" font-size="119.0" fill="#FEFFFF" transform="matrix(1.00, 0.00, -0.00, -1.00, 1112.8, 350.9)">T</text><text xml:space="preserve" font-family="Impact,Impact" font-weight="bold" font-size="119.0" fill="#FEFFFF" transform="matrix(1.00, 0.00, -0.00, -1.00, 1167.7, 350.9)">E</text><text xml:space="preserve" font-family="Impact,Impact" font-weight="bold" font-size="119.0" fill="#FEFFFF" transform="matrix(1.00, 0.00, -0.00, -1.00, 1217.1, 350.9)"> </text><text xml:space="preserve" font-family="Impact,Impact" font-weight="bold" font-size="119.0" fill="#FEFFFF" transform="matrix(1.00, 0.00, -0.00, -1.00, 792.8, 205.9)">L</text><text xml:space="preserve" font-family="Impact,Impact" font-weight="bold" font-size="119.0" fill="#FEFFFF" transform="matrix(1.00, 0.00, -0.00, -1.00, 838.1, 205.9)">E</text><text xml:space="preserve" font-family="Impact,Impact" font-weight="bold" font-size="119.0" fill="#FEFFFF" transform="matrix(1.00, 0.00, -0.00, -1.00, 887.5, 205.9)">A</text><text xml:space="preserve" font-family="Impact,Impact" font-weight="bold" font-size="119.0" fill="#FEFFFF" transform="matrix(1.00, 0.00, -0.00, -1.00, 947.8, 205.9)">D</text><text xml:space="preserve" font-family="Impact,Impact" font-weight="bold" font-size="119.0" fill="#FEFFFF" transform="matrix(1.00, 0.00, -0.00, -1.00, 1013.5, 205.9)">E</text><text xml:space="preserve" font-family="Impact,Impact" font-weight="bold" font-size="119.0" fill="#FEFFFF" transform="matrix(1.00, 0.00, -0.00, -1.00, 1062.9, 205.9)">R</text></g></svg>