<?xml version="1.0" encoding="UTF-8" standalone="no"?><svg xmlns="http://www.w3.org/2000/svg" xmlns:xlink="http://www.w3.org/1999/xlink" clip-rule="evenodd" stroke-miterlimit="10" viewBox="0 0 1224 903"><desc>SVG generated by Keynote</desc><defs></defs><g transform="matrix(1.00, 0.00, -0.00, -1.00, 0.0, 903.0)"><text xml:space="preserve" font-family="Impact,Impact" font-weight="bold" font-size="277.2" fill="#FEFFFF" transform="matrix(1.00, 0.00, -0.00, -1.00, 161.1, 682.4)">A</text><text xml:space="preserve" font-family="Impact,Impact" font-weight="bold" font-size="277.2" fill="#FEFFFF" transform="matrix(1.00, 0.00, -0.00, -1.00, 301.8, 682.4)">N</text><text xml:space="preserve" font-family="Impact,Impact" font-weight="bold" font-size="277.2" fill="#FEFFFF" transform="matrix(1.00, 0.00, -0.00, -1.00, 451.9, 682.4)">D</text><text xml:space="preserve" font-family="Impact,Impact" font-weight="bold" font-size="277.2" fill="#FEFFFF" transform="matrix(1.00, 0.00, -0.00, -1.00, 605.0, 682.4)"> </text><text xml:space="preserve" font-family="Impact,Impact" font-weight="bold" font-size="277.2" fill="#FEFFFF" transform="matrix(1.00, 0.00, -0.00, -1.00, 654.1, 682.4)">T</text><text xml:space="preserve" font-family="Impact,Impact" font-weight="bold" font-size="277.2" fill="#FEFFFF" transform="matrix(1.00, 0.00, -0.00, -1.00, 781.8, 682.4)">H</text><text xml:space="preserve" font-family="Impact,Impact" font-weight="bold" font-size="277.2" fill="#FEFFFF" transform="matrix(1.00, 0.00, -0.00, -1.00, 935.7, 682.4)">E</text><text xml:space="preserve" font-family="Impact,Impact" font-weight="bold" font-size="277.2" fill="#FEFFFF" transform="matrix(1.00, 0.00, -0.00, -1.00, 1050.8, 682.4)"> </text><text xml:space="preserve" font-family="Impact,Impact" font-weight="bold" font-size="277.2" fill="#FEFFFF" transform="matrix(1.00, 0.00, -0.00, -1.00, -9.4, 344.4)">B</text><text xml:space="preserve" font-family="Impact,Impact" font-weight="bold" font-size="277.2" fill="#FEFFFF" transform="matrix(1.00, 0.00, -0.00, -1.00, 143.8, 344.4)">E</text><text xml:space="preserve" font-family="Impact,Impact" font-weight="bold" font-size="277.2" fill="#FEFFFF" transform="matrix(1.00, 0.00, -0.00, -1.00, 258.7, 344.4)">S</text><text xml:space="preserve" font-family="Impact,Impact" font-weight="bold" font-size="277.2" fill="#FEFFFF" transform="matrix(1.00, 0.00, -0.00, -1.00, 402.1, 344.4)">T</text><text xml:space="preserve" font-family="Impact,Impact" font-weight="bold" font-size="277.2" fill="#FEFFFF" transform="matrix(1.00, 0.00, -0.00, -1.00, 529.9, 344.4)"> </text><text xml:space="preserve" font-family="Impact,Impact" font-weight="bold" font-size="277.2" fill="#FEFFFF" transform="matrix(1.00, 0.00, -0.00, -1.00, 578.9, 344.4)">I</text><text xml:space="preserve" font-family="Impact,Impact" font-weight="bold" font-size="277.2" fill="#FEFFFF" transform="matrix(1.00, 0.00, -0.00, -1.00, 658.8, 344.4)">S</text><text xml:space="preserve" font-family="Impact,Impact" font-weight="bold" font-size="277.2" fill="#FEFFFF" transform="matrix(1.00, 0.00, -0.00, -1.00, 802.2, 344.4)"> </text><text xml:space="preserve" font-family="Impact,Impact" font-weight="bold" font-size="277.2" fill="#FEFFFF" transform="matrix(1.00, 0.00, -0.00, -1.00, 851.1, 344.4)">Y</text><text xml:space="preserve" font-family="Impact,Impact" font-weight="bold" font-size="277.2" fill="#FEFFFF" transform="matrix(1.00, 0.00, -0.00, -1.00, 982.3, 344.4)">E</text><text xml:space="preserve" font-family="Impact,Impact" font-weight="bold" font-size="277.2" fill="#FEFFFF" transform="matrix(1.00, 0.00, -0.00, -1.00, 1093.7, 344.4)">T</text><text xml:space="preserve" font-family="Impact,Impact" font-weight="bold" font-size="277.2" fill="#FEFFFF" transform="matrix(1.00, 0.00, -0.00, -1.00, 1221.5, 344.4)"> </text><text xml:space="preserve" font-family="Impact,Impact" font-weight="bold" font-size="277.2" fill="#FEFFFF" transform="matrix(1.00, 0.00, -0.00, -1.00, 132.5, 6.4)">T</text><text xml:space="preserve" font-family="Impact,Impact" font-weight="bold" font-size="277.2" fill="#FEFFFF" transform="matrix(1.00, 0.00, -0.00, -1.00, 260.3, 6.4)">O</text><text xml:space="preserve" font-family="Impact,Impact" font-weight="bold" font-size="277.2" fill="#FEFFFF" transform="matrix(1.00, 0.00, -0.00, -1.00, 412.0, 6.4)"> </text><text xml:space="preserve" font-family="Impact,Impact" font-weight="bold" font-size="277.2" fill="#FEFFFF" transform="matrix(1.00, 0.00, -0.00, -1.00, 460.8, 6.4)">C</text><text xml:space="preserve" font-family="Impact,Impact" font-weight="bold" font-size="277.2" fill="#FEFFFF" transform="matrix(1.00, 0.00, -0.00, -1.00, 614.3, 6.4)">O</text><text xml:space="preserve" font-family="Impact,Impact" font-weight="bold" font-size="277.2" fill="#FEFFFF" transform="matrix(1.00, 0.00, -0.00, -1.00, 766.0, 6.4)">M</text><text xml:space="preserve" font-family="Impact,Impact" font-weight="bold" font-size="277.2" fill="#FEFFFF" transform="matrix(1.00, 0.00, -0.00, -1.00, 964.7, 6.4)">E</text></g></svg>