<?xml version="1.0" encoding="UTF-8" standalone="no"?><svg xmlns="http://www.w3.org/2000/svg" xmlns:xlink="http://www.w3.org/1999/xlink" clip-rule="evenodd" stroke-miterlimit="10" viewBox="0 0 1920 1080"><desc>SVG generated by Keynote</desc><defs></defs><g transform="matrix(1.00, 0.00, -0.00, -1.00, 0.0, 1080.0)"><path d="M 0.0 1080.0 L 1920.0 1080.0 L 1920.0 0.0 L 0.0 0.0 Z M 0.0 1080.0 " fill="#000000"></path><text xml:space="preserve" font-family="Impact,Impact" font-weight="bold" font-size="277.2" fill="#FEFFFF" transform="matrix(1.00, 0.00, -0.00, -1.00, 515.1, 783.4)">A</text><text xml:space="preserve" font-family="Impact,Impact" font-weight="bold" font-size="277.2" fill="#FEFFFF" transform="matrix(1.00, 0.00, -0.00, -1.00, 655.8, 783.4)">N</text><text xml:space="preserve" font-family="Impact,Impact" font-weight="bold" font-size="277.2" fill="#FEFFFF" transform="matrix(1.00, 0.00, -0.00, -1.00, 805.9, 783.4)">D</text><text xml:space="preserve" font-family="Impact,Impact" font-weight="bold" font-size="277.2" fill="#FEFFFF" transform="matrix(1.00, 0.00, -0.00, -1.00, 959.0, 783.4)"> </text><text xml:space="preserve" font-family="Impact,Impact" font-weight="bold" font-size="277.2" fill="#FEFFFF" transform="matrix(1.00, 0.00, -0.00, -1.00, 1008.1, 783.4)">T</text><text xml:space="preserve" font-family="Impact,Impact" font-weight="bold" font-size="277.2" fill="#FEFFFF" transform="matrix(1.00, 0.00, -0.00, -1.00, 1135.8, 783.4)">H</text><text xml:space="preserve" font-family="Impact,Impact" font-weight="bold" font-size="277.2" fill="#FEFFFF" transform="matrix(1.00, 0.00, -0.00, -1.00, 1289.7, 783.4)">E</text><text xml:space="preserve" font-family="Impact,Impact" font-weight="bold" font-size="277.2" fill="#FEFFFF" transform="matrix(1.00, 0.00, -0.00, -1.00, 1404.8, 783.4)"> </text><text xml:space="preserve" font-family="Impact,Impact" font-weight="bold" font-size="277.2" fill="#FEFFFF" transform="matrix(1.00, 0.00, -0.00, -1.00, 344.6, 445.4)">B</text><text xml:space="preserve" font-family="Impact,Impact" font-weight="bold" font-size="277.2" fill="#FEFFFF" transform="matrix(1.00, 0.00, -0.00, -1.00, 497.8, 445.4)">E</text><text xml:space="preserve" font-family="Impact,Impact" font-weight="bold" font-size="277.2" fill="#FEFFFF" transform="matrix(1.00, 0.00, -0.00, -1.00, 612.7, 445.4)">S</text><text xml:space="preserve" font-family="Impact,Impact" font-weight="bold" font-size="277.2" fill="#FEFFFF" transform="matrix(1.00, 0.00, -0.00, -1.00, 756.1, 445.4)">T</text><text xml:space="preserve" font-family="Impact,Impact" font-weight="bold" font-size="277.2" fill="#FEFFFF" transform="matrix(1.00, 0.00, -0.00, -1.00, 883.9, 445.4)"> </text><text xml:space="preserve" font-family="Impact,Impact" font-weight="bold" font-size="277.2" fill="#FEFFFF" transform="matrix(1.00, 0.00, -0.00, -1.00, 932.9, 445.4)">I</text><text xml:space="preserve" font-family="Impact,Impact" font-weight="bold" font-size="277.2" fill="#FEFFFF" transform="matrix(1.00, 0.00, -0.00, -1.00, 1012.8, 445.4)">S</text><text xml:space="preserve" font-family="Impact,Impact" font-weight="bold" font-size="277.2" fill="#FEFFFF" transform="matrix(1.00, 0.00, -0.00, -1.00, 1156.2, 445.4)"> </text><text xml:space="preserve" font-family="Impact,Impact" font-weight="bold" font-size="277.2" fill="#FEFFFF" transform="matrix(1.00, 0.00, -0.00, -1.00, 1205.1, 445.4)">Y</text><text xml:space="preserve" font-family="Impact,Impact" font-weight="bold" font-size="277.2" fill="#FEFFFF" transform="matrix(1.00, 0.00, -0.00, -1.00, 1336.3, 445.4)">E</text><text xml:space="preserve" font-family="Impact,Impact" font-weight="bold" font-size="277.2" fill="#FEFFFF" transform="matrix(1.00, 0.00, -0.00, -1.00, 1447.7, 445.4)">T</text><text xml:space="preserve" font-family="Impact,Impact" font-weight="bold" font-size="277.2" fill="#FEFFFF" transform="matrix(1.00, 0.00, -0.00, -1.00, 1575.5, 445.4)"> </text><text xml:space="preserve" font-family="Impact,Impact" font-weight="bold" font-size="277.2" fill="#FEFFFF" transform="matrix(1.00, 0.00, -0.00, -1.00, 486.5, 107.4)">T</text><text xml:space="preserve" font-family="Impact,Impact" font-weight="bold" font-size="277.2" fill="#FEFFFF" transform="matrix(1.00, 0.00, -0.00, -1.00, 614.3, 107.4)">O</text><text xml:space="preserve" font-family="Impact,Impact" font-weight="bold" font-size="277.2" fill="#FEFFFF" transform="matrix(1.00, 0.00, -0.00, -1.00, 766.0, 107.4)"> </text><text xml:space="preserve" font-family="Impact,Impact" font-weight="bold" font-size="277.2" fill="#FEFFFF" transform="matrix(1.00, 0.00, -0.00, -1.00, 814.8, 107.4)">C</text><text xml:space="preserve" font-family="Impact,Impact" font-weight="bold" font-size="277.2" fill="#FEFFFF" transform="matrix(1.00, 0.00, -0.00, -1.00, 968.3, 107.4)">O</text><text xml:space="preserve" font-family="Impact,Impact" font-weight="bold" font-size="277.2" fill="#FEFFFF" transform="matrix(1.00, 0.00, -0.00, -1.00, 1120.0, 107.4)">M</text><text xml:space="preserve" font-family="Impact,Impact" font-weight="bold" font-size="277.2" fill="#FEFFFF" transform="matrix(1.00, 0.00, -0.00, -1.00, 1318.7, 107.4)">E</text></g></svg>