<?xml version="1.0" encoding="UTF-8" standalone="no"?><svg xmlns="http://www.w3.org/2000/svg" xmlns:xlink="http://www.w3.org/1999/xlink" clip-rule="evenodd" stroke-miterlimit="10" viewBox="0 0 1920 1080"><desc>SVG generated by Keynote</desc><defs></defs><g transform="matrix(1.00, 0.00, -0.00, -1.00, 0.0, 1080.0)"><path d="M 0.0 1080.0 L 1920.0 1080.0 L 1920.0 0.0 L 0.0 0.0 Z M 0.0 1080.0 " fill="#000000"></path><text xml:space="preserve" font-family="Impact,Impact" font-weight="bold" font-size="91.0" fill="#FEFFFF" transform="matrix(1.00, 0.00, -0.00, -1.00, 801.1, 972.2)">D</text><text xml:space="preserve" font-family="Impact,Impact" font-weight="bold" font-size="91.0" fill="#FEFFFF" transform="matrix(1.00, 0.00, -0.00, -1.00, 851.3, 972.2)">Y</text><text xml:space="preserve" font-family="Impact,Impact" font-weight="bold" font-size="91.0" fill="#FEFFFF" transform="matrix(1.00, 0.00, -0.00, -1.00, 894.4, 972.2)">N</text><text xml:space="preserve" font-family="Impact,Impact" font-weight="bold" font-size="91.0" fill="#FEFFFF" transform="matrix(1.00, 0.00, -0.00, -1.00, 943.6, 972.2)">A</text><text xml:space="preserve" font-family="Impact,Impact" font-weight="bold" font-size="91.0" fill="#FEFFFF" transform="matrix(1.00, 0.00, -0.00, -1.00, 989.8, 972.2)">M</text><text xml:space="preserve" font-family="Impact,Impact" font-weight="bold" font-size="91.0" fill="#FEFFFF" transform="matrix(1.00, 0.00, -0.00, -1.00, 1055.0, 972.2)">O</text><text xml:space="preserve" font-family="Impact,Impact" font-weight="bold" font-size="91.0" fill="#FEFFFF" transform="matrix(1.00, 0.00, -0.00, -1.00, 1104.8, 972.2)">:</text><text xml:space="preserve" font-family="Impact,Impact" font-weight="bold" font-size="91.0" fill="#FEFFFF" transform="matrix(1.00, 0.00, -0.00, -1.00, 1123.2, 972.2)"> </text><text xml:space="preserve" font-family="Impact,Impact" font-weight="bold" font-size="91.0" fill="#FEFFFF" transform="matrix(1.00, 0.00, -0.00, -1.00, 33.4, 750.2)">N</text><text xml:space="preserve" font-family="Impact,Impact" font-weight="bold" font-size="91.0" fill="#FEFFFF" transform="matrix(1.00, 0.00, -0.00, -1.00, 82.7, 750.2)">O</text><text xml:space="preserve" font-family="Impact,Impact" font-weight="bold" font-size="91.0" fill="#FEFFFF" transform="matrix(1.00, 0.00, -0.00, -1.00, 132.4, 750.2)">T</text><text xml:space="preserve" font-family="Impact,Impact" font-weight="bold" font-size="91.0" fill="#FEFFFF" transform="matrix(1.00, 0.00, -0.00, -1.00, 174.3, 750.2)"> </text><text xml:space="preserve" font-family="Impact,Impact" font-weight="bold" font-size="91.0" fill="#FEFFFF" transform="matrix(1.00, 0.00, -0.00, -1.00, 190.4, 750.2)">M</text><text xml:space="preserve" font-family="Impact,Impact" font-weight="bold" font-size="91.0" fill="#FEFFFF" transform="matrix(1.00, 0.00, -0.00, -1.00, 255.6, 750.2)">U</text><text xml:space="preserve" font-family="Impact,Impact" font-weight="bold" font-size="91.0" fill="#FEFFFF" transform="matrix(1.00, 0.00, -0.00, -1.00, 305.3, 750.2)">C</text><text xml:space="preserve" font-family="Impact,Impact" font-weight="bold" font-size="91.0" fill="#FEFFFF" transform="matrix(1.00, 0.00, -0.00, -1.00, 355.7, 750.2)">H</text><text xml:space="preserve" font-family="Impact,Impact" font-weight="bold" font-size="91.0" fill="#FEFFFF" transform="matrix(1.00, 0.00, -0.00, -1.00, 406.2, 750.2)"> </text><text xml:space="preserve" font-family="Impact,Impact" font-weight="bold" font-size="91.0" fill="#FEFFFF" transform="matrix(1.00, 0.00, -0.00, -1.00, 422.3, 750.2)">G</text><text xml:space="preserve" font-family="Impact,Impact" font-weight="bold" font-size="91.0" fill="#FEFFFF" transform="matrix(1.00, 0.00, -0.00, -1.00, 472.5, 750.2)">O</text><text xml:space="preserve" font-family="Impact,Impact" font-weight="bold" font-size="91.0" fill="#FEFFFF" transform="matrix(1.00, 0.00, -0.00, -1.00, 522.3, 750.2)">O</text><text xml:space="preserve" font-family="Impact,Impact" font-weight="bold" font-size="91.0" fill="#FEFFFF" transform="matrix(1.00, 0.00, -0.00, -1.00, 572.1, 750.2)">D</text><text xml:space="preserve" font-family="Impact,Impact" font-weight="bold" font-size="91.0" fill="#FEFFFF" transform="matrix(1.00, 0.00, -0.00, -1.00, 622.3, 750.2)"> </text><text xml:space="preserve" font-family="Impact,Impact" font-weight="bold" font-size="91.0" fill="#FEFFFF" transform="matrix(1.00, 0.00, -0.00, -1.00, 638.4, 750.2)">F</text><text xml:space="preserve" font-family="Impact,Impact" font-weight="bold" font-size="91.0" fill="#FEFFFF" transform="matrix(1.00, 0.00, -0.00, -1.00, 674.6, 750.2)">O</text><text xml:space="preserve" font-family="Impact,Impact" font-weight="bold" font-size="91.0" fill="#FEFFFF" transform="matrix(1.00, 0.00, -0.00, -1.00, 724.3, 750.2)">R</text><text xml:space="preserve" font-family="Impact,Impact" font-weight="bold" font-size="91.0" fill="#FEFFFF" transform="matrix(1.00, 0.00, -0.00, -1.00, 773.3, 750.2)"> </text><text xml:space="preserve" font-family="Impact,Impact" font-weight="bold" font-size="91.0" fill="#FEFFFF" transform="matrix(1.00, 0.00, -0.00, -1.00, 789.4, 750.2)">T</text><text xml:space="preserve" font-family="Impact,Impact" font-weight="bold" font-size="91.0" fill="#FEFFFF" transform="matrix(1.00, 0.00, -0.00, -1.00, 831.3, 750.2)">H</text><text xml:space="preserve" font-family="Impact,Impact" font-weight="bold" font-size="91.0" fill="#FEFFFF" transform="matrix(1.00, 0.00, -0.00, -1.00, 881.9, 750.2)">I</text><text xml:space="preserve" font-family="Impact,Impact" font-weight="bold" font-size="91.0" fill="#FEFFFF" transform="matrix(1.00, 0.00, -0.00, -1.00, 908.1, 750.2)">N</text><text xml:space="preserve" font-family="Impact,Impact" font-weight="bold" font-size="91.0" fill="#FEFFFF" transform="matrix(1.00, 0.00, -0.00, -1.00, 957.4, 750.2)">G</text><text xml:space="preserve" font-family="Impact,Impact" font-weight="bold" font-size="91.0" fill="#FEFFFF" transform="matrix(1.00, 0.00, -0.00, -1.00, 1007.6, 750.2)">S</text><text xml:space="preserve" font-family="Impact,Impact" font-weight="bold" font-size="91.0" fill="#FEFFFF" transform="matrix(1.00, 0.00, -0.00, -1.00, 1054.7, 750.2)"> </text><text xml:space="preserve" font-family="Impact,Impact" font-weight="bold" font-size="91.0" fill="#FEFFFF" transform="matrix(1.00, 0.00, -0.00, -1.00, 1070.7, 750.2)">O</text><text xml:space="preserve" font-family="Impact,Impact" font-weight="bold" font-size="91.0" fill="#FEFFFF" transform="matrix(1.00, 0.00, -0.00, -1.00, 1120.5, 750.2)">T</text><text xml:space="preserve" font-family="Impact,Impact" font-weight="bold" font-size="91.0" fill="#FEFFFF" transform="matrix(1.00, 0.00, -0.00, -1.00, 1162.4, 750.2)">H</text><text xml:space="preserve" font-family="Impact,Impact" font-weight="bold" font-size="91.0" fill="#FEFFFF" transform="matrix(1.00, 0.00, -0.00, -1.00, 1213.0, 750.2)">E</text><text xml:space="preserve" font-family="Impact,Impact" font-weight="bold" font-size="91.0" fill="#FEFFFF" transform="matrix(1.00, 0.00, -0.00, -1.00, 1250.7, 750.2)">R</text><text xml:space="preserve" font-family="Impact,Impact" font-weight="bold" font-size="91.0" fill="#FEFFFF" transform="matrix(1.00, 0.00, -0.00, -1.00, 1299.7, 750.2)"> </text><text xml:space="preserve" font-family="Impact,Impact" font-weight="bold" font-size="91.0" fill="#FEFFFF" transform="matrix(1.00, 0.00, -0.00, -1.00, 1315.8, 750.2)">T</text><text xml:space="preserve" font-family="Impact,Impact" font-weight="bold" font-size="91.0" fill="#FEFFFF" transform="matrix(1.00, 0.00, -0.00, -1.00, 1357.7, 750.2)">H</text><text xml:space="preserve" font-family="Impact,Impact" font-weight="bold" font-size="91.0" fill="#FEFFFF" transform="matrix(1.00, 0.00, -0.00, -1.00, 1408.3, 750.2)">A</text><text xml:space="preserve" font-family="Impact,Impact" font-weight="bold" font-size="91.0" fill="#FEFFFF" transform="matrix(1.00, 0.00, -0.00, -1.00, 1454.4, 750.2)">N</text><text xml:space="preserve" font-family="Impact,Impact" font-weight="bold" font-size="91.0" fill="#FEFFFF" transform="matrix(1.00, 0.00, -0.00, -1.00, 1503.7, 750.2)"> </text><text xml:space="preserve" font-family="Impact,Impact" font-weight="bold" font-size="91.0" fill="#FEFFFF" transform="matrix(1.00, 0.00, -0.00, -1.00, 1519.7, 750.2)">K</text><text xml:space="preserve" font-family="Impact,Impact" font-weight="bold" font-size="91.0" fill="#FEFFFF" transform="matrix(1.00, 0.00, -0.00, -1.00, 1568.5, 750.2)">E</text><text xml:space="preserve" font-family="Impact,Impact" font-weight="bold" font-size="91.0" fill="#FEFFFF" transform="matrix(1.00, 0.00, -0.00, -1.00, 1606.3, 750.2)">Y</text><text xml:space="preserve" font-family="Impact,Impact" font-weight="bold" font-size="91.0" fill="#FEFFFF" transform="matrix(1.00, 0.00, -0.00, -1.00, 1649.4, 750.2)">-</text><text xml:space="preserve" font-family="Impact,Impact" font-weight="bold" font-size="91.0" fill="#FEFFFF" transform="matrix(1.00, 0.00, -0.00, -1.00, 1676.2, 750.2)">V</text><text xml:space="preserve" font-family="Impact,Impact" font-weight="bold" font-size="91.0" fill="#FEFFFF" transform="matrix(1.00, 0.00, -0.00, -1.00, 1722.7, 750.2)">A</text><text xml:space="preserve" font-family="Impact,Impact" font-weight="bold" font-size="91.0" fill="#FEFFFF" transform="matrix(1.00, 0.00, -0.00, -1.00, 1768.9, 750.2)">L</text><text xml:space="preserve" font-family="Impact,Impact" font-weight="bold" font-size="91.0" fill="#FEFFFF" transform="matrix(1.00, 0.00, -0.00, -1.00, 1803.6, 750.2)">U</text><text xml:space="preserve" font-family="Impact,Impact" font-weight="bold" font-size="91.0" fill="#FEFFFF" transform="matrix(1.00, 0.00, -0.00, -1.00, 1853.3, 750.2)">E</text><text xml:space="preserve" font-family="Impact,Impact" font-weight="bold" font-size="91.0" fill="#FEFFFF" transform="matrix(1.00, 0.00, -0.00, -1.00, 1891.1, 750.2)"> </text><text xml:space="preserve" font-family="Impact,Impact" font-weight="bold" font-size="91.0" fill="#FEFFFF" transform="matrix(1.00, 0.00, -0.00, -1.00, 856.6, 639.2)">S</text><text xml:space="preserve" font-family="Impact,Impact" font-weight="bold" font-size="91.0" fill="#FEFFFF" transform="matrix(1.00, 0.00, -0.00, -1.00, 903.6, 639.2)">T</text><text xml:space="preserve" font-family="Impact,Impact" font-weight="bold" font-size="91.0" fill="#FEFFFF" transform="matrix(1.00, 0.00, -0.00, -1.00, 945.6, 639.2)">U</text><text xml:space="preserve" font-family="Impact,Impact" font-weight="bold" font-size="91.0" fill="#FEFFFF" transform="matrix(1.00, 0.00, -0.00, -1.00, 995.4, 639.2)">F</text><text xml:space="preserve" font-family="Impact,Impact" font-weight="bold" font-size="91.0" fill="#FEFFFF" transform="matrix(1.00, 0.00, -0.00, -1.00, 1031.6, 639.2)">F</text><text xml:space="preserve" font-family="Impact,Impact" font-weight="bold" font-size="91.0" fill="#FEFFFF" transform="matrix(1.00, 0.00, -0.00, -1.00, 1067.8, 639.2)"> </text><text xml:space="preserve" font-family="Impact,Impact" font-weight="bold" font-size="91.0" fill="#FEFFFF" transform="matrix(1.00, 0.00, -0.00, -1.00, 55.4, 417.2)">T</text><text xml:space="preserve" font-family="Impact,Impact" font-weight="bold" font-size="91.0" fill="#FEFFFF" transform="matrix(1.00, 0.00, -0.00, -1.00, 97.3, 417.2)">H</text><text xml:space="preserve" font-family="Impact,Impact" font-weight="bold" font-size="91.0" fill="#FEFFFF" transform="matrix(1.00, 0.00, -0.00, -1.00, 147.9, 417.2)">I</text><text xml:space="preserve" font-family="Impact,Impact" font-weight="bold" font-size="91.0" fill="#FEFFFF" transform="matrix(1.00, 0.00, -0.00, -1.00, 174.1, 417.2)">S</text><text xml:space="preserve" font-family="Impact,Impact" font-weight="bold" font-size="91.0" fill="#FEFFFF" transform="matrix(1.00, 0.00, -0.00, -1.00, 221.2, 417.2)">,</text><text xml:space="preserve" font-family="Impact,Impact" font-weight="bold" font-size="91.0" fill="#FEFFFF" transform="matrix(1.00, 0.00, -0.00, -1.00, 236.4, 417.2)"> </text><text xml:space="preserve" font-family="Impact,Impact" font-weight="bold" font-size="91.0" fill="#FEFFFF" transform="matrix(1.00, 0.00, -0.00, -1.00, 252.5, 417.2)">C</text><text xml:space="preserve" font-family="Impact,Impact" font-weight="bold" font-size="91.0" fill="#FEFFFF" transform="matrix(1.00, 0.00, -0.00, -1.00, 302.9, 417.2)">O</text><text xml:space="preserve" font-family="Impact,Impact" font-weight="bold" font-size="91.0" fill="#FEFFFF" transform="matrix(1.00, 0.00, -0.00, -1.00, 352.6, 417.2)">U</text><text xml:space="preserve" font-family="Impact,Impact" font-weight="bold" font-size="91.0" fill="#FEFFFF" transform="matrix(1.00, 0.00, -0.00, -1.00, 402.4, 417.2)">P</text><text xml:space="preserve" font-family="Impact,Impact" font-weight="bold" font-size="91.0" fill="#FEFFFF" transform="matrix(1.00, 0.00, -0.00, -1.00, 448.1, 417.2)">L</text><text xml:space="preserve" font-family="Impact,Impact" font-weight="bold" font-size="91.0" fill="#FEFFFF" transform="matrix(1.00, 0.00, -0.00, -1.00, 482.7, 417.2)">E</text><text xml:space="preserve" font-family="Impact,Impact" font-weight="bold" font-size="91.0" fill="#FEFFFF" transform="matrix(1.00, 0.00, -0.00, -1.00, 520.5, 417.2)">D</text><text xml:space="preserve" font-family="Impact,Impact" font-weight="bold" font-size="91.0" fill="#FEFFFF" transform="matrix(1.00, 0.00, -0.00, -1.00, 570.8, 417.2)"> </text><text xml:space="preserve" font-family="Impact,Impact" font-weight="bold" font-size="91.0" fill="#FEFFFF" transform="matrix(1.00, 0.00, -0.00, -1.00, 586.8, 417.2)">W</text><text xml:space="preserve" font-family="Impact,Impact" font-weight="bold" font-size="91.0" fill="#FEFFFF" transform="matrix(1.00, 0.00, -0.00, -1.00, 661.0, 417.2)">I</text><text xml:space="preserve" font-family="Impact,Impact" font-weight="bold" font-size="91.0" fill="#FEFFFF" transform="matrix(1.00, 0.00, -0.00, -1.00, 687.2, 417.2)">T</text><text xml:space="preserve" font-family="Impact,Impact" font-weight="bold" font-size="91.0" fill="#FEFFFF" transform="matrix(1.00, 0.00, -0.00, -1.00, 729.1, 417.2)">H</text><text xml:space="preserve" font-family="Impact,Impact" font-weight="bold" font-size="91.0" fill="#FEFFFF" transform="matrix(1.00, 0.00, -0.00, -1.00, 779.7, 417.2)"> </text><text xml:space="preserve" font-family="Impact,Impact" font-weight="bold" font-size="91.0" fill="#FEFFFF" transform="matrix(1.00, 0.00, -0.00, -1.00, 795.7, 417.2)">T</text><text xml:space="preserve" font-family="Impact,Impact" font-weight="bold" font-size="91.0" fill="#FEFFFF" transform="matrix(1.00, 0.00, -0.00, -1.00, 837.7, 417.2)">H</text><text xml:space="preserve" font-family="Impact,Impact" font-weight="bold" font-size="91.0" fill="#FEFFFF" transform="matrix(1.00, 0.00, -0.00, -1.00, 888.2, 417.2)">E</text><text xml:space="preserve" font-family="Impact,Impact" font-weight="bold" font-size="91.0" fill="#FEFFFF" transform="matrix(1.00, 0.00, -0.00, -1.00, 926.0, 417.2)"> </text><text xml:space="preserve" font-family="Impact,Impact" font-weight="bold" font-size="91.0" fill="#FEFFFF" transform="matrix(1.00, 0.00, -0.00, -1.00, 942.1, 417.2)">F</text><text xml:space="preserve" font-family="Impact,Impact" font-weight="bold" font-size="91.0" fill="#FEFFFF" transform="matrix(1.00, 0.00, -0.00, -1.00, 976.4, 417.2)">A</text><text xml:space="preserve" font-family="Impact,Impact" font-weight="bold" font-size="91.0" fill="#FEFFFF" transform="matrix(1.00, 0.00, -0.00, -1.00, 1022.6, 417.2)">C</text><text xml:space="preserve" font-family="Impact,Impact" font-weight="bold" font-size="91.0" fill="#FEFFFF" transform="matrix(1.00, 0.00, -0.00, -1.00, 1073.0, 417.2)">T</text><text xml:space="preserve" font-family="Impact,Impact" font-weight="bold" font-size="91.0" fill="#FEFFFF" transform="matrix(1.00, 0.00, -0.00, -1.00, 1114.9, 417.2)"> </text><text xml:space="preserve" font-family="Impact,Impact" font-weight="bold" font-size="91.0" fill="#FEFFFF" transform="matrix(1.00, 0.00, -0.00, -1.00, 1131.0, 417.2)">T</text><text xml:space="preserve" font-family="Impact,Impact" font-weight="bold" font-size="91.0" fill="#FEFFFF" transform="matrix(1.00, 0.00, -0.00, -1.00, 1172.9, 417.2)">H</text><text xml:space="preserve" font-family="Impact,Impact" font-weight="bold" font-size="91.0" fill="#FEFFFF" transform="matrix(1.00, 0.00, -0.00, -1.00, 1223.5, 417.2)">A</text><text xml:space="preserve" font-family="Impact,Impact" font-weight="bold" font-size="91.0" fill="#FEFFFF" transform="matrix(1.00, 0.00, -0.00, -1.00, 1264.6, 417.2)">T</text><text xml:space="preserve" font-family="Impact,Impact" font-weight="bold" font-size="91.0" fill="#FEFFFF" transform="matrix(1.00, 0.00, -0.00, -1.00, 1306.6, 417.2)"> </text><text xml:space="preserve" font-family="Impact,Impact" font-weight="bold" font-size="91.0" fill="#FEFFFF" transform="matrix(1.00, 0.00, -0.00, -1.00, 1322.6, 417.2)">T</text><text xml:space="preserve" font-family="Impact,Impact" font-weight="bold" font-size="91.0" fill="#FEFFFF" transform="matrix(1.00, 0.00, -0.00, -1.00, 1364.6, 417.2)">H</text><text xml:space="preserve" font-family="Impact,Impact" font-weight="bold" font-size="91.0" fill="#FEFFFF" transform="matrix(1.00, 0.00, -0.00, -1.00, 1415.1, 417.2)">E</text><text xml:space="preserve" font-family="Impact,Impact" font-weight="bold" font-size="91.0" fill="#FEFFFF" transform="matrix(1.00, 0.00, -0.00, -1.00, 1452.9, 417.2)"> </text><text xml:space="preserve" font-family="Impact,Impact" font-weight="bold" font-size="91.0" fill="#FEFFFF" transform="matrix(1.00, 0.00, -0.00, -1.00, 1469.0, 417.2)">C</text><text xml:space="preserve" font-family="Impact,Impact" font-weight="bold" font-size="91.0" fill="#FEFFFF" transform="matrix(1.00, 0.00, -0.00, -1.00, 1519.3, 417.2)">L</text><text xml:space="preserve" font-family="Impact,Impact" font-weight="bold" font-size="91.0" fill="#FEFFFF" transform="matrix(1.00, 0.00, -0.00, -1.00, 1554.0, 417.2)">I</text><text xml:space="preserve" font-family="Impact,Impact" font-weight="bold" font-size="91.0" fill="#FEFFFF" transform="matrix(1.00, 0.00, -0.00, -1.00, 1580.2, 417.2)">E</text><text xml:space="preserve" font-family="Impact,Impact" font-weight="bold" font-size="91.0" fill="#FEFFFF" transform="matrix(1.00, 0.00, -0.00, -1.00, 1618.0, 417.2)">N</text><text xml:space="preserve" font-family="Impact,Impact" font-weight="bold" font-size="91.0" fill="#FEFFFF" transform="matrix(1.00, 0.00, -0.00, -1.00, 1667.2, 417.2)">T</text><text xml:space="preserve" font-family="Impact,Impact" font-weight="bold" font-size="91.0" fill="#FEFFFF" transform="matrix(1.00, 0.00, -0.00, -1.00, 1709.1, 417.2)"> </text><text xml:space="preserve" font-family="Impact,Impact" font-weight="bold" font-size="91.0" fill="#FEFFFF" transform="matrix(1.00, 0.00, -0.00, -1.00, 1725.2, 417.2)">H</text><text xml:space="preserve" font-family="Impact,Impact" font-weight="bold" font-size="91.0" fill="#FEFFFF" transform="matrix(1.00, 0.00, -0.00, -1.00, 1775.7, 417.2)">A</text><text xml:space="preserve" font-family="Impact,Impact" font-weight="bold" font-size="91.0" fill="#FEFFFF" transform="matrix(1.00, 0.00, -0.00, -1.00, 1821.9, 417.2)">S</text><text xml:space="preserve" font-family="Impact,Impact" font-weight="bold" font-size="91.0" fill="#FEFFFF" transform="matrix(1.00, 0.00, -0.00, -1.00, 1869.0, 417.2)"> </text><text xml:space="preserve" font-family="Impact,Impact" font-weight="bold" font-size="91.0" fill="#FEFFFF" transform="matrix(1.00, 0.00, -0.00, -1.00, 204.8, 306.2)">T</text><text xml:space="preserve" font-family="Impact,Impact" font-weight="bold" font-size="91.0" fill="#FEFFFF" transform="matrix(1.00, 0.00, -0.00, -1.00, 246.7, 306.2)">O</text><text xml:space="preserve" font-family="Impact,Impact" font-weight="bold" font-size="91.0" fill="#FEFFFF" transform="matrix(1.00, 0.00, -0.00, -1.00, 296.5, 306.2)"> </text><text xml:space="preserve" font-family="Impact,Impact" font-weight="bold" font-size="91.0" fill="#FEFFFF" transform="matrix(1.00, 0.00, -0.00, -1.00, 312.5, 306.2)">S</text><text xml:space="preserve" font-family="Impact,Impact" font-weight="bold" font-size="91.0" fill="#FEFFFF" transform="matrix(1.00, 0.00, -0.00, -1.00, 359.6, 306.2)">O</text><text xml:space="preserve" font-family="Impact,Impact" font-weight="bold" font-size="91.0" fill="#FEFFFF" transform="matrix(1.00, 0.00, -0.00, -1.00, 409.4, 306.2)">L</text><text xml:space="preserve" font-family="Impact,Impact" font-weight="bold" font-size="91.0" fill="#FEFFFF" transform="matrix(1.00, 0.00, -0.00, -1.00, 440.2, 306.2)">V</text><text xml:space="preserve" font-family="Impact,Impact" font-weight="bold" font-size="91.0" fill="#FEFFFF" transform="matrix(1.00, 0.00, -0.00, -1.00, 487.9, 306.2)">E</text><text xml:space="preserve" font-family="Impact,Impact" font-weight="bold" font-size="91.0" fill="#FEFFFF" transform="matrix(1.00, 0.00, -0.00, -1.00, 525.6, 306.2)"> </text><text xml:space="preserve" font-family="Impact,Impact" font-weight="bold" font-size="91.0" fill="#FEFFFF" transform="matrix(1.00, 0.00, -0.00, -1.00, 541.7, 306.2)">C</text><text xml:space="preserve" font-family="Impact,Impact" font-weight="bold" font-size="91.0" fill="#FEFFFF" transform="matrix(1.00, 0.00, -0.00, -1.00, 592.1, 306.2)">O</text><text xml:space="preserve" font-family="Impact,Impact" font-weight="bold" font-size="91.0" fill="#FEFFFF" transform="matrix(1.00, 0.00, -0.00, -1.00, 641.8, 306.2)">N</text><text xml:space="preserve" font-family="Impact,Impact" font-weight="bold" font-size="91.0" fill="#FEFFFF" transform="matrix(1.00, 0.00, -0.00, -1.00, 691.0, 306.2)">F</text><text xml:space="preserve" font-family="Impact,Impact" font-weight="bold" font-size="91.0" fill="#FEFFFF" transform="matrix(1.00, 0.00, -0.00, -1.00, 727.2, 306.2)">L</text><text xml:space="preserve" font-family="Impact,Impact" font-weight="bold" font-size="91.0" fill="#FEFFFF" transform="matrix(1.00, 0.00, -0.00, -1.00, 761.9, 306.2)">I</text><text xml:space="preserve" font-family="Impact,Impact" font-weight="bold" font-size="91.0" fill="#FEFFFF" transform="matrix(1.00, 0.00, -0.00, -1.00, 788.1, 306.2)">C</text><text xml:space="preserve" font-family="Impact,Impact" font-weight="bold" font-size="91.0" fill="#FEFFFF" transform="matrix(1.00, 0.00, -0.00, -1.00, 838.5, 306.2)">T</text><text xml:space="preserve" font-family="Impact,Impact" font-weight="bold" font-size="91.0" fill="#FEFFFF" transform="matrix(1.00, 0.00, -0.00, -1.00, 880.4, 306.2)">S</text><text xml:space="preserve" font-family="Impact,Impact" font-weight="bold" font-size="91.0" fill="#FEFFFF" transform="matrix(1.00, 0.00, -0.00, -1.00, 927.5, 306.2)"> </text><text xml:space="preserve" font-family="Impact,Impact" font-weight="bold" font-size="91.0" fill="#FEFFFF" transform="matrix(1.00, 0.00, -0.00, -1.00, 943.6, 306.2)">A</text><text xml:space="preserve" font-family="Impact,Impact" font-weight="bold" font-size="91.0" fill="#FEFFFF" transform="matrix(1.00, 0.00, -0.00, -1.00, 989.7, 306.2)">N</text><text xml:space="preserve" font-family="Impact,Impact" font-weight="bold" font-size="91.0" fill="#FEFFFF" transform="matrix(1.00, 0.00, -0.00, -1.00, 1039.0, 306.2)">D</text><text xml:space="preserve" font-family="Impact,Impact" font-weight="bold" font-size="91.0" fill="#FEFFFF" transform="matrix(1.00, 0.00, -0.00, -1.00, 1089.2, 306.2)"> </text><text xml:space="preserve" font-family="Impact,Impact" font-weight="bold" font-size="91.0" fill="#FEFFFF" transform="matrix(1.00, 0.00, -0.00, -1.00, 1105.3, 306.2)">B</text><text xml:space="preserve" font-family="Impact,Impact" font-weight="bold" font-size="91.0" fill="#FEFFFF" transform="matrix(1.00, 0.00, -0.00, -1.00, 1155.6, 306.2)">E</text><text xml:space="preserve" font-family="Impact,Impact" font-weight="bold" font-size="91.0" fill="#FEFFFF" transform="matrix(1.00, 0.00, -0.00, -1.00, 1193.4, 306.2)"> </text><text xml:space="preserve" font-family="Impact,Impact" font-weight="bold" font-size="91.0" fill="#FEFFFF" transform="matrix(1.00, 0.00, -0.00, -1.00, 1209.4, 306.2)">P</text><text xml:space="preserve" font-family="Impact,Impact" font-weight="bold" font-size="91.0" fill="#FEFFFF" transform="matrix(1.00, 0.00, -0.00, -1.00, 1255.1, 306.2)">R</text><text xml:space="preserve" font-family="Impact,Impact" font-weight="bold" font-size="91.0" fill="#FEFFFF" transform="matrix(1.00, 0.00, -0.00, -1.00, 1304.1, 306.2)">E</text><text xml:space="preserve" font-family="Impact,Impact" font-weight="bold" font-size="91.0" fill="#FEFFFF" transform="matrix(1.00, 0.00, -0.00, -1.00, 1341.8, 306.2)">P</text><text xml:space="preserve" font-family="Impact,Impact" font-weight="bold" font-size="91.0" fill="#FEFFFF" transform="matrix(1.00, 0.00, -0.00, -1.00, 1385.3, 306.2)">A</text><text xml:space="preserve" font-family="Impact,Impact" font-weight="bold" font-size="91.0" fill="#FEFFFF" transform="matrix(1.00, 0.00, -0.00, -1.00, 1431.4, 306.2)">R</text><text xml:space="preserve" font-family="Impact,Impact" font-weight="bold" font-size="91.0" fill="#FEFFFF" transform="matrix(1.00, 0.00, -0.00, -1.00, 1480.4, 306.2)">E</text><text xml:space="preserve" font-family="Impact,Impact" font-weight="bold" font-size="91.0" fill="#FEFFFF" transform="matrix(1.00, 0.00, -0.00, -1.00, 1518.2, 306.2)">D</text><text xml:space="preserve" font-family="Impact,Impact" font-weight="bold" font-size="91.0" fill="#FEFFFF" transform="matrix(1.00, 0.00, -0.00, -1.00, 1568.5, 306.2)"> </text><text xml:space="preserve" font-family="Impact,Impact" font-weight="bold" font-size="91.0" fill="#FEFFFF" transform="matrix(1.00, 0.00, -0.00, -1.00, 1584.5, 306.2)">F</text><text xml:space="preserve" font-family="Impact,Impact" font-weight="bold" font-size="91.0" fill="#FEFFFF" transform="matrix(1.00, 0.00, -0.00, -1.00, 1620.7, 306.2)">O</text><text xml:space="preserve" font-family="Impact,Impact" font-weight="bold" font-size="91.0" fill="#FEFFFF" transform="matrix(1.00, 0.00, -0.00, -1.00, 1670.5, 306.2)">R</text><text xml:space="preserve" font-family="Impact,Impact" font-weight="bold" font-size="91.0" fill="#FEFFFF" transform="matrix(1.00, 0.00, -0.00, -1.00, 1719.5, 306.2)"> </text><text xml:space="preserve" font-family="Impact,Impact" font-weight="bold" font-size="91.0" fill="#FEFFFF" transform="matrix(1.00, 0.00, -0.00, -1.00, 38.4, 195.2)">I</text><text xml:space="preserve" font-family="Impact,Impact" font-weight="bold" font-size="91.0" fill="#FEFFFF" transform="matrix(1.00, 0.00, -0.00, -1.00, 64.6, 195.2)">N</text><text xml:space="preserve" font-family="Impact,Impact" font-weight="bold" font-size="91.0" fill="#FEFFFF" transform="matrix(1.00, 0.00, -0.00, -1.00, 113.9, 195.2)">C</text><text xml:space="preserve" font-family="Impact,Impact" font-weight="bold" font-size="91.0" fill="#FEFFFF" transform="matrix(1.00, 0.00, -0.00, -1.00, 164.2, 195.2)">O</text><text xml:space="preserve" font-family="Impact,Impact" font-weight="bold" font-size="91.0" fill="#FEFFFF" transform="matrix(1.00, 0.00, -0.00, -1.00, 214.0, 195.2)">N</text><text xml:space="preserve" font-family="Impact,Impact" font-weight="bold" font-size="91.0" fill="#FEFFFF" transform="matrix(1.00, 0.00, -0.00, -1.00, 263.2, 195.2)">S</text><text xml:space="preserve" font-family="Impact,Impact" font-weight="bold" font-size="91.0" fill="#FEFFFF" transform="matrix(1.00, 0.00, -0.00, -1.00, 310.3, 195.2)">I</text><text xml:space="preserve" font-family="Impact,Impact" font-weight="bold" font-size="91.0" fill="#FEFFFF" transform="matrix(1.00, 0.00, -0.00, -1.00, 336.5, 195.2)">S</text><text xml:space="preserve" font-family="Impact,Impact" font-weight="bold" font-size="91.0" fill="#FEFFFF" transform="matrix(1.00, 0.00, -0.00, -1.00, 383.6, 195.2)">T</text><text xml:space="preserve" font-family="Impact,Impact" font-weight="bold" font-size="91.0" fill="#FEFFFF" transform="matrix(1.00, 0.00, -0.00, -1.00, 425.5, 195.2)">E</text><text xml:space="preserve" font-family="Impact,Impact" font-weight="bold" font-size="91.0" fill="#FEFFFF" transform="matrix(1.00, 0.00, -0.00, -1.00, 463.3, 195.2)">N</text><text xml:space="preserve" font-family="Impact,Impact" font-weight="bold" font-size="91.0" fill="#FEFFFF" transform="matrix(1.00, 0.00, -0.00, -1.00, 512.5, 195.2)">T</text><text xml:space="preserve" font-family="Impact,Impact" font-weight="bold" font-size="91.0" fill="#FEFFFF" transform="matrix(1.00, 0.00, -0.00, -1.00, 554.4, 195.2)"> </text><text xml:space="preserve" font-family="Impact,Impact" font-weight="bold" font-size="91.0" fill="#FEFFFF" transform="matrix(1.00, 0.00, -0.00, -1.00, 570.5, 195.2)">R</text><text xml:space="preserve" font-family="Impact,Impact" font-weight="bold" font-size="91.0" fill="#FEFFFF" transform="matrix(1.00, 0.00, -0.00, -1.00, 619.5, 195.2)">E</text><text xml:space="preserve" font-family="Impact,Impact" font-weight="bold" font-size="91.0" fill="#FEFFFF" transform="matrix(1.00, 0.00, -0.00, -1.00, 657.3, 195.2)">A</text><text xml:space="preserve" font-family="Impact,Impact" font-weight="bold" font-size="91.0" fill="#FEFFFF" transform="matrix(1.00, 0.00, -0.00, -1.00, 703.5, 195.2)">D</text><text xml:space="preserve" font-family="Impact,Impact" font-weight="bold" font-size="91.0" fill="#FEFFFF" transform="matrix(1.00, 0.00, -0.00, -1.00, 753.7, 195.2)">S</text><text xml:space="preserve" font-family="Impact,Impact" font-weight="bold" font-size="91.0" fill="#FEFFFF" transform="matrix(1.00, 0.00, -0.00, -1.00, 800.8, 195.2)">,</text><text xml:space="preserve" font-family="Impact,Impact" font-weight="bold" font-size="91.0" fill="#FEFFFF" transform="matrix(1.00, 0.00, -0.00, -1.00, 816.1, 195.2)"> </text><text xml:space="preserve" font-family="Impact,Impact" font-weight="bold" font-size="91.0" fill="#FEFFFF" transform="matrix(1.00, 0.00, -0.00, -1.00, 832.1, 195.2)">M</text><text xml:space="preserve" font-family="Impact,Impact" font-weight="bold" font-size="91.0" fill="#FEFFFF" transform="matrix(1.00, 0.00, -0.00, -1.00, 897.3, 195.2)">A</text><text xml:space="preserve" font-family="Impact,Impact" font-weight="bold" font-size="91.0" fill="#FEFFFF" transform="matrix(1.00, 0.00, -0.00, -1.00, 943.5, 195.2)">K</text><text xml:space="preserve" font-family="Impact,Impact" font-weight="bold" font-size="91.0" fill="#FEFFFF" transform="matrix(1.00, 0.00, -0.00, -1.00, 992.3, 195.2)">E</text><text xml:space="preserve" font-family="Impact,Impact" font-weight="bold" font-size="91.0" fill="#FEFFFF" transform="matrix(1.00, 0.00, -0.00, -1.00, 1030.1, 195.2)">S</text><text xml:space="preserve" font-family="Impact,Impact" font-weight="bold" font-size="91.0" fill="#FEFFFF" transform="matrix(1.00, 0.00, -0.00, -1.00, 1077.2, 195.2)"> </text><text xml:space="preserve" font-family="Impact,Impact" font-weight="bold" font-size="91.0" fill="#FEFFFF" transform="matrix(1.00, 0.00, -0.00, -1.00, 1093.2, 195.2)">I</text><text xml:space="preserve" font-family="Impact,Impact" font-weight="bold" font-size="91.0" fill="#FEFFFF" transform="matrix(1.00, 0.00, -0.00, -1.00, 1119.5, 195.2)">M</text><text xml:space="preserve" font-family="Impact,Impact" font-weight="bold" font-size="91.0" fill="#FEFFFF" transform="matrix(1.00, 0.00, -0.00, -1.00, 1184.7, 195.2)">P</text><text xml:space="preserve" font-family="Impact,Impact" font-weight="bold" font-size="91.0" fill="#FEFFFF" transform="matrix(1.00, 0.00, -0.00, -1.00, 1230.4, 195.2)">L</text><text xml:space="preserve" font-family="Impact,Impact" font-weight="bold" font-size="91.0" fill="#FEFFFF" transform="matrix(1.00, 0.00, -0.00, -1.00, 1265.0, 195.2)">E</text><text xml:space="preserve" font-family="Impact,Impact" font-weight="bold" font-size="91.0" fill="#FEFFFF" transform="matrix(1.00, 0.00, -0.00, -1.00, 1302.8, 195.2)">M</text><text xml:space="preserve" font-family="Impact,Impact" font-weight="bold" font-size="91.0" fill="#FEFFFF" transform="matrix(1.00, 0.00, -0.00, -1.00, 1368.0, 195.2)">E</text><text xml:space="preserve" font-family="Impact,Impact" font-weight="bold" font-size="91.0" fill="#FEFFFF" transform="matrix(1.00, 0.00, -0.00, -1.00, 1405.7, 195.2)">N</text><text xml:space="preserve" font-family="Impact,Impact" font-weight="bold" font-size="91.0" fill="#FEFFFF" transform="matrix(1.00, 0.00, -0.00, -1.00, 1455.0, 195.2)">T</text><text xml:space="preserve" font-family="Impact,Impact" font-weight="bold" font-size="91.0" fill="#FEFFFF" transform="matrix(1.00, 0.00, -0.00, -1.00, 1496.9, 195.2)">I</text><text xml:space="preserve" font-family="Impact,Impact" font-weight="bold" font-size="91.0" fill="#FEFFFF" transform="matrix(1.00, 0.00, -0.00, -1.00, 1523.1, 195.2)">N</text><text xml:space="preserve" font-family="Impact,Impact" font-weight="bold" font-size="91.0" fill="#FEFFFF" transform="matrix(1.00, 0.00, -0.00, -1.00, 1572.4, 195.2)">G</text><text xml:space="preserve" font-family="Impact,Impact" font-weight="bold" font-size="91.0" fill="#FEFFFF" transform="matrix(1.00, 0.00, -0.00, -1.00, 1622.6, 195.2)"> </text><text xml:space="preserve" font-family="Impact,Impact" font-weight="bold" font-size="91.0" fill="#FEFFFF" transform="matrix(1.00, 0.00, -0.00, -1.00, 1638.6, 195.2)">A</text><text xml:space="preserve" font-family="Impact,Impact" font-weight="bold" font-size="91.0" fill="#FEFFFF" transform="matrix(1.00, 0.00, -0.00, -1.00, 1684.8, 195.2)">P</text><text xml:space="preserve" font-family="Impact,Impact" font-weight="bold" font-size="91.0" fill="#FEFFFF" transform="matrix(1.00, 0.00, -0.00, -1.00, 1730.5, 195.2)">P</text><text xml:space="preserve" font-family="Impact,Impact" font-weight="bold" font-size="91.0" fill="#FEFFFF" transform="matrix(1.00, 0.00, -0.00, -1.00, 1776.2, 195.2)">S</text><text xml:space="preserve" font-family="Impact,Impact" font-weight="bold" font-size="91.0" fill="#FEFFFF" transform="matrix(1.00, 0.00, -0.00, -1.00, 1823.2, 195.2)"> </text><text xml:space="preserve" font-family="Impact,Impact" font-weight="bold" font-size="91.0" fill="#FEFFFF" transform="matrix(1.00, 0.00, -0.00, -1.00, 1839.3, 195.2)">A</text><text xml:space="preserve" font-family="Impact,Impact" font-weight="bold" font-size="91.0" fill="#FEFFFF" transform="matrix(1.00, 0.00, -0.00, -1.00, 1885.5, 195.2)"> </text><text xml:space="preserve" font-family="Impact,Impact" font-weight="bold" font-size="91.0" fill="#FEFFFF" transform="matrix(1.00, 0.00, -0.00, -1.00, 884.0, 84.2)">P</text><text xml:space="preserve" font-family="Impact,Impact" font-weight="bold" font-size="91.0" fill="#FEFFFF" transform="matrix(1.00, 0.00, -0.00, -1.00, 929.6, 84.2)">I</text><text xml:space="preserve" font-family="Impact,Impact" font-weight="bold" font-size="91.0" fill="#FEFFFF" transform="matrix(1.00, 0.00, -0.00, -1.00, 955.9, 84.2)">T</text><text xml:space="preserve" font-family="Impact,Impact" font-weight="bold" font-size="91.0" fill="#FEFFFF" transform="matrix(1.00, 0.00, -0.00, -1.00, 994.2, 84.2)">A</text></g></svg>