<?xml version="1.0" encoding="UTF-8" standalone="no"?><svg xmlns="http://www.w3.org/2000/svg" xmlns:xlink="http://www.w3.org/1999/xlink" clip-rule="evenodd" stroke-miterlimit="10" viewBox="0 0 1920 1080"><desc>SVG generated by Keynote</desc><defs></defs><g transform="matrix(1.00, 0.00, -0.00, -1.00, 0.0, 1080.0)"><path d="M 0.0 1080.0 L 1920.0 1080.0 L 1920.0 0.0 L 0.0 0.0 Z M 0.0 1080.0 " fill="#000000"></path><text xml:space="preserve" font-family="Impact,Impact" font-weight="bold" font-size="99.0" fill="#FEFFFF" transform="matrix(1.00, 0.00, -0.00, -1.00, 20.6, 965.0)">T</text><text xml:space="preserve" font-family="Impact,Impact" font-weight="bold" font-size="99.0" fill="#FEFFFF" transform="matrix(1.00, 0.00, -0.00, -1.00, 66.3, 965.0)">H</text><text xml:space="preserve" font-family="Impact,Impact" font-weight="bold" font-size="99.0" fill="#FEFFFF" transform="matrix(1.00, 0.00, -0.00, -1.00, 121.2, 965.0)">I</text><text xml:space="preserve" font-family="Impact,Impact" font-weight="bold" font-size="99.0" fill="#FEFFFF" transform="matrix(1.00, 0.00, -0.00, -1.00, 149.7, 965.0)">S</text><text xml:space="preserve" font-family="Impact,Impact" font-weight="bold" font-size="99.0" fill="#FEFFFF" transform="matrix(1.00, 0.00, -0.00, -1.00, 200.9, 965.0)"> </text><text xml:space="preserve" font-family="Impact,Impact" font-weight="bold" font-size="99.0" fill="#FEFFFF" transform="matrix(1.00, 0.00, -0.00, -1.00, 218.3, 965.0)">A</text><text xml:space="preserve" font-family="Impact,Impact" font-weight="bold" font-size="99.0" fill="#FEFFFF" transform="matrix(1.00, 0.00, -0.00, -1.00, 268.6, 965.0)">L</text><text xml:space="preserve" font-family="Impact,Impact" font-weight="bold" font-size="99.0" fill="#FEFFFF" transform="matrix(1.00, 0.00, -0.00, -1.00, 306.3, 965.0)">L</text><text xml:space="preserve" font-family="Impact,Impact" font-weight="bold" font-size="99.0" fill="#FEFFFF" transform="matrix(1.00, 0.00, -0.00, -1.00, 342.5, 965.0)">O</text><text xml:space="preserve" font-family="Impact,Impact" font-weight="bold" font-size="99.0" fill="#FEFFFF" transform="matrix(1.00, 0.00, -0.00, -1.00, 396.7, 965.0)">W</text><text xml:space="preserve" font-family="Impact,Impact" font-weight="bold" font-size="99.0" fill="#FEFFFF" transform="matrix(1.00, 0.00, -0.00, -1.00, 477.4, 965.0)">E</text><text xml:space="preserve" font-family="Impact,Impact" font-weight="bold" font-size="99.0" fill="#FEFFFF" transform="matrix(1.00, 0.00, -0.00, -1.00, 518.5, 965.0)">D</text><text xml:space="preserve" font-family="Impact,Impact" font-weight="bold" font-size="99.0" fill="#FEFFFF" transform="matrix(1.00, 0.00, -0.00, -1.00, 573.2, 965.0)"> </text><text xml:space="preserve" font-family="Impact,Impact" font-weight="bold" font-size="99.0" fill="#FEFFFF" transform="matrix(1.00, 0.00, -0.00, -1.00, 590.7, 965.0)">S</text><text xml:space="preserve" font-family="Impact,Impact" font-weight="bold" font-size="99.0" fill="#FEFFFF" transform="matrix(1.00, 0.00, -0.00, -1.00, 641.9, 965.0)">T</text><text xml:space="preserve" font-family="Impact,Impact" font-weight="bold" font-size="99.0" fill="#FEFFFF" transform="matrix(1.00, 0.00, -0.00, -1.00, 687.5, 965.0)">E</text><text xml:space="preserve" font-family="Impact,Impact" font-weight="bold" font-size="99.0" fill="#FEFFFF" transform="matrix(1.00, 0.00, -0.00, -1.00, 728.6, 965.0)">V</text><text xml:space="preserve" font-family="Impact,Impact" font-weight="bold" font-size="99.0" fill="#FEFFFF" transform="matrix(1.00, 0.00, -0.00, -1.00, 780.5, 965.0)">E</text><text xml:space="preserve" font-family="Impact,Impact" font-weight="bold" font-size="99.0" fill="#FEFFFF" transform="matrix(1.00, 0.00, -0.00, -1.00, 821.7, 965.0)"> </text><text xml:space="preserve" font-family="Impact,Impact" font-weight="bold" font-size="99.0" fill="#FEFFFF" transform="matrix(1.00, 0.00, -0.00, -1.00, 839.1, 965.0)">T</text><text xml:space="preserve" font-family="Impact,Impact" font-weight="bold" font-size="99.0" fill="#FEFFFF" transform="matrix(1.00, 0.00, -0.00, -1.00, 884.7, 965.0)">O</text><text xml:space="preserve" font-family="Impact,Impact" font-weight="bold" font-size="99.0" fill="#FEFFFF" transform="matrix(1.00, 0.00, -0.00, -1.00, 938.9, 965.0)"> </text><text xml:space="preserve" font-family="Impact,Impact" font-weight="bold" font-size="99.0" fill="#FEFFFF" transform="matrix(1.00, 0.00, -0.00, -1.00, 956.3, 965.0)">H</text><text xml:space="preserve" font-family="Impact,Impact" font-weight="bold" font-size="99.0" fill="#FEFFFF" transform="matrix(1.00, 0.00, -0.00, -1.00, 1011.3, 965.0)">A</text><text xml:space="preserve" font-family="Impact,Impact" font-weight="bold" font-size="99.0" fill="#FEFFFF" transform="matrix(1.00, 0.00, -0.00, -1.00, 1059.4, 965.0)">V</text><text xml:space="preserve" font-family="Impact,Impact" font-weight="bold" font-size="99.0" fill="#FEFFFF" transform="matrix(1.00, 0.00, -0.00, -1.00, 1111.3, 965.0)">E</text><text xml:space="preserve" font-family="Impact,Impact" font-weight="bold" font-size="99.0" fill="#FEFFFF" transform="matrix(1.00, 0.00, -0.00, -1.00, 1152.4, 965.0)"> </text><text xml:space="preserve" font-family="Impact,Impact" font-weight="bold" font-size="99.0" fill="#FEFFFF" transform="matrix(1.00, 0.00, -0.00, -1.00, 88.2, 844.0)">M</text><text xml:space="preserve" font-family="Impact,Impact" font-weight="bold" font-size="99.0" fill="#FEFFFF" transform="matrix(1.00, 0.00, -0.00, -1.00, 159.2, 844.0)">A</text><text xml:space="preserve" font-family="Impact,Impact" font-weight="bold" font-size="99.0" fill="#FEFFFF" transform="matrix(1.00, 0.00, -0.00, -1.00, 209.4, 844.0)">N</text><text xml:space="preserve" font-family="Impact,Impact" font-weight="bold" font-size="99.0" fill="#FEFFFF" transform="matrix(1.00, 0.00, -0.00, -1.00, 263.0, 844.0)">Y</text><text xml:space="preserve" font-family="Impact,Impact" font-weight="bold" font-size="99.0" fill="#FEFFFF" transform="matrix(1.00, 0.00, -0.00, -1.00, 309.8, 844.0)"> </text><text xml:space="preserve" font-family="Impact,Impact" font-weight="bold" font-size="99.0" fill="#FEFFFF" transform="matrix(1.00, 0.00, -0.00, -1.00, 327.4, 844.0)">M</text><text xml:space="preserve" font-family="Impact,Impact" font-weight="bold" font-size="99.0" fill="#FEFFFF" transform="matrix(1.00, 0.00, -0.00, -1.00, 398.3, 844.0)">A</text><text xml:space="preserve" font-family="Impact,Impact" font-weight="bold" font-size="99.0" fill="#FEFFFF" transform="matrix(1.00, 0.00, -0.00, -1.00, 448.6, 844.0)">C</text><text xml:space="preserve" font-family="Impact,Impact" font-weight="bold" font-size="99.0" fill="#FEFFFF" transform="matrix(1.00, 0.00, -0.00, -1.00, 503.4, 844.0)">H</text><text xml:space="preserve" font-family="Impact,Impact" font-weight="bold" font-size="99.0" fill="#FEFFFF" transform="matrix(1.00, 0.00, -0.00, -1.00, 558.3, 844.0)">I</text><text xml:space="preserve" font-family="Impact,Impact" font-weight="bold" font-size="99.0" fill="#FEFFFF" transform="matrix(1.00, 0.00, -0.00, -1.00, 586.8, 844.0)">N</text><text xml:space="preserve" font-family="Impact,Impact" font-weight="bold" font-size="99.0" fill="#FEFFFF" transform="matrix(1.00, 0.00, -0.00, -1.00, 640.4, 844.0)">E</text><text xml:space="preserve" font-family="Impact,Impact" font-weight="bold" font-size="99.0" fill="#FEFFFF" transform="matrix(1.00, 0.00, -0.00, -1.00, 681.5, 844.0)">S</text><text xml:space="preserve" font-family="Impact,Impact" font-weight="bold" font-size="99.0" fill="#FEFFFF" transform="matrix(1.00, 0.00, -0.00, -1.00, 732.7, 844.0)"> </text><text xml:space="preserve" font-family="Impact,Impact" font-weight="bold" font-size="99.0" fill="#FEFFFF" transform="matrix(1.00, 0.00, -0.00, -1.00, 750.2, 844.0)">S</text><text xml:space="preserve" font-family="Impact,Impact" font-weight="bold" font-size="99.0" fill="#FEFFFF" transform="matrix(1.00, 0.00, -0.00, -1.00, 801.4, 844.0)">E</text><text xml:space="preserve" font-family="Impact,Impact" font-weight="bold" font-size="99.0" fill="#FEFFFF" transform="matrix(1.00, 0.00, -0.00, -1.00, 842.5, 844.0)">R</text><text xml:space="preserve" font-family="Impact,Impact" font-weight="bold" font-size="99.0" fill="#FEFFFF" transform="matrix(1.00, 0.00, -0.00, -1.00, 895.8, 844.0)">V</text><text xml:space="preserve" font-family="Impact,Impact" font-weight="bold" font-size="99.0" fill="#FEFFFF" transform="matrix(1.00, 0.00, -0.00, -1.00, 947.7, 844.0)">I</text><text xml:space="preserve" font-family="Impact,Impact" font-weight="bold" font-size="99.0" fill="#FEFFFF" transform="matrix(1.00, 0.00, -0.00, -1.00, 976.2, 844.0)">N</text><text xml:space="preserve" font-family="Impact,Impact" font-weight="bold" font-size="99.0" fill="#FEFFFF" transform="matrix(1.00, 0.00, -0.00, -1.00, 1029.8, 844.0)">G</text><text xml:space="preserve" font-family="Impact,Impact" font-weight="bold" font-size="99.0" fill="#FEFFFF" transform="matrix(1.00, 0.00, -0.00, -1.00, 1084.4, 844.0)"> </text><text xml:space="preserve" font-family="Impact,Impact" font-weight="bold" font-size="99.0" fill="#FEFFFF" transform="matrix(1.00, 0.00, -0.00, -1.00, 248.1, 723.0)">T</text><text xml:space="preserve" font-family="Impact,Impact" font-weight="bold" font-size="99.0" fill="#FEFFFF" transform="matrix(1.00, 0.00, -0.00, -1.00, 293.7, 723.0)">H</text><text xml:space="preserve" font-family="Impact,Impact" font-weight="bold" font-size="99.0" fill="#FEFFFF" transform="matrix(1.00, 0.00, -0.00, -1.00, 348.7, 723.0)">E</text><text xml:space="preserve" font-family="Impact,Impact" font-weight="bold" font-size="99.0" fill="#FEFFFF" transform="matrix(1.00, 0.00, -0.00, -1.00, 389.8, 723.0)"> </text><text xml:space="preserve" font-family="Impact,Impact" font-weight="bold" font-size="99.0" fill="#FEFFFF" transform="matrix(1.00, 0.00, -0.00, -1.00, 407.3, 723.0)">A</text><text xml:space="preserve" font-family="Impact,Impact" font-weight="bold" font-size="99.0" fill="#FEFFFF" transform="matrix(1.00, 0.00, -0.00, -1.00, 457.5, 723.0)">P</text><text xml:space="preserve" font-family="Impact,Impact" font-weight="bold" font-size="99.0" fill="#FEFFFF" transform="matrix(1.00, 0.00, -0.00, -1.00, 507.2, 723.0)">P</text><text xml:space="preserve" font-family="Impact,Impact" font-weight="bold" font-size="99.0" fill="#FEFFFF" transform="matrix(1.00, 0.00, -0.00, -1.00, 556.9, 723.0)">L</text><text xml:space="preserve" font-family="Impact,Impact" font-weight="bold" font-size="99.0" fill="#FEFFFF" transform="matrix(1.00, 0.00, -0.00, -1.00, 594.6, 723.0)">I</text><text xml:space="preserve" font-family="Impact,Impact" font-weight="bold" font-size="99.0" fill="#FEFFFF" transform="matrix(1.00, 0.00, -0.00, -1.00, 623.1, 723.0)">C</text><text xml:space="preserve" font-family="Impact,Impact" font-weight="bold" font-size="99.0" fill="#FEFFFF" transform="matrix(1.00, 0.00, -0.00, -1.00, 677.9, 723.0)">A</text><text xml:space="preserve" font-family="Impact,Impact" font-weight="bold" font-size="99.0" fill="#FEFFFF" transform="matrix(1.00, 0.00, -0.00, -1.00, 722.7, 723.0)">T</text><text xml:space="preserve" font-family="Impact,Impact" font-weight="bold" font-size="99.0" fill="#FEFFFF" transform="matrix(1.00, 0.00, -0.00, -1.00, 768.3, 723.0)">I</text><text xml:space="preserve" font-family="Impact,Impact" font-weight="bold" font-size="99.0" fill="#FEFFFF" transform="matrix(1.00, 0.00, -0.00, -1.00, 796.9, 723.0)">O</text><text xml:space="preserve" font-family="Impact,Impact" font-weight="bold" font-size="99.0" fill="#FEFFFF" transform="matrix(1.00, 0.00, -0.00, -1.00, 851.0, 723.0)">N</text><text xml:space="preserve" font-family="Impact,Impact" font-weight="bold" font-size="99.0" fill="#FEFFFF" transform="matrix(1.00, 0.00, -0.00, -1.00, 904.6, 723.0)">:</text><text xml:space="preserve" font-family="Impact,Impact" font-weight="bold" font-size="99.0" fill="#FEFFFF" transform="matrix(1.00, 0.00, -0.00, -1.00, 924.6, 723.0)"> </text><text xml:space="preserve" font-family="Impact,Impact" font-weight="bold" font-size="99.0" fill="#FEFFFF" transform="matrix(1.00, 0.00, -0.00, -1.00, 179.2, 602.0)">I</text><text xml:space="preserve" font-family="Impact,Impact" font-weight="bold" font-size="99.0" fill="#FEFFFF" transform="matrix(1.00, 0.00, -0.00, -1.00, 207.8, 602.0)">N</text><text xml:space="preserve" font-family="Impact,Impact" font-weight="bold" font-size="99.0" fill="#FEFFFF" transform="matrix(1.00, 0.00, -0.00, -1.00, 261.3, 602.0)">D</text><text xml:space="preserve" font-family="Impact,Impact" font-weight="bold" font-size="99.0" fill="#FEFFFF" transform="matrix(1.00, 0.00, -0.00, -1.00, 316.0, 602.0)">I</text><text xml:space="preserve" font-family="Impact,Impact" font-weight="bold" font-size="99.0" fill="#FEFFFF" transform="matrix(1.00, 0.00, -0.00, -1.00, 344.5, 602.0)">V</text><text xml:space="preserve" font-family="Impact,Impact" font-weight="bold" font-size="99.0" fill="#FEFFFF" transform="matrix(1.00, 0.00, -0.00, -1.00, 396.4, 602.0)">I</text><text xml:space="preserve" font-family="Impact,Impact" font-weight="bold" font-size="99.0" fill="#FEFFFF" transform="matrix(1.00, 0.00, -0.00, -1.00, 424.9, 602.0)">D</text><text xml:space="preserve" font-family="Impact,Impact" font-weight="bold" font-size="99.0" fill="#FEFFFF" transform="matrix(1.00, 0.00, -0.00, -1.00, 479.6, 602.0)">U</text><text xml:space="preserve" font-family="Impact,Impact" font-weight="bold" font-size="99.0" fill="#FEFFFF" transform="matrix(1.00, 0.00, -0.00, -1.00, 533.8, 602.0)">A</text><text xml:space="preserve" font-family="Impact,Impact" font-weight="bold" font-size="99.0" fill="#FEFFFF" transform="matrix(1.00, 0.00, -0.00, -1.00, 584.1, 602.0)">L</text><text xml:space="preserve" font-family="Impact,Impact" font-weight="bold" font-size="99.0" fill="#FEFFFF" transform="matrix(1.00, 0.00, -0.00, -1.00, 621.7, 602.0)"> </text><text xml:space="preserve" font-family="Impact,Impact" font-weight="bold" font-size="99.0" fill="#FEFFFF" transform="matrix(1.00, 0.00, -0.00, -1.00, 639.2, 602.0)">M</text><text xml:space="preserve" font-family="Impact,Impact" font-weight="bold" font-size="99.0" fill="#FEFFFF" transform="matrix(1.00, 0.00, -0.00, -1.00, 710.2, 602.0)">A</text><text xml:space="preserve" font-family="Impact,Impact" font-weight="bold" font-size="99.0" fill="#FEFFFF" transform="matrix(1.00, 0.00, -0.00, -1.00, 760.5, 602.0)">C</text><text xml:space="preserve" font-family="Impact,Impact" font-weight="bold" font-size="99.0" fill="#FEFFFF" transform="matrix(1.00, 0.00, -0.00, -1.00, 815.3, 602.0)">H</text><text xml:space="preserve" font-family="Impact,Impact" font-weight="bold" font-size="99.0" fill="#FEFFFF" transform="matrix(1.00, 0.00, -0.00, -1.00, 870.3, 602.0)">I</text><text xml:space="preserve" font-family="Impact,Impact" font-weight="bold" font-size="99.0" fill="#FEFFFF" transform="matrix(1.00, 0.00, -0.00, -1.00, 898.8, 602.0)">N</text><text xml:space="preserve" font-family="Impact,Impact" font-weight="bold" font-size="99.0" fill="#FEFFFF" transform="matrix(1.00, 0.00, -0.00, -1.00, 952.3, 602.0)">E</text><text xml:space="preserve" font-family="Impact,Impact" font-weight="bold" font-size="99.0" fill="#FEFFFF" transform="matrix(1.00, 0.00, -0.00, -1.00, 993.4, 602.0)"> </text><text xml:space="preserve" font-family="Impact,Impact" font-weight="bold" font-size="99.0" fill="#FEFFFF" transform="matrix(1.00, 0.00, -0.00, -1.00, 64.5, 481.0)">D</text><text xml:space="preserve" font-family="Impact,Impact" font-weight="bold" font-size="99.0" fill="#FEFFFF" transform="matrix(1.00, 0.00, -0.00, -1.00, 119.2, 481.0)">O</text><text xml:space="preserve" font-family="Impact,Impact" font-weight="bold" font-size="99.0" fill="#FEFFFF" transform="matrix(1.00, 0.00, -0.00, -1.00, 173.4, 481.0)">W</text><text xml:space="preserve" font-family="Impact,Impact" font-weight="bold" font-size="99.0" fill="#FEFFFF" transform="matrix(1.00, 0.00, -0.00, -1.00, 254.1, 481.0)">N</text><text xml:space="preserve" font-family="Impact,Impact" font-weight="bold" font-size="99.0" fill="#FEFFFF" transform="matrix(1.00, 0.00, -0.00, -1.00, 307.7, 481.0)">T</text><text xml:space="preserve" font-family="Impact,Impact" font-weight="bold" font-size="99.0" fill="#FEFFFF" transform="matrix(1.00, 0.00, -0.00, -1.00, 353.3, 481.0)">I</text><text xml:space="preserve" font-family="Impact,Impact" font-weight="bold" font-size="99.0" fill="#FEFFFF" transform="matrix(1.00, 0.00, -0.00, -1.00, 381.8, 481.0)">M</text><text xml:space="preserve" font-family="Impact,Impact" font-weight="bold" font-size="99.0" fill="#FEFFFF" transform="matrix(1.00, 0.00, -0.00, -1.00, 452.7, 481.0)">E</text><text xml:space="preserve" font-family="Impact,Impact" font-weight="bold" font-size="99.0" fill="#FEFFFF" transform="matrix(1.00, 0.00, -0.00, -1.00, 493.8, 481.0)"> </text><text xml:space="preserve" font-family="Impact,Impact" font-weight="bold" font-size="99.0" fill="#FEFFFF" transform="matrix(1.00, 0.00, -0.00, -1.00, 511.3, 481.0)">D</text><text xml:space="preserve" font-family="Impact,Impact" font-weight="bold" font-size="99.0" fill="#FEFFFF" transform="matrix(1.00, 0.00, -0.00, -1.00, 566.0, 481.0)">I</text><text xml:space="preserve" font-family="Impact,Impact" font-weight="bold" font-size="99.0" fill="#FEFFFF" transform="matrix(1.00, 0.00, -0.00, -1.00, 594.5, 481.0)">D</text><text xml:space="preserve" font-family="Impact,Impact" font-weight="bold" font-size="99.0" fill="#FEFFFF" transform="matrix(1.00, 0.00, -0.00, -1.00, 649.2, 481.0)"> </text><text xml:space="preserve" font-family="Impact,Impact" font-weight="bold" font-size="99.0" fill="#FEFFFF" transform="matrix(1.00, 0.00, -0.00, -1.00, 666.7, 481.0)">N</text><text xml:space="preserve" font-family="Impact,Impact" font-weight="bold" font-size="99.0" fill="#FEFFFF" transform="matrix(1.00, 0.00, -0.00, -1.00, 720.3, 481.0)">O</text><text xml:space="preserve" font-family="Impact,Impact" font-weight="bold" font-size="99.0" fill="#FEFFFF" transform="matrix(1.00, 0.00, -0.00, -1.00, 774.5, 481.0)">T</text><text xml:space="preserve" font-family="Impact,Impact" font-weight="bold" font-size="99.0" fill="#FEFFFF" transform="matrix(1.00, 0.00, -0.00, -1.00, 820.1, 481.0)"> </text><text xml:space="preserve" font-family="Impact,Impact" font-weight="bold" font-size="99.0" fill="#FEFFFF" transform="matrix(1.00, 0.00, -0.00, -1.00, 837.6, 481.0)">A</text><text xml:space="preserve" font-family="Impact,Impact" font-weight="bold" font-size="99.0" fill="#FEFFFF" transform="matrix(1.00, 0.00, -0.00, -1.00, 887.8, 481.0)">F</text><text xml:space="preserve" font-family="Impact,Impact" font-weight="bold" font-size="99.0" fill="#FEFFFF" transform="matrix(1.00, 0.00, -0.00, -1.00, 927.2, 481.0)">F</text><text xml:space="preserve" font-family="Impact,Impact" font-weight="bold" font-size="99.0" fill="#FEFFFF" transform="matrix(1.00, 0.00, -0.00, -1.00, 966.6, 481.0)">E</text><text xml:space="preserve" font-family="Impact,Impact" font-weight="bold" font-size="99.0" fill="#FEFFFF" transform="matrix(1.00, 0.00, -0.00, -1.00, 1007.7, 481.0)">C</text><text xml:space="preserve" font-family="Impact,Impact" font-weight="bold" font-size="99.0" fill="#FEFFFF" transform="matrix(1.00, 0.00, -0.00, -1.00, 1062.5, 481.0)">T</text><text xml:space="preserve" font-family="Impact,Impact" font-weight="bold" font-size="99.0" fill="#FEFFFF" transform="matrix(1.00, 0.00, -0.00, -1.00, 1108.1, 481.0)"> </text><text xml:space="preserve" font-family="Impact,Impact" font-weight="bold" font-size="99.0" fill="#FEFFFF" transform="matrix(1.00, 0.00, -0.00, -1.00, 271.8, 360.0)">T</text><text xml:space="preserve" font-family="Impact,Impact" font-weight="bold" font-size="99.0" fill="#FEFFFF" transform="matrix(1.00, 0.00, -0.00, -1.00, 317.4, 360.0)">H</text><text xml:space="preserve" font-family="Impact,Impact" font-weight="bold" font-size="99.0" fill="#FEFFFF" transform="matrix(1.00, 0.00, -0.00, -1.00, 372.4, 360.0)">E</text><text xml:space="preserve" font-family="Impact,Impact" font-weight="bold" font-size="99.0" fill="#FEFFFF" transform="matrix(1.00, 0.00, -0.00, -1.00, 413.5, 360.0)"> </text><text xml:space="preserve" font-family="Impact,Impact" font-weight="bold" font-size="99.0" fill="#FEFFFF" transform="matrix(1.00, 0.00, -0.00, -1.00, 430.9, 360.0)">U</text><text xml:space="preserve" font-family="Impact,Impact" font-weight="bold" font-size="99.0" fill="#FEFFFF" transform="matrix(1.00, 0.00, -0.00, -1.00, 485.1, 360.0)">S</text><text xml:space="preserve" font-family="Impact,Impact" font-weight="bold" font-size="99.0" fill="#FEFFFF" transform="matrix(1.00, 0.00, -0.00, -1.00, 536.3, 360.0)">E</text><text xml:space="preserve" font-family="Impact,Impact" font-weight="bold" font-size="99.0" fill="#FEFFFF" transform="matrix(1.00, 0.00, -0.00, -1.00, 577.4, 360.0)">R</text><text xml:space="preserve" font-family="Impact,Impact" font-weight="bold" font-size="99.0" fill="#FEFFFF" transform="matrix(1.00, 0.00, -0.00, -1.00, 630.7, 360.0)"> </text><text xml:space="preserve" font-family="Impact,Impact" font-weight="bold" font-size="99.0" fill="#FEFFFF" transform="matrix(1.00, 0.00, -0.00, -1.00, 648.1, 360.0)">O</text><text xml:space="preserve" font-family="Impact,Impact" font-weight="bold" font-size="99.0" fill="#FEFFFF" transform="matrix(1.00, 0.00, -0.00, -1.00, 702.3, 360.0)">F</text><text xml:space="preserve" font-family="Impact,Impact" font-weight="bold" font-size="99.0" fill="#FEFFFF" transform="matrix(1.00, 0.00, -0.00, -1.00, 741.7, 360.0)"> </text><text xml:space="preserve" font-family="Impact,Impact" font-weight="bold" font-size="99.0" fill="#FEFFFF" transform="matrix(1.00, 0.00, -0.00, -1.00, 759.1, 360.0)">T</text><text xml:space="preserve" font-family="Impact,Impact" font-weight="bold" font-size="99.0" fill="#FEFFFF" transform="matrix(1.00, 0.00, -0.00, -1.00, 804.8, 360.0)">H</text><text xml:space="preserve" font-family="Impact,Impact" font-weight="bold" font-size="99.0" fill="#FEFFFF" transform="matrix(1.00, 0.00, -0.00, -1.00, 859.7, 360.0)">E</text><text xml:space="preserve" font-family="Impact,Impact" font-weight="bold" font-size="99.0" fill="#FEFFFF" transform="matrix(1.00, 0.00, -0.00, -1.00, 900.8, 360.0)"> </text><text xml:space="preserve" font-family="Impact,Impact" font-weight="bold" font-size="99.0" fill="#FEFFFF" transform="matrix(1.00, 0.00, -0.00, -1.00, 337.7, 239.0)">A</text><text xml:space="preserve" font-family="Impact,Impact" font-weight="bold" font-size="99.0" fill="#FEFFFF" transform="matrix(1.00, 0.00, -0.00, -1.00, 387.9, 239.0)">P</text><text xml:space="preserve" font-family="Impact,Impact" font-weight="bold" font-size="99.0" fill="#FEFFFF" transform="matrix(1.00, 0.00, -0.00, -1.00, 437.6, 239.0)">P</text><text xml:space="preserve" font-family="Impact,Impact" font-weight="bold" font-size="99.0" fill="#FEFFFF" transform="matrix(1.00, 0.00, -0.00, -1.00, 487.3, 239.0)">L</text><text xml:space="preserve" font-family="Impact,Impact" font-weight="bold" font-size="99.0" fill="#FEFFFF" transform="matrix(1.00, 0.00, -0.00, -1.00, 525.0, 239.0)">I</text><text xml:space="preserve" font-family="Impact,Impact" font-weight="bold" font-size="99.0" fill="#FEFFFF" transform="matrix(1.00, 0.00, -0.00, -1.00, 553.6, 239.0)">C</text><text xml:space="preserve" font-family="Impact,Impact" font-weight="bold" font-size="99.0" fill="#FEFFFF" transform="matrix(1.00, 0.00, -0.00, -1.00, 608.3, 239.0)">A</text><text xml:space="preserve" font-family="Impact,Impact" font-weight="bold" font-size="99.0" fill="#FEFFFF" transform="matrix(1.00, 0.00, -0.00, -1.00, 653.1, 239.0)">T</text><text xml:space="preserve" font-family="Impact,Impact" font-weight="bold" font-size="99.0" fill="#FEFFFF" transform="matrix(1.00, 0.00, -0.00, -1.00, 698.8, 239.0)">I</text><text xml:space="preserve" font-family="Impact,Impact" font-weight="bold" font-size="99.0" fill="#FEFFFF" transform="matrix(1.00, 0.00, -0.00, -1.00, 727.3, 239.0)">O</text><text xml:space="preserve" font-family="Impact,Impact" font-weight="bold" font-size="99.0" fill="#FEFFFF" transform="matrix(1.00, 0.00, -0.00, -1.00, 781.4, 239.0)">N</text><image xlink:href="../../AE10D6E3-0998-4AA1-A858-7C1947A556BC/assets/454504EA92FBE5EFBE2D25289F0E7017.png" width="1920.00" height="1080.00" transform="matrix(0.41, 0.00, -0.00, -0.41, 1150.7, 433.4)"></image></g></svg>