<?xml version="1.0" encoding="UTF-8" standalone="no"?><svg xmlns="http://www.w3.org/2000/svg" xmlns:xlink="http://www.w3.org/1999/xlink" clip-rule="evenodd" stroke-miterlimit="10" viewBox="0 0 1920 1080"><desc>SVG generated by Keynote</desc><defs></defs><g transform="matrix(1.00, 0.00, -0.00, -1.00, 0.0, 1080.0)"><path d="M 0.0 1080.0 L 1920.0 1080.0 L 1920.0 0.0 L 0.0 0.0 Z M 0.0 1080.0 " fill="#000000"></path><text xml:space="preserve" font-family="Impact,Impact" font-weight="bold" font-size="164.0" fill="#FEFFFF" transform="matrix(1.00, 0.00, -0.00, -1.00, 109.3, 904.5)">S</text><text xml:space="preserve" font-family="Impact,Impact" font-weight="bold" font-size="164.0" fill="#FEFFFF" transform="matrix(1.00, 0.00, -0.00, -1.00, 194.1, 904.5)">T</text><text xml:space="preserve" font-family="Impact,Impact" font-weight="bold" font-size="164.0" fill="#FEFFFF" transform="matrix(1.00, 0.00, -0.00, -1.00, 269.7, 904.5)">E</text><text xml:space="preserve" font-family="Impact,Impact" font-weight="bold" font-size="164.0" fill="#FEFFFF" transform="matrix(1.00, 0.00, -0.00, -1.00, 337.7, 904.5)">V</text><text xml:space="preserve" font-family="Impact,Impact" font-weight="bold" font-size="164.0" fill="#FEFFFF" transform="matrix(1.00, 0.00, -0.00, -1.00, 423.6, 904.5)">E</text><text xml:space="preserve" font-family="Impact,Impact" font-weight="bold" font-size="164.0" fill="#FEFFFF" transform="matrix(1.00, 0.00, -0.00, -1.00, 491.6, 904.5)"> </text><text xml:space="preserve" font-family="Impact,Impact" font-weight="bold" font-size="164.0" fill="#FEFFFF" transform="matrix(1.00, 0.00, -0.00, -1.00, 520.5, 904.5)">B</text><text xml:space="preserve" font-family="Impact,Impact" font-weight="bold" font-size="164.0" fill="#FEFFFF" transform="matrix(1.00, 0.00, -0.00, -1.00, 611.1, 904.5)">U</text><text xml:space="preserve" font-family="Impact,Impact" font-weight="bold" font-size="164.0" fill="#FEFFFF" transform="matrix(1.00, 0.00, -0.00, -1.00, 700.8, 904.5)">I</text><text xml:space="preserve" font-family="Impact,Impact" font-weight="bold" font-size="164.0" fill="#FEFFFF" transform="matrix(1.00, 0.00, -0.00, -1.00, 748.1, 904.5)">L</text><text xml:space="preserve" font-family="Impact,Impact" font-weight="bold" font-size="164.0" fill="#FEFFFF" transform="matrix(1.00, 0.00, -0.00, -1.00, 810.5, 904.5)">D</text><text xml:space="preserve" font-family="Impact,Impact" font-weight="bold" font-size="164.0" fill="#FEFFFF" transform="matrix(1.00, 0.00, -0.00, -1.00, 901.1, 904.5)">S</text><text xml:space="preserve" font-family="Impact,Impact" font-weight="bold" font-size="164.0" fill="#FEFFFF" transform="matrix(1.00, 0.00, -0.00, -1.00, 985.9, 904.5)"> </text><text xml:space="preserve" font-family="Impact,Impact" font-weight="bold" font-size="164.0" fill="#FEFFFF" transform="matrix(1.00, 0.00, -0.00, -1.00, 10.2, 704.5)">S</text><text xml:space="preserve" font-family="Impact,Impact" font-weight="bold" font-size="164.0" fill="#FEFFFF" transform="matrix(1.00, 0.00, -0.00, -1.00, 95.1, 704.5)">O</text><text xml:space="preserve" font-family="Impact,Impact" font-weight="bold" font-size="164.0" fill="#FEFFFF" transform="matrix(1.00, 0.00, -0.00, -1.00, 184.7, 704.5)">F</text><text xml:space="preserve" font-family="Impact,Impact" font-weight="bold" font-size="164.0" fill="#FEFFFF" transform="matrix(1.00, 0.00, -0.00, -1.00, 250.0, 704.5)">T</text><text xml:space="preserve" font-family="Impact,Impact" font-weight="bold" font-size="164.0" fill="#FEFFFF" transform="matrix(1.00, 0.00, -0.00, -1.00, 329.2, 704.5)">W</text><text xml:space="preserve" font-family="Impact,Impact" font-weight="bold" font-size="164.0" fill="#FEFFFF" transform="matrix(1.00, 0.00, -0.00, -1.00, 461.3, 704.5)">A</text><text xml:space="preserve" font-family="Impact,Impact" font-weight="bold" font-size="164.0" fill="#FEFFFF" transform="matrix(1.00, 0.00, -0.00, -1.00, 544.6, 704.5)">R</text><text xml:space="preserve" font-family="Impact,Impact" font-weight="bold" font-size="164.0" fill="#FEFFFF" transform="matrix(1.00, 0.00, -0.00, -1.00, 632.8, 704.5)">E</text><text xml:space="preserve" font-family="Impact,Impact" font-weight="bold" font-size="164.0" fill="#FEFFFF" transform="matrix(1.00, 0.00, -0.00, -1.00, 700.8, 704.5)"> </text><text xml:space="preserve" font-family="Impact,Impact" font-weight="bold" font-size="164.0" fill="#FEFFFF" transform="matrix(1.00, 0.00, -0.00, -1.00, 729.7, 704.5)">F</text><text xml:space="preserve" font-family="Impact,Impact" font-weight="bold" font-size="164.0" fill="#FEFFFF" transform="matrix(1.00, 0.00, -0.00, -1.00, 795.0, 704.5)">O</text><text xml:space="preserve" font-family="Impact,Impact" font-weight="bold" font-size="164.0" fill="#FEFFFF" transform="matrix(1.00, 0.00, -0.00, -1.00, 884.6, 704.5)">R</text><text xml:space="preserve" font-family="Impact,Impact" font-weight="bold" font-size="164.0" fill="#FEFFFF" transform="matrix(1.00, 0.00, -0.00, -1.00, 972.8, 704.5)"> </text><text xml:space="preserve" font-family="Impact,Impact" font-weight="bold" font-size="164.0" fill="#FEFFFF" transform="matrix(1.00, 0.00, -0.00, -1.00, 1001.7, 704.5)">A</text><text xml:space="preserve" font-family="Impact,Impact" font-weight="bold" font-size="164.0" fill="#FEFFFF" transform="matrix(1.00, 0.00, -0.00, -1.00, 1085.0, 704.5)"> </text><text xml:space="preserve" font-family="Impact,Impact" font-weight="bold" font-size="164.0" fill="#FEFFFF" transform="matrix(1.00, 0.00, -0.00, -1.00, 321.6, 504.5)">L</text><text xml:space="preserve" font-family="Impact,Impact" font-weight="bold" font-size="164.0" fill="#FEFFFF" transform="matrix(1.00, 0.00, -0.00, -1.00, 384.0, 504.5)">I</text><text xml:space="preserve" font-family="Impact,Impact" font-weight="bold" font-size="164.0" fill="#FEFFFF" transform="matrix(1.00, 0.00, -0.00, -1.00, 431.3, 504.5)">V</text><text xml:space="preserve" font-family="Impact,Impact" font-weight="bold" font-size="164.0" fill="#FEFFFF" transform="matrix(1.00, 0.00, -0.00, -1.00, 517.3, 504.5)">I</text><text xml:space="preserve" font-family="Impact,Impact" font-weight="bold" font-size="164.0" fill="#FEFFFF" transform="matrix(1.00, 0.00, -0.00, -1.00, 564.6, 504.5)">N</text><text xml:space="preserve" font-family="Impact,Impact" font-weight="bold" font-size="164.0" fill="#FEFFFF" transform="matrix(1.00, 0.00, -0.00, -1.00, 653.3, 504.5)">G</text><text xml:space="preserve" font-family="Impact,Impact" font-weight="bold" font-size="164.0" fill="#FEFFFF" transform="matrix(1.00, 0.00, -0.00, -1.00, 743.8, 504.5)">.</text><image xlink:href="5018F125D4BEE77C06410DD4869E258E.png" width="1366.00" height="706.00" transform="matrix(0.76, 0.00, -0.00, -0.76, 936.4, 535.1)"></image></g></svg>