<?xml version="1.0" encoding="UTF-8" standalone="no"?><svg xmlns="http://www.w3.org/2000/svg" xmlns:xlink="http://www.w3.org/1999/xlink" clip-rule="evenodd" stroke-miterlimit="10" viewBox="0 0 1920 1080"><desc>SVG generated by Keynote</desc><defs></defs><g transform="matrix(1.00, 0.00, -0.00, -1.00, 0.0, 1080.0)"><path d="M 0.0 1080.0 L 1920.0 1080.0 L 1920.0 0.0 L 0.0 0.0 Z M 0.0 1080.0 " fill="#000000"></path><text xml:space="preserve" font-family="Impact,Impact" font-weight="bold" font-size="160.0" fill="#FEFFFF" transform="matrix(1.00, 0.00, -0.00, -1.00, 124.4, 788.3)">M</text><text xml:space="preserve" font-family="Impact,Impact" font-weight="bold" font-size="160.0" fill="#FEFFFF" transform="matrix(1.00, 0.00, -0.00, -1.00, 239.1, 788.3)">E</text><text xml:space="preserve" font-family="Impact,Impact" font-weight="bold" font-size="160.0" fill="#FEFFFF" transform="matrix(1.00, 0.00, -0.00, -1.00, 305.5, 788.3)">E</text><text xml:space="preserve" font-family="Impact,Impact" font-weight="bold" font-size="160.0" fill="#FEFFFF" transform="matrix(1.00, 0.00, -0.00, -1.00, 369.8, 788.3)">T</text><text xml:space="preserve" font-family="Impact,Impact" font-weight="bold" font-size="160.0" fill="#FEFFFF" transform="matrix(1.00, 0.00, -0.00, -1.00, 443.5, 788.3)"> </text><text xml:space="preserve" font-family="Impact,Impact" font-weight="bold" font-size="160.0" fill="#FEFFFF" transform="matrix(1.00, 0.00, -0.00, -1.00, 471.8, 788.3)">S</text><text xml:space="preserve" font-family="Impact,Impact" font-weight="bold" font-size="160.0" fill="#FEFFFF" transform="matrix(1.00, 0.00, -0.00, -1.00, 554.5, 788.3)">T</text><text xml:space="preserve" font-family="Impact,Impact" font-weight="bold" font-size="160.0" fill="#FEFFFF" transform="matrix(1.00, 0.00, -0.00, -1.00, 628.2, 788.3)">E</text><text xml:space="preserve" font-family="Impact,Impact" font-weight="bold" font-size="160.0" fill="#FEFFFF" transform="matrix(1.00, 0.00, -0.00, -1.00, 694.7, 788.3)">V</text><text xml:space="preserve" font-family="Impact,Impact" font-weight="bold" font-size="160.0" fill="#FEFFFF" transform="matrix(1.00, 0.00, -0.00, -1.00, 778.6, 788.3)">E</text><image xlink:href="A800FA3B667CBD0DFF36DE2E1B45A977.png" width="700.00" height="931.00" transform="matrix(1.16, 0.00, -0.00, -1.16, 824.6, 1011.7)"></image></g></svg>