<?xml version="1.0" encoding="UTF-8" standalone="no"?><svg xmlns="http://www.w3.org/2000/svg" xmlns:xlink="http://www.w3.org/1999/xlink" clip-rule="evenodd" stroke-miterlimit="10" viewBox="0 0 1920 1080"><desc>SVG generated by Keynote</desc><defs></defs><g transform="matrix(1.00, 0.00, -0.00, -1.00, 0.0, 1080.0)"><path d="M 0.0 1080.0 L 1920.0 1080.0 L 1920.0 0.0 L 0.0 0.0 Z M 0.0 1080.0 " fill="#000000"></path><text xml:space="preserve" font-family="Impact,Impact" font-weight="bold" font-size="280.0" fill="#FEFFFF" transform="matrix(1.00, 0.00, -0.00, -1.00, 147.8, 429.0)">A</text><text xml:space="preserve" font-family="Impact,Impact" font-weight="bold" font-size="280.0" fill="#FEFFFF" transform="matrix(1.00, 0.00, -0.00, -1.00, 289.9, 429.0)">N</text><text xml:space="preserve" font-family="Impact,Impact" font-weight="bold" font-size="280.0" fill="#FEFFFF" transform="matrix(1.00, 0.00, -0.00, -1.00, 441.5, 429.0)">D</text><text xml:space="preserve" font-family="Impact,Impact" font-weight="bold" font-size="280.0" fill="#FEFFFF" transform="matrix(1.00, 0.00, -0.00, -1.00, 596.2, 429.0)"> </text><text xml:space="preserve" font-family="Impact,Impact" font-weight="bold" font-size="280.0" fill="#FEFFFF" transform="matrix(1.00, 0.00, -0.00, -1.00, 645.7, 429.0)">H</text><text xml:space="preserve" font-family="Impact,Impact" font-weight="bold" font-size="280.0" fill="#FEFFFF" transform="matrix(1.00, 0.00, -0.00, -1.00, 801.1, 429.0)">I</text><text xml:space="preserve" font-family="Impact,Impact" font-weight="bold" font-size="280.0" fill="#FEFFFF" transform="matrix(1.00, 0.00, -0.00, -1.00, 881.7, 429.0)">S</text><text xml:space="preserve" font-family="Impact,Impact" font-weight="bold" font-size="280.0" fill="#FEFFFF" transform="matrix(1.00, 0.00, -0.00, -1.00, 1026.5, 429.0)"> </text><text xml:space="preserve" font-family="Impact,Impact" font-weight="bold" font-size="280.0" fill="#FEFFFF" transform="matrix(1.00, 0.00, -0.00, -1.00, 1076.0, 429.0)">Q</text><text xml:space="preserve" font-family="Impact,Impact" font-weight="bold" font-size="280.0" fill="#FEFFFF" transform="matrix(1.00, 0.00, -0.00, -1.00, 1229.3, 429.0)">U</text><text xml:space="preserve" font-family="Impact,Impact" font-weight="bold" font-size="280.0" fill="#FEFFFF" transform="matrix(1.00, 0.00, -0.00, -1.00, 1382.3, 429.0)">E</text><text xml:space="preserve" font-family="Impact,Impact" font-weight="bold" font-size="280.0" fill="#FEFFFF" transform="matrix(1.00, 0.00, -0.00, -1.00, 1498.6, 429.0)">S</text><text xml:space="preserve" font-family="Impact,Impact" font-weight="bold" font-size="280.0" fill="#FEFFFF" transform="matrix(1.00, 0.00, -0.00, -1.00, 1643.4, 429.0)">T</text></g></svg>