<?xml version="1.0" encoding="UTF-8" standalone="no"?><svg xmlns="http://www.w3.org/2000/svg" xmlns:xlink="http://www.w3.org/1999/xlink" clip-rule="evenodd" stroke-miterlimit="10" viewBox="0 0 1920 1080"><desc>SVG generated by Keynote</desc><defs></defs><g transform="matrix(1.00, 0.00, -0.00, -1.00, 0.0, 1080.0)"><path d="M 0.0 1080.0 L 1920.0 1080.0 L 1920.0 0.0 L 0.0 0.0 Z M 0.0 1080.0 " fill="#000000"></path><text xml:space="preserve" font-family="Impact,Impact" font-weight="bold" font-size="248.0" fill="#FEFFFF" transform="matrix(1.00, 0.00, -0.00, -1.00, 520.0, 533.0)">D</text><text xml:space="preserve" font-family="Impact,Impact" font-weight="bold" font-size="248.0" fill="#FEFFFF" transform="matrix(1.00, 0.00, -0.00, -1.00, 657.0, 533.0)">Y</text><text xml:space="preserve" font-family="Impact,Impact" font-weight="bold" font-size="248.0" fill="#FEFFFF" transform="matrix(1.00, 0.00, -0.00, -1.00, 774.4, 533.0)">N</text><text xml:space="preserve" font-family="Impact,Impact" font-weight="bold" font-size="248.0" fill="#FEFFFF" transform="matrix(1.00, 0.00, -0.00, -1.00, 908.6, 533.0)">A</text><text xml:space="preserve" font-family="Impact,Impact" font-weight="bold" font-size="248.0" fill="#FEFFFF" transform="matrix(1.00, 0.00, -0.00, -1.00, 1034.5, 533.0)">M</text><text xml:space="preserve" font-family="Impact,Impact" font-weight="bold" font-size="248.0" fill="#FEFFFF" transform="matrix(1.00, 0.00, -0.00, -1.00, 1212.2, 533.0)">O</text><text xml:space="preserve" font-family="Impact,Impact" font-weight="bold" font-size="248.0" fill="#FEFFFF" transform="matrix(1.00, 0.00, -0.00, -1.00, 1347.8, 533.0)">!</text><text xml:space="preserve" font-family="Impact,Impact" font-weight="bold" font-size="248.0" fill="#FEFFFF" transform="matrix(1.00, 0.00, -0.00, -1.00, 1414.7, 533.0)"> </text><text xml:space="preserve" font-family="Impact,Impact" font-weight="bold" font-size="150.0" fill="#FEFFFF" transform="matrix(1.00, 0.00, -0.00, -1.00, 118.8, 329.4)">(</text><text xml:space="preserve" font-family="Impact,Impact" font-weight="bold" font-size="150.0" fill="#FEFFFF" transform="matrix(1.00, 0.00, -0.00, -1.00, 165.9, 329.4)">R</text><text xml:space="preserve" font-family="Impact,Impact" font-weight="bold" font-size="150.0" fill="#FEFFFF" transform="matrix(1.00, 0.00, -0.00, -1.00, 246.6, 329.4)">I</text><text xml:space="preserve" font-family="Impact,Impact" font-weight="bold" font-size="150.0" fill="#FEFFFF" transform="matrix(1.00, 0.00, -0.00, -1.00, 289.8, 329.4)">A</text><text xml:space="preserve" font-family="Impact,Impact" font-weight="bold" font-size="150.0" fill="#FEFFFF" transform="matrix(1.00, 0.00, -0.00, -1.00, 366.0, 329.4)">K</text><text xml:space="preserve" font-family="Impact,Impact" font-weight="bold" font-size="150.0" fill="#FEFFFF" transform="matrix(1.00, 0.00, -0.00, -1.00, 449.7, 329.4)">,</text><text xml:space="preserve" font-family="Impact,Impact" font-weight="bold" font-size="150.0" fill="#FEFFFF" transform="matrix(1.00, 0.00, -0.00, -1.00, 474.9, 329.4)"> </text><text xml:space="preserve" font-family="Impact,Impact" font-weight="bold" font-size="150.0" fill="#FEFFFF" transform="matrix(1.00, 0.00, -0.00, -1.00, 501.4, 329.4)">D</text><text xml:space="preserve" font-family="Impact,Impact" font-weight="bold" font-size="150.0" fill="#FEFFFF" transform="matrix(1.00, 0.00, -0.00, -1.00, 584.3, 329.4)">Y</text><text xml:space="preserve" font-family="Impact,Impact" font-weight="bold" font-size="150.0" fill="#FEFFFF" transform="matrix(1.00, 0.00, -0.00, -1.00, 655.2, 329.4)">N</text><text xml:space="preserve" font-family="Impact,Impact" font-weight="bold" font-size="150.0" fill="#FEFFFF" transform="matrix(1.00, 0.00, -0.00, -1.00, 736.4, 329.4)">A</text><text xml:space="preserve" font-family="Impact,Impact" font-weight="bold" font-size="150.0" fill="#FEFFFF" transform="matrix(1.00, 0.00, -0.00, -1.00, 812.5, 329.4)">M</text><text xml:space="preserve" font-family="Impact,Impact" font-weight="bold" font-size="150.0" fill="#FEFFFF" transform="matrix(1.00, 0.00, -0.00, -1.00, 920.0, 329.4)">O</text><text xml:space="preserve" font-family="Impact,Impact" font-weight="bold" font-size="150.0" fill="#FEFFFF" transform="matrix(1.00, 0.00, -0.00, -1.00, 1002.0, 329.4)">,</text><text xml:space="preserve" font-family="Impact,Impact" font-weight="bold" font-size="150.0" fill="#FEFFFF" transform="matrix(1.00, 0.00, -0.00, -1.00, 1027.2, 329.4)"> </text><text xml:space="preserve" font-family="Impact,Impact" font-weight="bold" font-size="150.0" fill="#FEFFFF" transform="matrix(1.00, 0.00, -0.00, -1.00, 1053.7, 329.4)">C</text><text xml:space="preserve" font-family="Impact,Impact" font-weight="bold" font-size="150.0" fill="#FEFFFF" transform="matrix(1.00, 0.00, -0.00, -1.00, 1136.7, 329.4)">A</text><text xml:space="preserve" font-family="Impact,Impact" font-weight="bold" font-size="150.0" fill="#FEFFFF" transform="matrix(1.00, 0.00, -0.00, -1.00, 1212.9, 329.4)">S</text><text xml:space="preserve" font-family="Impact,Impact" font-weight="bold" font-size="150.0" fill="#FEFFFF" transform="matrix(1.00, 0.00, -0.00, -1.00, 1290.5, 329.4)">S</text><text xml:space="preserve" font-family="Impact,Impact" font-weight="bold" font-size="150.0" fill="#FEFFFF" transform="matrix(1.00, 0.00, -0.00, -1.00, 1368.0, 329.4)">A</text><text xml:space="preserve" font-family="Impact,Impact" font-weight="bold" font-size="150.0" fill="#FEFFFF" transform="matrix(1.00, 0.00, -0.00, -1.00, 1444.2, 329.4)">N</text><text xml:space="preserve" font-family="Impact,Impact" font-weight="bold" font-size="150.0" fill="#FEFFFF" transform="matrix(1.00, 0.00, -0.00, -1.00, 1525.3, 329.4)">D</text><text xml:space="preserve" font-family="Impact,Impact" font-weight="bold" font-size="150.0" fill="#FEFFFF" transform="matrix(1.00, 0.00, -0.00, -1.00, 1608.2, 329.4)">R</text><text xml:space="preserve" font-family="Impact,Impact" font-weight="bold" font-size="150.0" fill="#FEFFFF" transform="matrix(1.00, 0.00, -0.00, -1.00, 1688.9, 329.4)">A</text><text xml:space="preserve" font-family="Impact,Impact" font-weight="bold" font-size="150.0" fill="#FEFFFF" transform="matrix(1.00, 0.00, -0.00, -1.00, 1768.8, 329.4)">)</text></g></svg>