<?xml version="1.0" encoding="UTF-8" standalone="no"?><svg xmlns="http://www.w3.org/2000/svg" xmlns:xlink="http://www.w3.org/1999/xlink" clip-rule="evenodd" stroke-miterlimit="10" viewBox="0 0 1920 1080"><desc>SVG generated by Keynote</desc><defs></defs><g transform="matrix(1.00, 0.00, -0.00, -1.00, 0.0, 1080.0)"><path d="M 0.0 1080.0 L 1920.0 1080.0 L 1920.0 0.0 L 0.0 0.0 Z M 0.0 1080.0 " fill="#000000"></path><text xml:space="preserve" font-family="Impact,Impact" font-weight="bold" font-size="155.0" fill="#FEFFFF" transform="matrix(1.00, 0.00, -0.00, -1.00, 234.9, 770.0)">B</text><text xml:space="preserve" font-family="Impact,Impact" font-weight="bold" font-size="155.0" fill="#FEFFFF" transform="matrix(1.00, 0.00, -0.00, -1.00, 320.5, 770.0)">A</text><text xml:space="preserve" font-family="Impact,Impact" font-weight="bold" font-size="155.0" fill="#FEFFFF" transform="matrix(1.00, 0.00, -0.00, -1.00, 399.3, 770.0)">S</text><text xml:space="preserve" font-family="Impact,Impact" font-weight="bold" font-size="155.0" fill="#FEFFFF" transform="matrix(1.00, 0.00, -0.00, -1.00, 479.4, 770.0)">E</text><text xml:space="preserve" font-family="Impact,Impact" font-weight="bold" font-size="155.0" fill="#FEFFFF" transform="matrix(1.00, 0.00, -0.00, -1.00, 543.7, 770.0)">D</text><text xml:space="preserve" font-family="Impact,Impact" font-weight="bold" font-size="155.0" fill="#FEFFFF" transform="matrix(1.00, 0.00, -0.00, -1.00, 629.3, 770.0)"> </text><text xml:space="preserve" font-family="Impact,Impact" font-weight="bold" font-size="155.0" fill="#FEFFFF" transform="matrix(1.00, 0.00, -0.00, -1.00, 656.6, 770.0)">O</text><text xml:space="preserve" font-family="Impact,Impact" font-weight="bold" font-size="155.0" fill="#FEFFFF" transform="matrix(1.00, 0.00, -0.00, -1.00, 741.3, 770.0)">N</text><text xml:space="preserve" font-family="Impact,Impact" font-weight="bold" font-size="155.0" fill="#FEFFFF" transform="matrix(1.00, 0.00, -0.00, -1.00, 825.2, 770.0)"> </text><text xml:space="preserve" font-family="Impact,Impact" font-weight="bold" font-size="155.0" fill="#FEFFFF" transform="matrix(1.00, 0.00, -0.00, -1.00, 852.5, 770.0)">A</text><text xml:space="preserve" font-family="Impact,Impact" font-weight="bold" font-size="155.0" fill="#FEFFFF" transform="matrix(1.00, 0.00, -0.00, -1.00, 931.3, 770.0)">N</text><text xml:space="preserve" font-family="Impact,Impact" font-weight="bold" font-size="155.0" fill="#FEFFFF" transform="matrix(1.00, 0.00, -0.00, -1.00, 1015.1, 770.0)"> </text><text xml:space="preserve" font-family="Impact,Impact" font-weight="bold" font-size="155.0" fill="#FEFFFF" transform="matrix(1.00, 0.00, -0.00, -1.00, 1042.4, 770.0)">A</text><text xml:space="preserve" font-family="Impact,Impact" font-weight="bold" font-size="155.0" fill="#FEFFFF" transform="matrix(1.00, 0.00, -0.00, -1.00, 1121.2, 770.0)">B</text><text xml:space="preserve" font-family="Impact,Impact" font-weight="bold" font-size="155.0" fill="#FEFFFF" transform="matrix(1.00, 0.00, -0.00, -1.00, 1206.8, 770.0)">S</text><text xml:space="preserve" font-family="Impact,Impact" font-weight="bold" font-size="155.0" fill="#FEFFFF" transform="matrix(1.00, 0.00, -0.00, -1.00, 1287.0, 770.0)">T</text><text xml:space="preserve" font-family="Impact,Impact" font-weight="bold" font-size="155.0" fill="#FEFFFF" transform="matrix(1.00, 0.00, -0.00, -1.00, 1358.4, 770.0)">R</text><text xml:space="preserve" font-family="Impact,Impact" font-weight="bold" font-size="155.0" fill="#FEFFFF" transform="matrix(1.00, 0.00, -0.00, -1.00, 1441.8, 770.0)">A</text><text xml:space="preserve" font-family="Impact,Impact" font-weight="bold" font-size="155.0" fill="#FEFFFF" transform="matrix(1.00, 0.00, -0.00, -1.00, 1520.5, 770.0)">C</text><text xml:space="preserve" font-family="Impact,Impact" font-weight="bold" font-size="155.0" fill="#FEFFFF" transform="matrix(1.00, 0.00, -0.00, -1.00, 1606.2, 770.0)">T</text><text xml:space="preserve" font-family="Impact,Impact" font-weight="bold" font-size="155.0" fill="#FEFFFF" transform="matrix(1.00, 0.00, -0.00, -1.00, 1677.7, 770.0)"> </text><text xml:space="preserve" font-family="Impact,Impact" font-weight="bold" font-size="155.0" fill="#FEFFFF" transform="matrix(1.00, 0.00, -0.00, -1.00, 422.6, 581.0)">I</text><text xml:space="preserve" font-family="Impact,Impact" font-weight="bold" font-size="155.0" fill="#FEFFFF" transform="matrix(1.00, 0.00, -0.00, -1.00, 467.2, 581.0)">M</text><text xml:space="preserve" font-family="Impact,Impact" font-weight="bold" font-size="155.0" fill="#FEFFFF" transform="matrix(1.00, 0.00, -0.00, -1.00, 578.3, 581.0)">P</text><text xml:space="preserve" font-family="Impact,Impact" font-weight="bold" font-size="155.0" fill="#FEFFFF" transform="matrix(1.00, 0.00, -0.00, -1.00, 656.1, 581.0)">L</text><text xml:space="preserve" font-family="Impact,Impact" font-weight="bold" font-size="155.0" fill="#FEFFFF" transform="matrix(1.00, 0.00, -0.00, -1.00, 715.1, 581.0)">E</text><text xml:space="preserve" font-family="Impact,Impact" font-weight="bold" font-size="155.0" fill="#FEFFFF" transform="matrix(1.00, 0.00, -0.00, -1.00, 779.4, 581.0)">M</text><text xml:space="preserve" font-family="Impact,Impact" font-weight="bold" font-size="155.0" fill="#FEFFFF" transform="matrix(1.00, 0.00, -0.00, -1.00, 890.5, 581.0)">E</text><text xml:space="preserve" font-family="Impact,Impact" font-weight="bold" font-size="155.0" fill="#FEFFFF" transform="matrix(1.00, 0.00, -0.00, -1.00, 954.8, 581.0)">N</text><text xml:space="preserve" font-family="Impact,Impact" font-weight="bold" font-size="155.0" fill="#FEFFFF" transform="matrix(1.00, 0.00, -0.00, -1.00, 1038.7, 581.0)">T</text><text xml:space="preserve" font-family="Impact,Impact" font-weight="bold" font-size="155.0" fill="#FEFFFF" transform="matrix(1.00, 0.00, -0.00, -1.00, 1103.9, 581.0)">A</text><text xml:space="preserve" font-family="Impact,Impact" font-weight="bold" font-size="155.0" fill="#FEFFFF" transform="matrix(1.00, 0.00, -0.00, -1.00, 1174.1, 581.0)">T</text><text xml:space="preserve" font-family="Impact,Impact" font-weight="bold" font-size="155.0" fill="#FEFFFF" transform="matrix(1.00, 0.00, -0.00, -1.00, 1245.5, 581.0)">I</text><text xml:space="preserve" font-family="Impact,Impact" font-weight="bold" font-size="155.0" fill="#FEFFFF" transform="matrix(1.00, 0.00, -0.00, -1.00, 1290.2, 581.0)">O</text><text xml:space="preserve" font-family="Impact,Impact" font-weight="bold" font-size="155.0" fill="#FEFFFF" transform="matrix(1.00, 0.00, -0.00, -1.00, 1374.9, 581.0)">N</text><text xml:space="preserve" font-family="Impact,Impact" font-weight="bold" font-size="155.0" fill="#FEFFFF" transform="matrix(1.00, 0.00, -0.00, -1.00, 1458.8, 581.0)">:</text><text xml:space="preserve" font-family="Impact,Impact" font-weight="bold" font-size="155.0" fill="#FEFFFF" transform="matrix(1.00, 0.00, -0.00, -1.00, 1490.1, 581.0)"> </text><text xml:space="preserve" font-family="Impact,Impact" font-weight="bold" font-size="155.0" fill="#FEFFFF" transform="matrix(1.00, 0.00, -0.00, -1.00, 151.6, 392.0)">h</text><text xml:space="preserve" font-family="Impact,Impact" font-weight="bold" font-size="155.0" fill="#FEFFFF" transform="matrix(1.00, 0.00, -0.00, -1.00, 232.8, 392.0)">t</text><text xml:space="preserve" font-family="Impact,Impact" font-weight="bold" font-size="155.0" fill="#FEFFFF" transform="matrix(1.00, 0.00, -0.00, -1.00, 280.0, 392.0)">t</text><text xml:space="preserve" font-family="Impact,Impact" font-weight="bold" font-size="155.0" fill="#FEFFFF" transform="matrix(1.00, 0.00, -0.00, -1.00, 327.2, 392.0)">p</text><text xml:space="preserve" font-family="Impact,Impact" font-weight="bold" font-size="155.0" fill="#FEFFFF" transform="matrix(1.00, 0.00, -0.00, -1.00, 407.6, 392.0)">s</text><text xml:space="preserve" font-family="Impact,Impact" font-weight="bold" font-size="155.0" fill="#FEFFFF" transform="matrix(1.00, 0.00, -0.00, -1.00, 480.5, 392.0)">:</text><text xml:space="preserve" font-family="Impact,Impact" font-weight="bold" font-size="155.0" fill="#FEFFFF" transform="matrix(1.00, 0.00, -0.00, -1.00, 511.9, 392.0)">/</text><text xml:space="preserve" font-family="Impact,Impact" font-weight="bold" font-size="155.0" fill="#FEFFFF" transform="matrix(1.00, 0.00, -0.00, -1.00, 573.1, 392.0)">/</text><text xml:space="preserve" font-family="Impact,Impact" font-weight="bold" font-size="155.0" fill="#FEFFFF" transform="matrix(1.00, 0.00, -0.00, -1.00, 634.3, 392.0)">g</text><text xml:space="preserve" font-family="Impact,Impact" font-weight="bold" font-size="155.0" fill="#FEFFFF" transform="matrix(1.00, 0.00, -0.00, -1.00, 714.6, 392.0)">i</text><text xml:space="preserve" font-family="Impact,Impact" font-weight="bold" font-size="155.0" fill="#FEFFFF" transform="matrix(1.00, 0.00, -0.00, -1.00, 757.1, 392.0)">t</text><text xml:space="preserve" font-family="Impact,Impact" font-weight="bold" font-size="155.0" fill="#FEFFFF" transform="matrix(1.00, 0.00, -0.00, -1.00, 804.3, 392.0)">h</text><text xml:space="preserve" font-family="Impact,Impact" font-weight="bold" font-size="155.0" fill="#FEFFFF" transform="matrix(1.00, 0.00, -0.00, -1.00, 885.5, 392.0)">u</text><text xml:space="preserve" font-family="Impact,Impact" font-weight="bold" font-size="155.0" fill="#FEFFFF" transform="matrix(1.00, 0.00, -0.00, -1.00, 966.5, 392.0)">b</text><text xml:space="preserve" font-family="Impact,Impact" font-weight="bold" font-size="155.0" fill="#FEFFFF" transform="matrix(1.00, 0.00, -0.00, -1.00, 1047.0, 392.0)">.</text><text xml:space="preserve" font-family="Impact,Impact" font-weight="bold" font-size="155.0" fill="#FEFFFF" transform="matrix(1.00, 0.00, -0.00, -1.00, 1075.5, 392.0)">c</text><text xml:space="preserve" font-family="Impact,Impact" font-weight="bold" font-size="155.0" fill="#FEFFFF" transform="matrix(1.00, 0.00, -0.00, -1.00, 1152.1, 392.0)">o</text><text xml:space="preserve" font-family="Impact,Impact" font-weight="bold" font-size="155.0" fill="#FEFFFF" transform="matrix(1.00, 0.00, -0.00, -1.00, 1231.4, 392.0)">m</text><text xml:space="preserve" font-family="Impact,Impact" font-weight="bold" font-size="155.0" fill="#FEFFFF" transform="matrix(1.00, 0.00, -0.00, -1.00, 1350.9, 392.0)">/</text><text xml:space="preserve" font-family="Impact,Impact" font-weight="bold" font-size="155.0" fill="#FEFFFF" transform="matrix(1.00, 0.00, -0.00, -1.00, 1412.1, 392.0)">p</text><text xml:space="preserve" font-family="Impact,Impact" font-weight="bold" font-size="155.0" fill="#FEFFFF" transform="matrix(1.00, 0.00, -0.00, -1.00, 1492.6, 392.0)">g</text><text xml:space="preserve" font-family="Impact,Impact" font-weight="bold" font-size="155.0" fill="#FEFFFF" transform="matrix(1.00, 0.00, -0.00, -1.00, 1572.9, 392.0)">t</text><text xml:space="preserve" font-family="Impact,Impact" font-weight="bold" font-size="155.0" fill="#FEFFFF" transform="matrix(1.00, 0.00, -0.00, -1.00, 1620.1, 392.0)">e</text><text xml:space="preserve" font-family="Impact,Impact" font-weight="bold" font-size="155.0" fill="#FEFFFF" transform="matrix(1.00, 0.00, -0.00, -1.00, 1699.3, 392.0)">/</text><g><clipPath id="clip0x600000eb0e00"><path d="M 150.6 371.6 L 1761.3 371.6 L 1761.3 381.3 L 150.6 381.3 Z M 150.6 371.6 "></path></clipPath><g clip-path="url(#clip0x600000eb0e00)"><path d="M 152.5 707.4 L 1762.2 707.4 " fill="none" stroke="#FEFFFF" stroke-width="7.72" transform="matrix(1.00, 0.00, 0.00, -1.00, -0.9, 1083.9)"></path></g></g><text xml:space="preserve" font-family="Impact,Impact" font-weight="bold" font-size="155.0" fill="#FEFFFF" transform="matrix(1.00, 0.00, -0.00, -1.00, 481.1, 203.0)">s</text><text xml:space="preserve" font-family="Impact,Impact" font-weight="bold" font-size="155.0" fill="#FEFFFF" transform="matrix(1.00, 0.00, -0.00, -1.00, 554.0, 203.0)">k</text><text xml:space="preserve" font-family="Impact,Impact" font-weight="bold" font-size="155.0" fill="#FEFFFF" transform="matrix(1.00, 0.00, -0.00, -1.00, 628.1, 203.0)">i</text><text xml:space="preserve" font-family="Impact,Impact" font-weight="bold" font-size="155.0" fill="#FEFFFF" transform="matrix(1.00, 0.00, -0.00, -1.00, 670.5, 203.0)">f</text><text xml:space="preserve" font-family="Impact,Impact" font-weight="bold" font-size="155.0" fill="#FEFFFF" transform="matrix(1.00, 0.00, -0.00, -1.00, 715.3, 203.0)">f</text><text xml:space="preserve" font-family="Impact,Impact" font-weight="bold" font-size="155.0" fill="#FEFFFF" transform="matrix(1.00, 0.00, -0.00, -1.00, 760.1, 203.0)">-</text><text xml:space="preserve" font-family="Impact,Impact" font-weight="bold" font-size="155.0" fill="#FEFFFF" transform="matrix(1.00, 0.00, -0.00, -1.00, 805.8, 203.0)">a</text><text xml:space="preserve" font-family="Impact,Impact" font-weight="bold" font-size="155.0" fill="#FEFFFF" transform="matrix(1.00, 0.00, -0.00, -1.00, 883.9, 203.0)">l</text><text xml:space="preserve" font-family="Impact,Impact" font-weight="bold" font-size="155.0" fill="#FEFFFF" transform="matrix(1.00, 0.00, -0.00, -1.00, 926.4, 203.0)">g</text><text xml:space="preserve" font-family="Impact,Impact" font-weight="bold" font-size="155.0" fill="#FEFFFF" transform="matrix(1.00, 0.00, -0.00, -1.00, 1006.7, 203.0)">o</text><text xml:space="preserve" font-family="Impact,Impact" font-weight="bold" font-size="155.0" fill="#FEFFFF" transform="matrix(1.00, 0.00, -0.00, -1.00, 1086.0, 203.0)">r</text><text xml:space="preserve" font-family="Impact,Impact" font-weight="bold" font-size="155.0" fill="#FEFFFF" transform="matrix(1.00, 0.00, -0.00, -1.00, 1141.4, 203.0)">i</text><text xml:space="preserve" font-family="Impact,Impact" font-weight="bold" font-size="155.0" fill="#FEFFFF" transform="matrix(1.00, 0.00, -0.00, -1.00, 1183.9, 203.0)">t</text><text xml:space="preserve" font-family="Impact,Impact" font-weight="bold" font-size="155.0" fill="#FEFFFF" transform="matrix(1.00, 0.00, -0.00, -1.00, 1231.0, 203.0)">h</text><text xml:space="preserve" font-family="Impact,Impact" font-weight="bold" font-size="155.0" fill="#FEFFFF" transform="matrix(1.00, 0.00, -0.00, -1.00, 1312.2, 203.0)">m</text><g><clipPath id="clip0x600000eb1640"><path d="M 480.1 182.6 L 1431.9 182.6 L 1431.9 192.3 L 480.1 192.3 Z M 480.1 182.6 "></path></clipPath><g clip-path="url(#clip0x600000eb1640)"><path d="M 481.9 896.4 L 1432.7 896.4 " fill="none" stroke="#FEFFFF" stroke-width="7.72" transform="matrix(1.00, 0.00, 0.00, -1.00, -0.9, 1083.9)"></path></g></g></g></svg>