<?xml version="1.0" encoding="UTF-8" standalone="no"?><svg xmlns="http://www.w3.org/2000/svg" xmlns:xlink="http://www.w3.org/1999/xlink" clip-rule="evenodd" stroke-miterlimit="10" viewBox="0 0 1920 1080"><desc>SVG generated by Keynote</desc><defs></defs><g transform="matrix(1.00, 0.00, -0.00, -1.00, 0.0, 1080.0)"><path d="M 0.0 1080.0 L 1920.0 1080.0 L 1920.0 0.0 L 0.0 0.0 Z M 0.0 1080.0 " fill="#000000"></path><text xml:space="preserve" font-family="Impact,Impact" font-weight="bold" font-size="106.0" fill="#FEFFFF" transform="matrix(1.00, 0.00, -0.00, -1.00, 138.9, 820.6)">R</text><text xml:space="preserve" font-family="Impact,Impact" font-weight="bold" font-size="106.0" fill="#FEFFFF" transform="matrix(1.00, 0.00, -0.00, -1.00, 195.9, 820.6)">A</text><text xml:space="preserve" font-family="Impact,Impact" font-weight="bold" font-size="106.0" fill="#FEFFFF" transform="matrix(1.00, 0.00, -0.00, -1.00, 249.7, 820.6)">F</text><text xml:space="preserve" font-family="Impact,Impact" font-weight="bold" font-size="106.0" fill="#FEFFFF" transform="matrix(1.00, 0.00, -0.00, -1.00, 291.9, 820.6)">T</text><text xml:space="preserve" font-family="Impact,Impact" font-weight="bold" font-size="106.0" fill="#FEFFFF" transform="matrix(1.00, 0.00, -0.00, -1.00, 340.7, 820.6)"> </text><text xml:space="preserve" font-family="Impact,Impact" font-weight="bold" font-size="106.0" fill="#FEFFFF" transform="matrix(1.00, 0.00, -0.00, -1.00, 359.5, 820.6)">I</text><text xml:space="preserve" font-family="Impact,Impact" font-weight="bold" font-size="106.0" fill="#FEFFFF" transform="matrix(1.00, 0.00, -0.00, -1.00, 390.0, 820.6)">S</text><text xml:space="preserve" font-family="Impact,Impact" font-weight="bold" font-size="106.0" fill="#FEFFFF" transform="matrix(1.00, 0.00, -0.00, -1.00, 444.8, 820.6)"> </text><text xml:space="preserve" font-family="Impact,Impact" font-weight="bold" font-size="106.0" fill="#FEFFFF" transform="matrix(1.00, 0.00, -0.00, -1.00, 463.5, 820.6)">A</text><text xml:space="preserve" font-family="Impact,Impact" font-weight="bold" font-size="106.0" fill="#FEFFFF" transform="matrix(1.00, 0.00, -0.00, -1.00, 517.3, 820.6)"> </text><text xml:space="preserve" font-family="Impact,Impact" font-weight="bold" font-size="106.0" fill="#FEFFFF" transform="matrix(1.00, 0.00, -0.00, -1.00, 536.1, 820.6)">S</text><text xml:space="preserve" font-family="Impact,Impact" font-weight="bold" font-size="106.0" fill="#FEFFFF" transform="matrix(1.00, 0.00, -0.00, -1.00, 590.9, 820.6)">I</text><text xml:space="preserve" font-family="Impact,Impact" font-weight="bold" font-size="106.0" fill="#FEFFFF" transform="matrix(1.00, 0.00, -0.00, -1.00, 621.4, 820.6)">M</text><text xml:space="preserve" font-family="Impact,Impact" font-weight="bold" font-size="106.0" fill="#FEFFFF" transform="matrix(1.00, 0.00, -0.00, -1.00, 697.4, 820.6)">P</text><text xml:space="preserve" font-family="Impact,Impact" font-weight="bold" font-size="106.0" fill="#FEFFFF" transform="matrix(1.00, 0.00, -0.00, -1.00, 750.6, 820.6)">L</text><text xml:space="preserve" font-family="Impact,Impact" font-weight="bold" font-size="106.0" fill="#FEFFFF" transform="matrix(1.00, 0.00, -0.00, -1.00, 791.0, 820.6)">I</text><text xml:space="preserve" font-family="Impact,Impact" font-weight="bold" font-size="106.0" fill="#FEFFFF" transform="matrix(1.00, 0.00, -0.00, -1.00, 821.5, 820.6)">F</text><text xml:space="preserve" font-family="Impact,Impact" font-weight="bold" font-size="106.0" fill="#FEFFFF" transform="matrix(1.00, 0.00, -0.00, -1.00, 863.7, 820.6)">I</text><text xml:space="preserve" font-family="Impact,Impact" font-weight="bold" font-size="106.0" fill="#FEFFFF" transform="matrix(1.00, 0.00, -0.00, -1.00, 894.2, 820.6)">E</text><text xml:space="preserve" font-family="Impact,Impact" font-weight="bold" font-size="106.0" fill="#FEFFFF" transform="matrix(1.00, 0.00, -0.00, -1.00, 938.2, 820.6)">D</text><text xml:space="preserve" font-family="Impact,Impact" font-weight="bold" font-size="106.0" fill="#FEFFFF" transform="matrix(1.00, 0.00, -0.00, -1.00, 996.8, 820.6)"> </text><text xml:space="preserve" font-family="Impact,Impact" font-weight="bold" font-size="106.0" fill="#FEFFFF" transform="matrix(1.00, 0.00, -0.00, -1.00, 1015.5, 820.6)">V</text><text xml:space="preserve" font-family="Impact,Impact" font-weight="bold" font-size="106.0" fill="#FEFFFF" transform="matrix(1.00, 0.00, -0.00, -1.00, 1071.0, 820.6)">E</text><text xml:space="preserve" font-family="Impact,Impact" font-weight="bold" font-size="106.0" fill="#FEFFFF" transform="matrix(1.00, 0.00, -0.00, -1.00, 1115.0, 820.6)">R</text><text xml:space="preserve" font-family="Impact,Impact" font-weight="bold" font-size="106.0" fill="#FEFFFF" transform="matrix(1.00, 0.00, -0.00, -1.00, 1172.1, 820.6)">S</text><text xml:space="preserve" font-family="Impact,Impact" font-weight="bold" font-size="106.0" fill="#FEFFFF" transform="matrix(1.00, 0.00, -0.00, -1.00, 1226.9, 820.6)">I</text><text xml:space="preserve" font-family="Impact,Impact" font-weight="bold" font-size="106.0" fill="#FEFFFF" transform="matrix(1.00, 0.00, -0.00, -1.00, 1257.4, 820.6)">O</text><text xml:space="preserve" font-family="Impact,Impact" font-weight="bold" font-size="106.0" fill="#FEFFFF" transform="matrix(1.00, 0.00, -0.00, -1.00, 1315.4, 820.6)">N</text><text xml:space="preserve" font-family="Impact,Impact" font-weight="bold" font-size="106.0" fill="#FEFFFF" transform="matrix(1.00, 0.00, -0.00, -1.00, 1372.7, 820.6)"> </text><text xml:space="preserve" font-family="Impact,Impact" font-weight="bold" font-size="106.0" fill="#FEFFFF" transform="matrix(1.00, 0.00, -0.00, -1.00, 1391.5, 820.6)">O</text><text xml:space="preserve" font-family="Impact,Impact" font-weight="bold" font-size="106.0" fill="#FEFFFF" transform="matrix(1.00, 0.00, -0.00, -1.00, 1449.4, 820.6)">F</text><text xml:space="preserve" font-family="Impact,Impact" font-weight="bold" font-size="106.0" fill="#FEFFFF" transform="matrix(1.00, 0.00, -0.00, -1.00, 1491.6, 820.6)"> </text><text xml:space="preserve" font-family="Impact,Impact" font-weight="bold" font-size="106.0" fill="#FEFFFF" transform="matrix(1.00, 0.00, -0.00, -1.00, 1510.3, 820.6)">P</text><text xml:space="preserve" font-family="Impact,Impact" font-weight="bold" font-size="106.0" fill="#FEFFFF" transform="matrix(1.00, 0.00, -0.00, -1.00, 1560.9, 820.6)">A</text><text xml:space="preserve" font-family="Impact,Impact" font-weight="bold" font-size="106.0" fill="#FEFFFF" transform="matrix(1.00, 0.00, -0.00, -1.00, 1617.3, 820.6)">X</text><text xml:space="preserve" font-family="Impact,Impact" font-weight="bold" font-size="106.0" fill="#FEFFFF" transform="matrix(1.00, 0.00, -0.00, -1.00, 1668.5, 820.6)">O</text><text xml:space="preserve" font-family="Impact,Impact" font-weight="bold" font-size="106.0" fill="#FEFFFF" transform="matrix(1.00, 0.00, -0.00, -1.00, 1726.5, 820.6)">S</text><text xml:space="preserve" font-family="Impact,Impact" font-weight="bold" font-size="106.0" fill="#FEFFFF" transform="matrix(1.00, 0.00, -0.00, -1.00, 1781.3, 820.6)"> </text><text xml:space="preserve" font-family="Impact,Impact" font-weight="bold" font-size="106.0" fill="#FEFFFF" transform="matrix(1.00, 0.00, -0.00, -1.00, 402.2, 562.6)">W</text><text xml:space="preserve" font-family="Impact,Impact" font-weight="bold" font-size="106.0" fill="#FEFFFF" transform="matrix(1.00, 0.00, -0.00, -1.00, 488.5, 562.6)">I</text><text xml:space="preserve" font-family="Impact,Impact" font-weight="bold" font-size="106.0" fill="#FEFFFF" transform="matrix(1.00, 0.00, -0.00, -1.00, 519.1, 562.6)">T</text><text xml:space="preserve" font-family="Impact,Impact" font-weight="bold" font-size="106.0" fill="#FEFFFF" transform="matrix(1.00, 0.00, -0.00, -1.00, 567.9, 562.6)">H</text><text xml:space="preserve" font-family="Impact,Impact" font-weight="bold" font-size="106.0" fill="#FEFFFF" transform="matrix(1.00, 0.00, -0.00, -1.00, 626.8, 562.6)"> </text><text xml:space="preserve" font-family="Impact,Impact" font-weight="bold" font-size="106.0" fill="#FEFFFF" transform="matrix(1.00, 0.00, -0.00, -1.00, 645.5, 562.6)">S</text><text xml:space="preserve" font-family="Impact,Impact" font-weight="bold" font-size="106.0" fill="#FEFFFF" transform="matrix(1.00, 0.00, -0.00, -1.00, 700.3, 562.6)">O</text><text xml:space="preserve" font-family="Impact,Impact" font-weight="bold" font-size="106.0" fill="#FEFFFF" transform="matrix(1.00, 0.00, -0.00, -1.00, 758.3, 562.6)">M</text><text xml:space="preserve" font-family="Impact,Impact" font-weight="bold" font-size="106.0" fill="#FEFFFF" transform="matrix(1.00, 0.00, -0.00, -1.00, 834.3, 562.6)">E</text><text xml:space="preserve" font-family="Impact,Impact" font-weight="bold" font-size="106.0" fill="#FEFFFF" transform="matrix(1.00, 0.00, -0.00, -1.00, 878.3, 562.6)"> </text><text xml:space="preserve" font-family="Impact,Impact" font-weight="bold" font-size="106.0" fill="#FEFFFF" transform="matrix(1.00, 0.00, -0.00, -1.00, 897.0, 562.6)">C</text><text xml:space="preserve" font-family="Impact,Impact" font-weight="bold" font-size="106.0" fill="#FEFFFF" transform="matrix(1.00, 0.00, -0.00, -1.00, 955.6, 562.6)">O</text><text xml:space="preserve" font-family="Impact,Impact" font-weight="bold" font-size="106.0" fill="#FEFFFF" transform="matrix(1.00, 0.00, -0.00, -1.00, 1013.6, 562.6)">M</text><text xml:space="preserve" font-family="Impact,Impact" font-weight="bold" font-size="106.0" fill="#FEFFFF" transform="matrix(1.00, 0.00, -0.00, -1.00, 1089.6, 562.6)">P</text><text xml:space="preserve" font-family="Impact,Impact" font-weight="bold" font-size="106.0" fill="#FEFFFF" transform="matrix(1.00, 0.00, -0.00, -1.00, 1142.8, 562.6)">R</text><text xml:space="preserve" font-family="Impact,Impact" font-weight="bold" font-size="106.0" fill="#FEFFFF" transform="matrix(1.00, 0.00, -0.00, -1.00, 1199.8, 562.6)">O</text><text xml:space="preserve" font-family="Impact,Impact" font-weight="bold" font-size="106.0" fill="#FEFFFF" transform="matrix(1.00, 0.00, -0.00, -1.00, 1257.8, 562.6)">M</text><text xml:space="preserve" font-family="Impact,Impact" font-weight="bold" font-size="106.0" fill="#FEFFFF" transform="matrix(1.00, 0.00, -0.00, -1.00, 1333.7, 562.6)">I</text><text xml:space="preserve" font-family="Impact,Impact" font-weight="bold" font-size="106.0" fill="#FEFFFF" transform="matrix(1.00, 0.00, -0.00, -1.00, 1364.3, 562.6)">S</text><text xml:space="preserve" font-family="Impact,Impact" font-weight="bold" font-size="106.0" fill="#FEFFFF" transform="matrix(1.00, 0.00, -0.00, -1.00, 1419.1, 562.6)">E</text><text xml:space="preserve" font-family="Impact,Impact" font-weight="bold" font-size="106.0" fill="#FEFFFF" transform="matrix(1.00, 0.00, -0.00, -1.00, 1463.1, 562.6)">S</text><text xml:space="preserve" font-family="Impact,Impact" font-weight="bold" font-size="106.0" fill="#FEFFFF" transform="matrix(1.00, 0.00, -0.00, -1.00, 1517.9, 562.6)"> </text><text xml:space="preserve" font-family="Impact,Impact" font-weight="bold" font-size="106.0" fill="#FEFFFF" transform="matrix(1.00, 0.00, -0.00, -1.00, 248.3, 433.6)">O</text><text xml:space="preserve" font-family="Impact,Impact" font-weight="bold" font-size="106.0" fill="#FEFFFF" transform="matrix(1.00, 0.00, -0.00, -1.00, 306.2, 433.6)">N</text><text xml:space="preserve" font-family="Impact,Impact" font-weight="bold" font-size="106.0" fill="#FEFFFF" transform="matrix(1.00, 0.00, -0.00, -1.00, 363.6, 433.6)">E</text><text xml:space="preserve" font-family="Impact,Impact" font-weight="bold" font-size="106.0" fill="#FEFFFF" transform="matrix(1.00, 0.00, -0.00, -1.00, 407.6, 433.6)"> </text><text xml:space="preserve" font-family="Impact,Impact" font-weight="bold" font-size="106.0" fill="#FEFFFF" transform="matrix(1.00, 0.00, -0.00, -1.00, 426.3, 433.6)">S</text><text xml:space="preserve" font-family="Impact,Impact" font-weight="bold" font-size="106.0" fill="#FEFFFF" transform="matrix(1.00, 0.00, -0.00, -1.00, 481.1, 433.6)">T</text><text xml:space="preserve" font-family="Impact,Impact" font-weight="bold" font-size="106.0" fill="#FEFFFF" transform="matrix(1.00, 0.00, -0.00, -1.00, 529.9, 433.6)">R</text><text xml:space="preserve" font-family="Impact,Impact" font-weight="bold" font-size="106.0" fill="#FEFFFF" transform="matrix(1.00, 0.00, -0.00, -1.00, 587.0, 433.6)">O</text><text xml:space="preserve" font-family="Impact,Impact" font-weight="bold" font-size="106.0" fill="#FEFFFF" transform="matrix(1.00, 0.00, -0.00, -1.00, 644.9, 433.6)">N</text><text xml:space="preserve" font-family="Impact,Impact" font-weight="bold" font-size="106.0" fill="#FEFFFF" transform="matrix(1.00, 0.00, -0.00, -1.00, 702.3, 433.6)">G</text><text xml:space="preserve" font-family="Impact,Impact" font-weight="bold" font-size="106.0" fill="#FEFFFF" transform="matrix(1.00, 0.00, -0.00, -1.00, 760.7, 433.6)"> </text><text xml:space="preserve" font-family="Impact,Impact" font-weight="bold" font-size="106.0" fill="#FEFFFF" transform="matrix(1.00, 0.00, -0.00, -1.00, 779.5, 433.6)">L</text><text xml:space="preserve" font-family="Impact,Impact" font-weight="bold" font-size="106.0" fill="#FEFFFF" transform="matrix(1.00, 0.00, -0.00, -1.00, 819.8, 433.6)">E</text><text xml:space="preserve" font-family="Impact,Impact" font-weight="bold" font-size="106.0" fill="#FEFFFF" transform="matrix(1.00, 0.00, -0.00, -1.00, 863.8, 433.6)">A</text><text xml:space="preserve" font-family="Impact,Impact" font-weight="bold" font-size="106.0" fill="#FEFFFF" transform="matrix(1.00, 0.00, -0.00, -1.00, 917.6, 433.6)">D</text><text xml:space="preserve" font-family="Impact,Impact" font-weight="bold" font-size="106.0" fill="#FEFFFF" transform="matrix(1.00, 0.00, -0.00, -1.00, 976.1, 433.6)">E</text><text xml:space="preserve" font-family="Impact,Impact" font-weight="bold" font-size="106.0" fill="#FEFFFF" transform="matrix(1.00, 0.00, -0.00, -1.00, 1020.1, 433.6)">R</text><text xml:space="preserve" font-family="Impact,Impact" font-weight="bold" font-size="106.0" fill="#FEFFFF" transform="matrix(1.00, 0.00, -0.00, -1.00, 1077.1, 433.6)"> </text><text xml:space="preserve" font-family="Impact,Impact" font-weight="bold" font-size="106.0" fill="#FEFFFF" transform="matrix(1.00, 0.00, -0.00, -1.00, 1095.8, 433.6)">A</text><text xml:space="preserve" font-family="Impact,Impact" font-weight="bold" font-size="106.0" fill="#FEFFFF" transform="matrix(1.00, 0.00, -0.00, -1.00, 1143.8, 433.6)">T</text><text xml:space="preserve" font-family="Impact,Impact" font-weight="bold" font-size="106.0" fill="#FEFFFF" transform="matrix(1.00, 0.00, -0.00, -1.00, 1192.6, 433.6)"> </text><text xml:space="preserve" font-family="Impact,Impact" font-weight="bold" font-size="106.0" fill="#FEFFFF" transform="matrix(1.00, 0.00, -0.00, -1.00, 1211.3, 433.6)">E</text><text xml:space="preserve" font-family="Impact,Impact" font-weight="bold" font-size="106.0" fill="#FEFFFF" transform="matrix(1.00, 0.00, -0.00, -1.00, 1255.3, 433.6)">A</text><text xml:space="preserve" font-family="Impact,Impact" font-weight="bold" font-size="106.0" fill="#FEFFFF" transform="matrix(1.00, 0.00, -0.00, -1.00, 1309.0, 433.6)">C</text><text xml:space="preserve" font-family="Impact,Impact" font-weight="bold" font-size="106.0" fill="#FEFFFF" transform="matrix(1.00, 0.00, -0.00, -1.00, 1367.7, 433.6)">H</text><text xml:space="preserve" font-family="Impact,Impact" font-weight="bold" font-size="106.0" fill="#FEFFFF" transform="matrix(1.00, 0.00, -0.00, -1.00, 1426.6, 433.6)"> </text><text xml:space="preserve" font-family="Impact,Impact" font-weight="bold" font-size="106.0" fill="#FEFFFF" transform="matrix(1.00, 0.00, -0.00, -1.00, 1445.3, 433.6)">T</text><text xml:space="preserve" font-family="Impact,Impact" font-weight="bold" font-size="106.0" fill="#FEFFFF" transform="matrix(1.00, 0.00, -0.00, -1.00, 1494.1, 433.6)">E</text><text xml:space="preserve" font-family="Impact,Impact" font-weight="bold" font-size="106.0" fill="#FEFFFF" transform="matrix(1.00, 0.00, -0.00, -1.00, 1538.1, 433.6)">R</text><text xml:space="preserve" font-family="Impact,Impact" font-weight="bold" font-size="106.0" fill="#FEFFFF" transform="matrix(1.00, 0.00, -0.00, -1.00, 1595.1, 433.6)">M</text><text xml:space="preserve" font-family="Impact,Impact" font-weight="bold" font-size="106.0" fill="#FEFFFF" transform="matrix(1.00, 0.00, -0.00, -1.00, 1671.0, 433.6)"> </text><text xml:space="preserve" font-family="Impact,Impact" font-weight="bold" font-size="106.0" fill="#FEFFFF" transform="matrix(1.00, 0.00, -0.00, -1.00, 48.7, 304.6)">A</text><text xml:space="preserve" font-family="Impact,Impact" font-weight="bold" font-size="106.0" fill="#FEFFFF" transform="matrix(1.00, 0.00, -0.00, -1.00, 102.5, 304.6)"> </text><text xml:space="preserve" font-family="Impact,Impact" font-weight="bold" font-size="106.0" fill="#FEFFFF" transform="matrix(1.00, 0.00, -0.00, -1.00, 121.2, 304.6)">L</text><text xml:space="preserve" font-family="Impact,Impact" font-weight="bold" font-size="106.0" fill="#FEFFFF" transform="matrix(1.00, 0.00, -0.00, -1.00, 161.6, 304.6)">E</text><text xml:space="preserve" font-family="Impact,Impact" font-weight="bold" font-size="106.0" fill="#FEFFFF" transform="matrix(1.00, 0.00, -0.00, -1.00, 205.6, 304.6)">A</text><text xml:space="preserve" font-family="Impact,Impact" font-weight="bold" font-size="106.0" fill="#FEFFFF" transform="matrix(1.00, 0.00, -0.00, -1.00, 259.4, 304.6)">D</text><text xml:space="preserve" font-family="Impact,Impact" font-weight="bold" font-size="106.0" fill="#FEFFFF" transform="matrix(1.00, 0.00, -0.00, -1.00, 317.9, 304.6)">E</text><text xml:space="preserve" font-family="Impact,Impact" font-weight="bold" font-size="106.0" fill="#FEFFFF" transform="matrix(1.00, 0.00, -0.00, -1.00, 361.9, 304.6)">R</text><text xml:space="preserve" font-family="Impact,Impact" font-weight="bold" font-size="106.0" fill="#FEFFFF" transform="matrix(1.00, 0.00, -0.00, -1.00, 419.0, 304.6)"> </text><text xml:space="preserve" font-family="Impact,Impact" font-weight="bold" font-size="106.0" fill="#FEFFFF" transform="matrix(1.00, 0.00, -0.00, -1.00, 437.7, 304.6)">I</text><text xml:space="preserve" font-family="Impact,Impact" font-weight="bold" font-size="106.0" fill="#FEFFFF" transform="matrix(1.00, 0.00, -0.00, -1.00, 468.2, 304.6)">S</text><text xml:space="preserve" font-family="Impact,Impact" font-weight="bold" font-size="106.0" fill="#FEFFFF" transform="matrix(1.00, 0.00, -0.00, -1.00, 523.0, 304.6)"> </text><text xml:space="preserve" font-family="Impact,Impact" font-weight="bold" font-size="106.0" fill="#FEFFFF" transform="matrix(1.00, 0.00, -0.00, -1.00, 541.8, 304.6)">V</text><text xml:space="preserve" font-family="Impact,Impact" font-weight="bold" font-size="106.0" fill="#FEFFFF" transform="matrix(1.00, 0.00, -0.00, -1.00, 597.3, 304.6)">O</text><text xml:space="preserve" font-family="Impact,Impact" font-weight="bold" font-size="106.0" fill="#FEFFFF" transform="matrix(1.00, 0.00, -0.00, -1.00, 655.2, 304.6)">T</text><text xml:space="preserve" font-family="Impact,Impact" font-weight="bold" font-size="106.0" fill="#FEFFFF" transform="matrix(1.00, 0.00, -0.00, -1.00, 704.1, 304.6)">E</text><text xml:space="preserve" font-family="Impact,Impact" font-weight="bold" font-size="106.0" fill="#FEFFFF" transform="matrix(1.00, 0.00, -0.00, -1.00, 748.1, 304.6)">D</text><text xml:space="preserve" font-family="Impact,Impact" font-weight="bold" font-size="106.0" fill="#FEFFFF" transform="matrix(1.00, 0.00, -0.00, -1.00, 806.6, 304.6)"> </text><text xml:space="preserve" font-family="Impact,Impact" font-weight="bold" font-size="106.0" fill="#FEFFFF" transform="matrix(1.00, 0.00, -0.00, -1.00, 825.4, 304.6)">U</text><text xml:space="preserve" font-family="Impact,Impact" font-weight="bold" font-size="106.0" fill="#FEFFFF" transform="matrix(1.00, 0.00, -0.00, -1.00, 883.3, 304.6)">P</text><text xml:space="preserve" font-family="Impact,Impact" font-weight="bold" font-size="106.0" fill="#FEFFFF" transform="matrix(1.00, 0.00, -0.00, -1.00, 936.5, 304.6)">O</text><text xml:space="preserve" font-family="Impact,Impact" font-weight="bold" font-size="106.0" fill="#FEFFFF" transform="matrix(1.00, 0.00, -0.00, -1.00, 994.5, 304.6)">N</text><text xml:space="preserve" font-family="Impact,Impact" font-weight="bold" font-size="106.0" fill="#FEFFFF" transform="matrix(1.00, 0.00, -0.00, -1.00, 1051.8, 304.6)"> </text><text xml:space="preserve" font-family="Impact,Impact" font-weight="bold" font-size="106.0" fill="#FEFFFF" transform="matrix(1.00, 0.00, -0.00, -1.00, 1070.5, 304.6)">W</text><text xml:space="preserve" font-family="Impact,Impact" font-weight="bold" font-size="106.0" fill="#FEFFFF" transform="matrix(1.00, 0.00, -0.00, -1.00, 1156.9, 304.6)">H</text><text xml:space="preserve" font-family="Impact,Impact" font-weight="bold" font-size="106.0" fill="#FEFFFF" transform="matrix(1.00, 0.00, -0.00, -1.00, 1215.8, 304.6)">E</text><text xml:space="preserve" font-family="Impact,Impact" font-weight="bold" font-size="106.0" fill="#FEFFFF" transform="matrix(1.00, 0.00, -0.00, -1.00, 1259.8, 304.6)">N</text><text xml:space="preserve" font-family="Impact,Impact" font-weight="bold" font-size="106.0" fill="#FEFFFF" transform="matrix(1.00, 0.00, -0.00, -1.00, 1317.1, 304.6)"> </text><text xml:space="preserve" font-family="Impact,Impact" font-weight="bold" font-size="106.0" fill="#FEFFFF" transform="matrix(1.00, 0.00, -0.00, -1.00, 1335.9, 304.6)">L</text><text xml:space="preserve" font-family="Impact,Impact" font-weight="bold" font-size="106.0" fill="#FEFFFF" transform="matrix(1.00, 0.00, -0.00, -1.00, 1376.2, 304.6)">E</text><text xml:space="preserve" font-family="Impact,Impact" font-weight="bold" font-size="106.0" fill="#FEFFFF" transform="matrix(1.00, 0.00, -0.00, -1.00, 1420.2, 304.6)">A</text><text xml:space="preserve" font-family="Impact,Impact" font-weight="bold" font-size="106.0" fill="#FEFFFF" transform="matrix(1.00, 0.00, -0.00, -1.00, 1474.0, 304.6)">D</text><text xml:space="preserve" font-family="Impact,Impact" font-weight="bold" font-size="106.0" fill="#FEFFFF" transform="matrix(1.00, 0.00, -0.00, -1.00, 1532.6, 304.6)">E</text><text xml:space="preserve" font-family="Impact,Impact" font-weight="bold" font-size="106.0" fill="#FEFFFF" transform="matrix(1.00, 0.00, -0.00, -1.00, 1576.6, 304.6)">R</text><text xml:space="preserve" font-family="Impact,Impact" font-weight="bold" font-size="106.0" fill="#FEFFFF" transform="matrix(1.00, 0.00, -0.00, -1.00, 1633.6, 304.6)"> </text><text xml:space="preserve" font-family="Impact,Impact" font-weight="bold" font-size="106.0" fill="#FEFFFF" transform="matrix(1.00, 0.00, -0.00, -1.00, 1652.3, 304.6)">F</text><text xml:space="preserve" font-family="Impact,Impact" font-weight="bold" font-size="106.0" fill="#FEFFFF" transform="matrix(1.00, 0.00, -0.00, -1.00, 1692.4, 304.6)">A</text><text xml:space="preserve" font-family="Impact,Impact" font-weight="bold" font-size="106.0" fill="#FEFFFF" transform="matrix(1.00, 0.00, -0.00, -1.00, 1746.2, 304.6)">I</text><text xml:space="preserve" font-family="Impact,Impact" font-weight="bold" font-size="106.0" fill="#FEFFFF" transform="matrix(1.00, 0.00, -0.00, -1.00, 1776.7, 304.6)">L</text><text xml:space="preserve" font-family="Impact,Impact" font-weight="bold" font-size="106.0" fill="#FEFFFF" transform="matrix(1.00, 0.00, -0.00, -1.00, 1816.4, 304.6)">S</text><text xml:space="preserve" font-family="Impact,Impact" font-weight="bold" font-size="106.0" fill="#FEFFFF" transform="matrix(1.00, 0.00, -0.00, -1.00, 1871.2, 304.6)"> </text><text xml:space="preserve" font-family="Impact,Impact" font-weight="bold" font-size="106.0" fill="#FEFFFF" transform="matrix(1.00, 0.00, -0.00, -1.00, 472.4, 175.6)">F</text><text xml:space="preserve" font-family="Impact,Impact" font-weight="bold" font-size="106.0" fill="#FEFFFF" transform="matrix(1.00, 0.00, -0.00, -1.00, 514.5, 175.6)">O</text><text xml:space="preserve" font-family="Impact,Impact" font-weight="bold" font-size="106.0" fill="#FEFFFF" transform="matrix(1.00, 0.00, -0.00, -1.00, 572.5, 175.6)">L</text><text xml:space="preserve" font-family="Impact,Impact" font-weight="bold" font-size="106.0" fill="#FEFFFF" transform="matrix(1.00, 0.00, -0.00, -1.00, 613.0, 175.6)">L</text><text xml:space="preserve" font-family="Impact,Impact" font-weight="bold" font-size="106.0" fill="#FEFFFF" transform="matrix(1.00, 0.00, -0.00, -1.00, 651.7, 175.6)">O</text><text xml:space="preserve" font-family="Impact,Impact" font-weight="bold" font-size="106.0" fill="#FEFFFF" transform="matrix(1.00, 0.00, -0.00, -1.00, 709.7, 175.6)">W</text><text xml:space="preserve" font-family="Impact,Impact" font-weight="bold" font-size="106.0" fill="#FEFFFF" transform="matrix(1.00, 0.00, -0.00, -1.00, 796.1, 175.6)">E</text><text xml:space="preserve" font-family="Impact,Impact" font-weight="bold" font-size="106.0" fill="#FEFFFF" transform="matrix(1.00, 0.00, -0.00, -1.00, 840.2, 175.6)">R</text><text xml:space="preserve" font-family="Impact,Impact" font-weight="bold" font-size="106.0" fill="#FEFFFF" transform="matrix(1.00, 0.00, -0.00, -1.00, 897.2, 175.6)">S</text><text xml:space="preserve" font-family="Impact,Impact" font-weight="bold" font-size="106.0" fill="#FEFFFF" transform="matrix(1.00, 0.00, -0.00, -1.00, 952.0, 175.6)"> </text><text xml:space="preserve" font-family="Impact,Impact" font-weight="bold" font-size="106.0" fill="#FEFFFF" transform="matrix(1.00, 0.00, -0.00, -1.00, 970.7, 175.6)">A</text><text xml:space="preserve" font-family="Impact,Impact" font-weight="bold" font-size="106.0" fill="#FEFFFF" transform="matrix(1.00, 0.00, -0.00, -1.00, 1024.5, 175.6)">R</text><text xml:space="preserve" font-family="Impact,Impact" font-weight="bold" font-size="106.0" fill="#FEFFFF" transform="matrix(1.00, 0.00, -0.00, -1.00, 1081.6, 175.6)">E</text><text xml:space="preserve" font-family="Impact,Impact" font-weight="bold" font-size="106.0" fill="#FEFFFF" transform="matrix(1.00, 0.00, -0.00, -1.00, 1125.6, 175.6)"> </text><text xml:space="preserve" font-family="Impact,Impact" font-weight="bold" font-size="106.0" fill="#FEFFFF" transform="matrix(1.00, 0.00, -0.00, -1.00, 1144.3, 175.6)">S</text><text xml:space="preserve" font-family="Impact,Impact" font-weight="bold" font-size="106.0" fill="#FEFFFF" transform="matrix(1.00, 0.00, -0.00, -1.00, 1199.1, 175.6)">L</text><text xml:space="preserve" font-family="Impact,Impact" font-weight="bold" font-size="106.0" fill="#FEFFFF" transform="matrix(1.00, 0.00, -0.00, -1.00, 1242.1, 175.6)">A</text><text xml:space="preserve" font-family="Impact,Impact" font-weight="bold" font-size="106.0" fill="#FEFFFF" transform="matrix(1.00, 0.00, -0.00, -1.00, 1293.6, 175.6)">V</text><text xml:space="preserve" font-family="Impact,Impact" font-weight="bold" font-size="106.0" fill="#FEFFFF" transform="matrix(1.00, 0.00, -0.00, -1.00, 1349.1, 175.6)">E</text><text xml:space="preserve" font-family="Impact,Impact" font-weight="bold" font-size="106.0" fill="#FEFFFF" transform="matrix(1.00, 0.00, -0.00, -1.00, 1393.2, 175.6)">S</text></g></svg>