<?xml version="1.0" encoding="UTF-8" standalone="no"?><svg xmlns="http://www.w3.org/2000/svg" xmlns:xlink="http://www.w3.org/1999/xlink" clip-rule="evenodd" stroke-miterlimit="10" viewBox="0 0 1920 1080"><desc>SVG generated by Keynote</desc><defs></defs><g transform="matrix(1.00, 0.00, -0.00, -1.00, 0.0, 1080.0)"><path d="M 0.0 1080.0 L 1920.0 1080.0 L 1920.0 0.0 L 0.0 0.0 Z M 0.0 1080.0 " fill="#000000"></path><text xml:space="preserve" font-family="Impact,Impact" font-weight="bold" font-size="98.0" fill="#FEFFFF" transform="matrix(1.00, 0.00, -0.00, -1.00, 31.5, 934.2)">B</text><text xml:space="preserve" font-family="Impact,Impact" font-weight="bold" font-size="98.0" fill="#FEFFFF" transform="matrix(1.00, 0.00, -0.00, -1.00, 85.7, 934.2)">U</text><text xml:space="preserve" font-family="Impact,Impact" font-weight="bold" font-size="98.0" fill="#FEFFFF" transform="matrix(1.00, 0.00, -0.00, -1.00, 139.2, 934.2)">T</text><text xml:space="preserve" font-family="Impact,Impact" font-weight="bold" font-size="98.0" fill="#FEFFFF" transform="matrix(1.00, 0.00, -0.00, -1.00, 176.3, 934.2)">,</text><text xml:space="preserve" font-family="Impact,Impact" font-weight="bold" font-size="98.0" fill="#FEFFFF" transform="matrix(1.00, 0.00, -0.00, -1.00, 192.7, 934.2)"> </text><text xml:space="preserve" font-family="Impact,Impact" font-weight="bold" font-size="98.0" fill="#FEFFFF" transform="matrix(1.00, 0.00, -0.00, -1.00, 210.0, 934.2)">B</text><text xml:space="preserve" font-family="Impact,Impact" font-weight="bold" font-size="98.0" fill="#FEFFFF" transform="matrix(1.00, 0.00, -0.00, -1.00, 264.2, 934.2)">A</text><text xml:space="preserve" font-family="Impact,Impact" font-weight="bold" font-size="98.0" fill="#FEFFFF" transform="matrix(1.00, 0.00, -0.00, -1.00, 313.9, 934.2)">C</text><text xml:space="preserve" font-family="Impact,Impact" font-weight="bold" font-size="98.0" fill="#FEFFFF" transform="matrix(1.00, 0.00, -0.00, -1.00, 368.1, 934.2)">K</text><text xml:space="preserve" font-family="Impact,Impact" font-weight="bold" font-size="98.0" fill="#FEFFFF" transform="matrix(1.00, 0.00, -0.00, -1.00, 420.7, 934.2)"> </text><text xml:space="preserve" font-family="Impact,Impact" font-weight="bold" font-size="98.0" fill="#FEFFFF" transform="matrix(1.00, 0.00, -0.00, -1.00, 438.0, 934.2)">T</text><text xml:space="preserve" font-family="Impact,Impact" font-weight="bold" font-size="98.0" fill="#FEFFFF" transform="matrix(1.00, 0.00, -0.00, -1.00, 483.2, 934.2)">H</text><text xml:space="preserve" font-family="Impact,Impact" font-weight="bold" font-size="98.0" fill="#FEFFFF" transform="matrix(1.00, 0.00, -0.00, -1.00, 537.6, 934.2)">E</text><text xml:space="preserve" font-family="Impact,Impact" font-weight="bold" font-size="98.0" fill="#FEFFFF" transform="matrix(1.00, 0.00, -0.00, -1.00, 578.3, 934.2)">N</text><text xml:space="preserve" font-family="Impact,Impact" font-weight="bold" font-size="98.0" fill="#FEFFFF" transform="matrix(1.00, 0.00, -0.00, -1.00, 631.3, 934.2)">,</text><text xml:space="preserve" font-family="Impact,Impact" font-weight="bold" font-size="98.0" fill="#FEFFFF" transform="matrix(1.00, 0.00, -0.00, -1.00, 647.7, 934.2)"> </text><text xml:space="preserve" font-family="Impact,Impact" font-weight="bold" font-size="98.0" fill="#FEFFFF" transform="matrix(1.00, 0.00, -0.00, -1.00, 665.0, 934.2)">A</text><text xml:space="preserve" font-family="Impact,Impact" font-weight="bold" font-size="98.0" fill="#FEFFFF" transform="matrix(1.00, 0.00, -0.00, -1.00, 714.8, 934.2)"> </text><text xml:space="preserve" font-family="Impact,Impact" font-weight="bold" font-size="98.0" fill="#FEFFFF" transform="matrix(1.00, 0.00, -0.00, -1.00, 732.1, 934.2)">H</text><text xml:space="preserve" font-family="Impact,Impact" font-weight="bold" font-size="98.0" fill="#FEFFFF" transform="matrix(1.00, 0.00, -0.00, -1.00, 786.5, 934.2)">A</text><text xml:space="preserve" font-family="Impact,Impact" font-weight="bold" font-size="98.0" fill="#FEFFFF" transform="matrix(1.00, 0.00, -0.00, -1.00, 834.1, 934.2)">V</text><text xml:space="preserve" font-family="Impact,Impact" font-weight="bold" font-size="98.0" fill="#FEFFFF" transform="matrix(1.00, 0.00, -0.00, -1.00, 885.4, 934.2)">I</text><text xml:space="preserve" font-family="Impact,Impact" font-weight="bold" font-size="98.0" fill="#FEFFFF" transform="matrix(1.00, 0.00, -0.00, -1.00, 913.7, 934.2)">N</text><text xml:space="preserve" font-family="Impact,Impact" font-weight="bold" font-size="98.0" fill="#FEFFFF" transform="matrix(1.00, 0.00, -0.00, -1.00, 966.7, 934.2)">G</text><text xml:space="preserve" font-family="Impact,Impact" font-weight="bold" font-size="98.0" fill="#FEFFFF" transform="matrix(1.00, 0.00, -0.00, -1.00, 1020.8, 934.2)"> </text><text xml:space="preserve" font-family="Impact,Impact" font-weight="bold" font-size="98.0" fill="#FEFFFF" transform="matrix(1.00, 0.00, -0.00, -1.00, 71.1, 814.2)">A</text><text xml:space="preserve" font-family="Impact,Impact" font-weight="bold" font-size="98.0" fill="#FEFFFF" transform="matrix(1.00, 0.00, -0.00, -1.00, 120.9, 814.2)"> </text><text xml:space="preserve" font-family="Impact,Impact" font-weight="bold" font-size="98.0" fill="#FEFFFF" transform="matrix(1.00, 0.00, -0.00, -1.00, 138.2, 814.2)">D</text><text xml:space="preserve" font-family="Impact,Impact" font-weight="bold" font-size="98.0" fill="#FEFFFF" transform="matrix(1.00, 0.00, -0.00, -1.00, 192.4, 814.2)">I</text><text xml:space="preserve" font-family="Impact,Impact" font-weight="bold" font-size="98.0" fill="#FEFFFF" transform="matrix(1.00, 0.00, -0.00, -1.00, 220.6, 814.2)">S</text><text xml:space="preserve" font-family="Impact,Impact" font-weight="bold" font-size="98.0" fill="#FEFFFF" transform="matrix(1.00, 0.00, -0.00, -1.00, 271.2, 814.2)">T</text><text xml:space="preserve" font-family="Impact,Impact" font-weight="bold" font-size="98.0" fill="#FEFFFF" transform="matrix(1.00, 0.00, -0.00, -1.00, 316.4, 814.2)">R</text><text xml:space="preserve" font-family="Impact,Impact" font-weight="bold" font-size="98.0" fill="#FEFFFF" transform="matrix(1.00, 0.00, -0.00, -1.00, 369.2, 814.2)">I</text><text xml:space="preserve" font-family="Impact,Impact" font-weight="bold" font-size="98.0" fill="#FEFFFF" transform="matrix(1.00, 0.00, -0.00, -1.00, 397.4, 814.2)">B</text><text xml:space="preserve" font-family="Impact,Impact" font-weight="bold" font-size="98.0" fill="#FEFFFF" transform="matrix(1.00, 0.00, -0.00, -1.00, 451.5, 814.2)">U</text><text xml:space="preserve" font-family="Impact,Impact" font-weight="bold" font-size="98.0" fill="#FEFFFF" transform="matrix(1.00, 0.00, -0.00, -1.00, 505.0, 814.2)">T</text><text xml:space="preserve" font-family="Impact,Impact" font-weight="bold" font-size="98.0" fill="#FEFFFF" transform="matrix(1.00, 0.00, -0.00, -1.00, 550.2, 814.2)">E</text><text xml:space="preserve" font-family="Impact,Impact" font-weight="bold" font-size="98.0" fill="#FEFFFF" transform="matrix(1.00, 0.00, -0.00, -1.00, 590.9, 814.2)">D</text><text xml:space="preserve" font-family="Impact,Impact" font-weight="bold" font-size="98.0" fill="#FEFFFF" transform="matrix(1.00, 0.00, -0.00, -1.00, 645.1, 814.2)"> </text><text xml:space="preserve" font-family="Impact,Impact" font-weight="bold" font-size="98.0" fill="#FEFFFF" transform="matrix(1.00, 0.00, -0.00, -1.00, 662.4, 814.2)">S</text><text xml:space="preserve" font-family="Impact,Impact" font-weight="bold" font-size="98.0" fill="#FEFFFF" transform="matrix(1.00, 0.00, -0.00, -1.00, 713.1, 814.2)">E</text><text xml:space="preserve" font-family="Impact,Impact" font-weight="bold" font-size="98.0" fill="#FEFFFF" transform="matrix(1.00, 0.00, -0.00, -1.00, 753.8, 814.2)">R</text><text xml:space="preserve" font-family="Impact,Impact" font-weight="bold" font-size="98.0" fill="#FEFFFF" transform="matrix(1.00, 0.00, -0.00, -1.00, 806.5, 814.2)">V</text><text xml:space="preserve" font-family="Impact,Impact" font-weight="bold" font-size="98.0" fill="#FEFFFF" transform="matrix(1.00, 0.00, -0.00, -1.00, 857.9, 814.2)">I</text><text xml:space="preserve" font-family="Impact,Impact" font-weight="bold" font-size="98.0" fill="#FEFFFF" transform="matrix(1.00, 0.00, -0.00, -1.00, 886.1, 814.2)">C</text><text xml:space="preserve" font-family="Impact,Impact" font-weight="bold" font-size="98.0" fill="#FEFFFF" transform="matrix(1.00, 0.00, -0.00, -1.00, 940.4, 814.2)">E</text><text xml:space="preserve" font-family="Impact,Impact" font-weight="bold" font-size="98.0" fill="#FEFFFF" transform="matrix(1.00, 0.00, -0.00, -1.00, 981.1, 814.2)"> </text><text xml:space="preserve" font-family="Impact,Impact" font-weight="bold" font-size="98.0" fill="#FEFFFF" transform="matrix(1.00, 0.00, -0.00, -1.00, 293.5, 694.2)">M</text><text xml:space="preserve" font-family="Impact,Impact" font-weight="bold" font-size="98.0" fill="#FEFFFF" transform="matrix(1.00, 0.00, -0.00, -1.00, 363.7, 694.2)">E</text><text xml:space="preserve" font-family="Impact,Impact" font-weight="bold" font-size="98.0" fill="#FEFFFF" transform="matrix(1.00, 0.00, -0.00, -1.00, 404.4, 694.2)">A</text><text xml:space="preserve" font-family="Impact,Impact" font-weight="bold" font-size="98.0" fill="#FEFFFF" transform="matrix(1.00, 0.00, -0.00, -1.00, 454.1, 694.2)">N</text><text xml:space="preserve" font-family="Impact,Impact" font-weight="bold" font-size="98.0" fill="#FEFFFF" transform="matrix(1.00, 0.00, -0.00, -1.00, 507.2, 694.2)">T</text><text xml:space="preserve" font-family="Impact,Impact" font-weight="bold" font-size="98.0" fill="#FEFFFF" transform="matrix(1.00, 0.00, -0.00, -1.00, 552.3, 694.2)"> </text><text xml:space="preserve" font-family="Impact,Impact" font-weight="bold" font-size="98.0" fill="#FEFFFF" transform="matrix(1.00, 0.00, -0.00, -1.00, 569.7, 694.2)">T</text><text xml:space="preserve" font-family="Impact,Impact" font-weight="bold" font-size="98.0" fill="#FEFFFF" transform="matrix(1.00, 0.00, -0.00, -1.00, 614.9, 694.2)">H</text><text xml:space="preserve" font-family="Impact,Impact" font-weight="bold" font-size="98.0" fill="#FEFFFF" transform="matrix(1.00, 0.00, -0.00, -1.00, 669.2, 694.2)">A</text><text xml:space="preserve" font-family="Impact,Impact" font-weight="bold" font-size="98.0" fill="#FEFFFF" transform="matrix(1.00, 0.00, -0.00, -1.00, 713.6, 694.2)">T</text><text xml:space="preserve" font-family="Impact,Impact" font-weight="bold" font-size="98.0" fill="#FEFFFF" transform="matrix(1.00, 0.00, -0.00, -1.00, 758.8, 694.2)"> </text><text xml:space="preserve" font-family="Impact,Impact" font-weight="bold" font-size="98.0" fill="#FEFFFF" transform="matrix(1.00, 0.00, -0.00, -1.00, 125.6, 574.2)">S</text><text xml:space="preserve" font-family="Impact,Impact" font-weight="bold" font-size="98.0" fill="#FEFFFF" transform="matrix(1.00, 0.00, -0.00, -1.00, 176.3, 574.2)">I</text><text xml:space="preserve" font-family="Impact,Impact" font-weight="bold" font-size="98.0" fill="#FEFFFF" transform="matrix(1.00, 0.00, -0.00, -1.00, 204.5, 574.2)">N</text><text xml:space="preserve" font-family="Impact,Impact" font-weight="bold" font-size="98.0" fill="#FEFFFF" transform="matrix(1.00, 0.00, -0.00, -1.00, 257.5, 574.2)">G</text><text xml:space="preserve" font-family="Impact,Impact" font-weight="bold" font-size="98.0" fill="#FEFFFF" transform="matrix(1.00, 0.00, -0.00, -1.00, 311.5, 574.2)">L</text><text xml:space="preserve" font-family="Impact,Impact" font-weight="bold" font-size="98.0" fill="#FEFFFF" transform="matrix(1.00, 0.00, -0.00, -1.00, 348.8, 574.2)">E</text><text xml:space="preserve" font-family="Impact,Impact" font-weight="bold" font-size="98.0" fill="#FEFFFF" transform="matrix(1.00, 0.00, -0.00, -1.00, 388.2, 574.2)">T</text><text xml:space="preserve" font-family="Impact,Impact" font-weight="bold" font-size="98.0" fill="#FEFFFF" transform="matrix(1.00, 0.00, -0.00, -1.00, 433.4, 574.2)">O</text><text xml:space="preserve" font-family="Impact,Impact" font-weight="bold" font-size="98.0" fill="#FEFFFF" transform="matrix(1.00, 0.00, -0.00, -1.00, 486.9, 574.2)">N</text><text xml:space="preserve" font-family="Impact,Impact" font-weight="bold" font-size="98.0" fill="#FEFFFF" transform="matrix(1.00, 0.00, -0.00, -1.00, 539.9, 574.2)"> </text><text xml:space="preserve" font-family="Impact,Impact" font-weight="bold" font-size="98.0" fill="#FEFFFF" transform="matrix(1.00, 0.00, -0.00, -1.00, 557.2, 574.2)">S</text><text xml:space="preserve" font-family="Impact,Impact" font-weight="bold" font-size="98.0" fill="#FEFFFF" transform="matrix(1.00, 0.00, -0.00, -1.00, 607.9, 574.2)">E</text><text xml:space="preserve" font-family="Impact,Impact" font-weight="bold" font-size="98.0" fill="#FEFFFF" transform="matrix(1.00, 0.00, -0.00, -1.00, 648.5, 574.2)">R</text><text xml:space="preserve" font-family="Impact,Impact" font-weight="bold" font-size="98.0" fill="#FEFFFF" transform="matrix(1.00, 0.00, -0.00, -1.00, 701.2, 574.2)">V</text><text xml:space="preserve" font-family="Impact,Impact" font-weight="bold" font-size="98.0" fill="#FEFFFF" transform="matrix(1.00, 0.00, -0.00, -1.00, 752.5, 574.2)">I</text><text xml:space="preserve" font-family="Impact,Impact" font-weight="bold" font-size="98.0" fill="#FEFFFF" transform="matrix(1.00, 0.00, -0.00, -1.00, 780.7, 574.2)">C</text><text xml:space="preserve" font-family="Impact,Impact" font-weight="bold" font-size="98.0" fill="#FEFFFF" transform="matrix(1.00, 0.00, -0.00, -1.00, 835.0, 574.2)">E</text><text xml:space="preserve" font-family="Impact,Impact" font-weight="bold" font-size="98.0" fill="#FEFFFF" transform="matrix(1.00, 0.00, -0.00, -1.00, 875.6, 574.2)">S</text><text xml:space="preserve" font-family="Impact,Impact" font-weight="bold" font-size="98.0" fill="#FEFFFF" transform="matrix(1.00, 0.00, -0.00, -1.00, 926.3, 574.2)"> </text><g><clipPath id="clip0x7f80bd0a7bb0"><path d="M 0.0 433.7 L 1067.5 433.7 L 1067.5 1078.5 L 0.0 1078.5 Z M 0.0 433.7 "></path></clipPath><g clip-path="url(#clip0x7f80bd0a7bb0)"><text xml:space="preserve" font-family="Impact,Impact" font-weight="bold" font-size="98.0" fill="#FEFFFF" transform="matrix(1.00, 0.00, -0.00, -1.00, 90.1, 454.2)">T</text><text xml:space="preserve" font-family="Impact,Impact" font-weight="bold" font-size="98.0" fill="#FEFFFF" transform="matrix(1.00, 0.00, -0.00, -1.00, 131.3, 454.2)">A</text><text xml:space="preserve" font-family="Impact,Impact" font-weight="bold" font-size="98.0" fill="#FEFFFF" transform="matrix(1.00, 0.00, -0.00, -1.00, 181.1, 454.2)">L</text><text xml:space="preserve" font-family="Impact,Impact" font-weight="bold" font-size="98.0" fill="#FEFFFF" transform="matrix(1.00, 0.00, -0.00, -1.00, 218.5, 454.2)">K</text><text xml:space="preserve" font-family="Impact,Impact" font-weight="bold" font-size="98.0" fill="#FEFFFF" transform="matrix(1.00, 0.00, -0.00, -1.00, 271.0, 454.2)">E</text><text xml:space="preserve" font-family="Impact,Impact" font-weight="bold" font-size="98.0" fill="#FEFFFF" transform="matrix(1.00, 0.00, -0.00, -1.00, 311.8, 454.2)">D</text><text xml:space="preserve" font-family="Impact,Impact" font-weight="bold" font-size="98.0" fill="#FEFFFF" transform="matrix(1.00, 0.00, -0.00, -1.00, 365.9, 454.2)"> </text><text xml:space="preserve" font-family="Impact,Impact" font-weight="bold" font-size="98.0" fill="#FEFFFF" transform="matrix(1.00, 0.00, -0.00, -1.00, 383.2, 454.2)">T</text><text xml:space="preserve" font-family="Impact,Impact" font-weight="bold" font-size="98.0" fill="#FEFFFF" transform="matrix(1.00, 0.00, -0.00, -1.00, 428.3, 454.2)">O</text><text xml:space="preserve" font-family="Impact,Impact" font-weight="bold" font-size="98.0" fill="#FEFFFF" transform="matrix(1.00, 0.00, -0.00, -1.00, 482.0, 454.2)"> </text><text xml:space="preserve" font-family="Impact,Impact" font-weight="bold" font-size="98.0" fill="#FEFFFF" transform="matrix(1.00, 0.00, -0.00, -1.00, 499.2, 454.2)">E</text><text xml:space="preserve" font-family="Impact,Impact" font-weight="bold" font-size="98.0" fill="#FEFFFF" transform="matrix(1.00, 0.00, -0.00, -1.00, 540.0, 454.2)">A</text><text xml:space="preserve" font-family="Impact,Impact" font-weight="bold" font-size="98.0" fill="#FEFFFF" transform="matrix(1.00, 0.00, -0.00, -1.00, 589.7, 454.2)">C</text><text xml:space="preserve" font-family="Impact,Impact" font-weight="bold" font-size="98.0" fill="#FEFFFF" transform="matrix(1.00, 0.00, -0.00, -1.00, 644.0, 454.2)">H</text><text xml:space="preserve" font-family="Impact,Impact" font-weight="bold" font-size="98.0" fill="#FEFFFF" transform="matrix(1.00, 0.00, -0.00, -1.00, 698.4, 454.2)"> </text><text xml:space="preserve" font-family="Impact,Impact" font-weight="bold" font-size="98.0" fill="#FEFFFF" transform="matrix(1.00, 0.00, -0.00, -1.00, 715.6, 454.2)">O</text><text xml:space="preserve" font-family="Impact,Impact" font-weight="bold" font-size="98.0" fill="#FEFFFF" transform="matrix(1.00, 0.00, -0.00, -1.00, 769.3, 454.2)">T</text><text xml:space="preserve" font-family="Impact,Impact" font-weight="bold" font-size="98.0" fill="#FEFFFF" transform="matrix(1.00, 0.00, -0.00, -1.00, 814.4, 454.2)">H</text><text xml:space="preserve" font-family="Impact,Impact" font-weight="bold" font-size="98.0" fill="#FEFFFF" transform="matrix(1.00, 0.00, -0.00, -1.00, 868.8, 454.2)">E</text><text xml:space="preserve" font-family="Impact,Impact" font-weight="bold" font-size="98.0" fill="#FEFFFF" transform="matrix(1.00, 0.00, -0.00, -1.00, 909.5, 454.2)">R</text></g></g><image xlink:href="../../AE10D6E3-0998-4AA1-A858-7C1947A556BC/assets/454504EA92FBE5EFBE2D25289F0E7017.png" width="1920.00" height="1080.00" transform="matrix(0.45, 0.00, -0.00, -0.45, 1077.6, 444.0)"></image></g></svg>