<?xml version="1.0" encoding="UTF-8" standalone="no"?><svg xmlns="http://www.w3.org/2000/svg" xmlns:xlink="http://www.w3.org/1999/xlink" clip-rule="evenodd" stroke-miterlimit="10" viewBox="0 0 1920 1080"><desc>SVG generated by Keynote</desc><defs></defs><g transform="matrix(1.00, 0.00, -0.00, -1.00, 0.0, 1080.0)"><path d="M 0.0 1080.0 L 1920.0 1080.0 L 1920.0 0.0 L 0.0 0.0 Z M 0.0 1080.0 " fill="#000000"></path><text xml:space="preserve" font-family="Impact,Impact" font-weight="bold" font-size="153.0" fill="#FEFFFF" transform="matrix(1.00, 0.00, -0.00, -1.00, 20.3, 917.3)">I</text><text xml:space="preserve" font-family="Impact,Impact" font-weight="bold" font-size="153.0" fill="#FEFFFF" transform="matrix(1.00, 0.00, -0.00, -1.00, 64.4, 917.3)"> </text><text xml:space="preserve" font-family="Impact,Impact" font-weight="bold" font-size="153.0" fill="#FEFFFF" transform="matrix(1.00, 0.00, -0.00, -1.00, 91.4, 917.3)">G</text><text xml:space="preserve" font-family="Impact,Impact" font-weight="bold" font-size="153.0" fill="#FEFFFF" transform="matrix(1.00, 0.00, -0.00, -1.00, 175.8, 917.3)">U</text><text xml:space="preserve" font-family="Impact,Impact" font-weight="bold" font-size="153.0" fill="#FEFFFF" transform="matrix(1.00, 0.00, -0.00, -1.00, 259.4, 917.3)">E</text><text xml:space="preserve" font-family="Impact,Impact" font-weight="bold" font-size="153.0" fill="#FEFFFF" transform="matrix(1.00, 0.00, -0.00, -1.00, 322.9, 917.3)">S</text><text xml:space="preserve" font-family="Impact,Impact" font-weight="bold" font-size="153.0" fill="#FEFFFF" transform="matrix(1.00, 0.00, -0.00, -1.00, 402.1, 917.3)">S</text><text xml:space="preserve" font-family="Impact,Impact" font-weight="bold" font-size="153.0" fill="#FEFFFF" transform="matrix(1.00, 0.00, -0.00, -1.00, 481.2, 917.3)">,</text><text xml:space="preserve" font-family="Impact,Impact" font-weight="bold" font-size="153.0" fill="#FEFFFF" transform="matrix(1.00, 0.00, -0.00, -1.00, 506.9, 917.3)"> </text><text xml:space="preserve" font-family="Impact,Impact" font-weight="bold" font-size="153.0" fill="#FEFFFF" transform="matrix(1.00, 0.00, -0.00, -1.00, 533.9, 917.3)">W</text><text xml:space="preserve" font-family="Impact,Impact" font-weight="bold" font-size="153.0" fill="#FEFFFF" transform="matrix(1.00, 0.00, -0.00, -1.00, 658.6, 917.3)">H</text><text xml:space="preserve" font-family="Impact,Impact" font-weight="bold" font-size="153.0" fill="#FEFFFF" transform="matrix(1.00, 0.00, -0.00, -1.00, 743.6, 917.3)">A</text><text xml:space="preserve" font-family="Impact,Impact" font-weight="bold" font-size="153.0" fill="#FEFFFF" transform="matrix(1.00, 0.00, -0.00, -1.00, 812.8, 917.3)">T</text><text xml:space="preserve" font-family="Impact,Impact" font-weight="bold" font-size="153.0" fill="#FEFFFF" transform="matrix(1.00, 0.00, -0.00, -1.00, 883.3, 917.3)"> </text><text xml:space="preserve" font-family="Impact,Impact" font-weight="bold" font-size="153.0" fill="#FEFFFF" transform="matrix(1.00, 0.00, -0.00, -1.00, 910.3, 917.3)">T</text><text xml:space="preserve" font-family="Impact,Impact" font-weight="bold" font-size="153.0" fill="#FEFFFF" transform="matrix(1.00, 0.00, -0.00, -1.00, 980.8, 917.3)">H</text><text xml:space="preserve" font-family="Impact,Impact" font-weight="bold" font-size="153.0" fill="#FEFFFF" transform="matrix(1.00, 0.00, -0.00, -1.00, 1065.8, 917.3)">E</text><text xml:space="preserve" font-family="Impact,Impact" font-weight="bold" font-size="153.0" fill="#FEFFFF" transform="matrix(1.00, 0.00, -0.00, -1.00, 1129.3, 917.3)">Y</text><text xml:space="preserve" font-family="Impact,Impact" font-weight="bold" font-size="153.0" fill="#FEFFFF" transform="matrix(1.00, 0.00, -0.00, -1.00, 1201.7, 917.3)"> </text><text xml:space="preserve" font-family="Impact,Impact" font-weight="bold" font-size="153.0" fill="#FEFFFF" transform="matrix(1.00, 0.00, -0.00, -1.00, 47.9, 731.3)">N</text><text xml:space="preserve" font-family="Impact,Impact" font-weight="bold" font-size="153.0" fill="#FEFFFF" transform="matrix(1.00, 0.00, -0.00, -1.00, 130.7, 731.3)">O</text><text xml:space="preserve" font-family="Impact,Impact" font-weight="bold" font-size="153.0" fill="#FEFFFF" transform="matrix(1.00, 0.00, -0.00, -1.00, 214.3, 731.3)">W</text><text xml:space="preserve" font-family="Impact,Impact" font-weight="bold" font-size="153.0" fill="#FEFFFF" transform="matrix(1.00, 0.00, -0.00, -1.00, 339.0, 731.3)"> </text><text xml:space="preserve" font-family="Impact,Impact" font-weight="bold" font-size="153.0" fill="#FEFFFF" transform="matrix(1.00, 0.00, -0.00, -1.00, 366.1, 731.3)">C</text><text xml:space="preserve" font-family="Impact,Impact" font-weight="bold" font-size="153.0" fill="#FEFFFF" transform="matrix(1.00, 0.00, -0.00, -1.00, 450.7, 731.3)">A</text><text xml:space="preserve" font-family="Impact,Impact" font-weight="bold" font-size="153.0" fill="#FEFFFF" transform="matrix(1.00, 0.00, -0.00, -1.00, 528.3, 731.3)">L</text><text xml:space="preserve" font-family="Impact,Impact" font-weight="bold" font-size="153.0" fill="#FEFFFF" transform="matrix(1.00, 0.00, -0.00, -1.00, 586.6, 731.3)">L</text><text xml:space="preserve" font-family="Impact,Impact" font-weight="bold" font-size="153.0" fill="#FEFFFF" transform="matrix(1.00, 0.00, -0.00, -1.00, 644.9, 731.3)"> </text><text xml:space="preserve" font-family="Impact,Impact" font-weight="bold" font-size="153.0" fill="#FEFFFF" transform="matrix(1.00, 0.00, -0.00, -1.00, 671.9, 731.3)">“</text><text xml:space="preserve" font-family="Impact,Impact" font-weight="bold" font-size="153.0" fill="#FEFFFF" transform="matrix(1.00, 0.00, -0.00, -1.00, 724.6, 731.3)">M</text><text xml:space="preserve" font-family="Impact,Impact" font-weight="bold" font-size="153.0" fill="#FEFFFF" transform="matrix(1.00, 0.00, -0.00, -1.00, 834.2, 731.3)">I</text><text xml:space="preserve" font-family="Impact,Impact" font-weight="bold" font-size="153.0" fill="#FEFFFF" transform="matrix(1.00, 0.00, -0.00, -1.00, 878.3, 731.3)">C</text><text xml:space="preserve" font-family="Impact,Impact" font-weight="bold" font-size="153.0" fill="#FEFFFF" transform="matrix(1.00, 0.00, -0.00, -1.00, 963.0, 731.3)">R</text><text xml:space="preserve" font-family="Impact,Impact" font-weight="bold" font-size="153.0" fill="#FEFFFF" transform="matrix(1.00, 0.00, -0.00, -1.00, 1045.3, 731.3)">O</text><text xml:space="preserve" font-family="Impact,Impact" font-weight="bold" font-size="153.0" fill="#FEFFFF" transform="matrix(1.00, 0.00, -0.00, -1.00, 1129.0, 731.3)">-</text><text xml:space="preserve" font-family="Impact,Impact" font-weight="bold" font-size="153.0" fill="#FEFFFF" transform="matrix(1.00, 0.00, -0.00, -1.00, 296.2, 545.3)">S</text><text xml:space="preserve" font-family="Impact,Impact" font-weight="bold" font-size="153.0" fill="#FEFFFF" transform="matrix(1.00, 0.00, -0.00, -1.00, 375.3, 545.3)">E</text><text xml:space="preserve" font-family="Impact,Impact" font-weight="bold" font-size="153.0" fill="#FEFFFF" transform="matrix(1.00, 0.00, -0.00, -1.00, 438.8, 545.3)">R</text><text xml:space="preserve" font-family="Impact,Impact" font-weight="bold" font-size="153.0" fill="#FEFFFF" transform="matrix(1.00, 0.00, -0.00, -1.00, 521.0, 545.3)">V</text><text xml:space="preserve" font-family="Impact,Impact" font-weight="bold" font-size="153.0" fill="#FEFFFF" transform="matrix(1.00, 0.00, -0.00, -1.00, 601.2, 545.3)">I</text><text xml:space="preserve" font-family="Impact,Impact" font-weight="bold" font-size="153.0" fill="#FEFFFF" transform="matrix(1.00, 0.00, -0.00, -1.00, 645.2, 545.3)">C</text><text xml:space="preserve" font-family="Impact,Impact" font-weight="bold" font-size="153.0" fill="#FEFFFF" transform="matrix(1.00, 0.00, -0.00, -1.00, 730.0, 545.3)">E</text><text xml:space="preserve" font-family="Impact,Impact" font-weight="bold" font-size="153.0" fill="#FEFFFF" transform="matrix(1.00, 0.00, -0.00, -1.00, 793.4, 545.3)">S</text><text xml:space="preserve" font-family="Impact,Impact" font-weight="bold" font-size="153.0" fill="#FEFFFF" transform="matrix(1.00, 0.00, -0.00, -1.00, 872.5, 545.3)">”</text><image xlink:href="../../AE10D6E3-0998-4AA1-A858-7C1947A556BC/assets/454504EA92FBE5EFBE2D25289F0E7017.png" width="1920.00" height="1080.00" transform="matrix(0.43, 0.00, -0.00, -0.43, 1112.0, 458.1)"></image></g></svg>