<?xml version="1.0" encoding="UTF-8" standalone="no"?><svg xmlns="http://www.w3.org/2000/svg" xmlns:xlink="http://www.w3.org/1999/xlink" clip-rule="evenodd" stroke-miterlimit="10" viewBox="0 0 1920 1080"><desc>SVG generated by Keynote</desc><defs></defs><g transform="matrix(1.00, 0.00, -0.00, -1.00, 0.0, 1080.0)"><path d="M 0.0 1080.0 L 1920.0 1080.0 L 1920.0 0.0 L 0.0 0.0 Z M 0.0 1080.0 " fill="#000000"></path><image xlink:href="../../88C3CB51-6029-4E99-8097-5F6636866E31/assets/BC259EAE24715265E30DEEBB8D1AF6EA.png" width="480.00" height="360.00" transform="matrix(1.36, 0.00, -0.00, -1.36, 1363.8, 415.4)"></image><text xml:space="preserve" font-family="Impact,Impact" font-weight="bold" font-size="90.0" fill="#FEFFFF" transform="matrix(1.00, 0.00, -0.00, -1.00, 66.3, 866.7)">“</text><text xml:space="preserve" font-family="Impact,Impact" font-weight="bold" font-size="90.0" fill="#FEFFFF" transform="matrix(1.00, 0.00, -0.00, -1.00, 97.3, 866.7)">W</text><text xml:space="preserve" font-family="Impact,Impact" font-weight="bold" font-size="90.0" fill="#FEFFFF" transform="matrix(1.00, 0.00, -0.00, -1.00, 170.7, 866.7)">O</text><text xml:space="preserve" font-family="Impact,Impact" font-weight="bold" font-size="90.0" fill="#FEFFFF" transform="matrix(1.00, 0.00, -0.00, -1.00, 219.9, 866.7)">U</text><text xml:space="preserve" font-family="Impact,Impact" font-weight="bold" font-size="90.0" fill="#FEFFFF" transform="matrix(1.00, 0.00, -0.00, -1.00, 269.1, 866.7)">L</text><text xml:space="preserve" font-family="Impact,Impact" font-weight="bold" font-size="90.0" fill="#FEFFFF" transform="matrix(1.00, 0.00, -0.00, -1.00, 303.4, 866.7)">D</text><text xml:space="preserve" font-family="Impact,Impact" font-weight="bold" font-size="90.0" fill="#FEFFFF" transform="matrix(1.00, 0.00, -0.00, -1.00, 353.1, 866.7)">N</text><text xml:space="preserve" font-family="Impact,Impact" font-weight="bold" font-size="90.0" fill="#FEFFFF" transform="matrix(1.00, 0.00, -0.00, -1.00, 401.8, 866.7)">’</text><text xml:space="preserve" font-family="Impact,Impact" font-weight="bold" font-size="90.0" fill="#FEFFFF" transform="matrix(1.00, 0.00, -0.00, -1.00, 416.9, 866.7)">T</text><text xml:space="preserve" font-family="Impact,Impact" font-weight="bold" font-size="90.0" fill="#FEFFFF" transform="matrix(1.00, 0.00, -0.00, -1.00, 458.4, 866.7)"> </text><text xml:space="preserve" font-family="Impact,Impact" font-weight="bold" font-size="90.0" fill="#FEFFFF" transform="matrix(1.00, 0.00, -0.00, -1.00, 474.3, 866.7)">I</text><text xml:space="preserve" font-family="Impact,Impact" font-weight="bold" font-size="90.0" fill="#FEFFFF" transform="matrix(1.00, 0.00, -0.00, -1.00, 500.2, 866.7)">T</text><text xml:space="preserve" font-family="Impact,Impact" font-weight="bold" font-size="90.0" fill="#FEFFFF" transform="matrix(1.00, 0.00, -0.00, -1.00, 541.7, 866.7)"> </text><text xml:space="preserve" font-family="Impact,Impact" font-weight="bold" font-size="90.0" fill="#FEFFFF" transform="matrix(1.00, 0.00, -0.00, -1.00, 557.6, 866.7)">B</text><text xml:space="preserve" font-family="Impact,Impact" font-weight="bold" font-size="90.0" fill="#FEFFFF" transform="matrix(1.00, 0.00, -0.00, -1.00, 607.3, 866.7)">E</text><text xml:space="preserve" font-family="Impact,Impact" font-weight="bold" font-size="90.0" fill="#FEFFFF" transform="matrix(1.00, 0.00, -0.00, -1.00, 644.7, 866.7)"> </text><text xml:space="preserve" font-family="Impact,Impact" font-weight="bold" font-size="90.0" fill="#FEFFFF" transform="matrix(1.00, 0.00, -0.00, -1.00, 660.5, 866.7)">G</text><text xml:space="preserve" font-family="Impact,Impact" font-weight="bold" font-size="90.0" fill="#FEFFFF" transform="matrix(1.00, 0.00, -0.00, -1.00, 710.2, 866.7)">R</text><text xml:space="preserve" font-family="Impact,Impact" font-weight="bold" font-size="90.0" fill="#FEFFFF" transform="matrix(1.00, 0.00, -0.00, -1.00, 758.6, 866.7)">E</text><text xml:space="preserve" font-family="Impact,Impact" font-weight="bold" font-size="90.0" fill="#FEFFFF" transform="matrix(1.00, 0.00, -0.00, -1.00, 796.0, 866.7)">A</text><text xml:space="preserve" font-family="Impact,Impact" font-weight="bold" font-size="90.0" fill="#FEFFFF" transform="matrix(1.00, 0.00, -0.00, -1.00, 836.7, 866.7)">T</text><text xml:space="preserve" font-family="Impact,Impact" font-weight="bold" font-size="90.0" fill="#FEFFFF" transform="matrix(1.00, 0.00, -0.00, -1.00, 878.2, 866.7)"> </text><text xml:space="preserve" font-family="Impact,Impact" font-weight="bold" font-size="90.0" fill="#FEFFFF" transform="matrix(1.00, 0.00, -0.00, -1.00, 894.1, 866.7)">T</text><text xml:space="preserve" font-family="Impact,Impact" font-weight="bold" font-size="90.0" fill="#FEFFFF" transform="matrix(1.00, 0.00, -0.00, -1.00, 935.5, 866.7)">O</text><text xml:space="preserve" font-family="Impact,Impact" font-weight="bold" font-size="90.0" fill="#FEFFFF" transform="matrix(1.00, 0.00, -0.00, -1.00, 984.7, 866.7)"> </text><text xml:space="preserve" font-family="Impact,Impact" font-weight="bold" font-size="90.0" fill="#FEFFFF" transform="matrix(1.00, 0.00, -0.00, -1.00, 1000.6, 866.7)">H</text><text xml:space="preserve" font-family="Impact,Impact" font-weight="bold" font-size="90.0" fill="#FEFFFF" transform="matrix(1.00, 0.00, -0.00, -1.00, 1050.6, 866.7)">A</text><text xml:space="preserve" font-family="Impact,Impact" font-weight="bold" font-size="90.0" fill="#FEFFFF" transform="matrix(1.00, 0.00, -0.00, -1.00, 1094.3, 866.7)">V</text><text xml:space="preserve" font-family="Impact,Impact" font-weight="bold" font-size="90.0" fill="#FEFFFF" transform="matrix(1.00, 0.00, -0.00, -1.00, 1141.5, 866.7)">E</text><text xml:space="preserve" font-family="Impact,Impact" font-weight="bold" font-size="90.0" fill="#FEFFFF" transform="matrix(1.00, 0.00, -0.00, -1.00, 1178.8, 866.7)"> </text><text xml:space="preserve" font-family="Impact,Impact" font-weight="bold" font-size="90.0" fill="#FEFFFF" transform="matrix(1.00, 0.00, -0.00, -1.00, 1194.7, 866.7)">A</text><text xml:space="preserve" font-family="Impact,Impact" font-weight="bold" font-size="90.0" fill="#FEFFFF" transform="matrix(1.00, 0.00, -0.00, -1.00, 1240.4, 866.7)"> </text><text xml:space="preserve" font-family="Impact,Impact" font-weight="bold" font-size="90.0" fill="#FEFFFF" transform="matrix(1.00, 0.00, -0.00, -1.00, 1256.3, 866.7)">W</text><text xml:space="preserve" font-family="Impact,Impact" font-weight="bold" font-size="90.0" fill="#FEFFFF" transform="matrix(1.00, 0.00, -0.00, -1.00, 1329.6, 866.7)">O</text><text xml:space="preserve" font-family="Impact,Impact" font-weight="bold" font-size="90.0" fill="#FEFFFF" transform="matrix(1.00, 0.00, -0.00, -1.00, 1378.8, 866.7)">R</text><text xml:space="preserve" font-family="Impact,Impact" font-weight="bold" font-size="90.0" fill="#FEFFFF" transform="matrix(1.00, 0.00, -0.00, -1.00, 1427.3, 866.7)">L</text><text xml:space="preserve" font-family="Impact,Impact" font-weight="bold" font-size="90.0" fill="#FEFFFF" transform="matrix(1.00, 0.00, -0.00, -1.00, 1461.5, 866.7)">D</text><text xml:space="preserve" font-family="Impact,Impact" font-weight="bold" font-size="90.0" fill="#FEFFFF" transform="matrix(1.00, 0.00, -0.00, -1.00, 1511.3, 866.7)"> </text><text xml:space="preserve" font-family="Impact,Impact" font-weight="bold" font-size="90.0" fill="#FEFFFF" transform="matrix(1.00, 0.00, -0.00, -1.00, 38.5, 756.7)">W</text><text xml:space="preserve" font-family="Impact,Impact" font-weight="bold" font-size="90.0" fill="#FEFFFF" transform="matrix(1.00, 0.00, -0.00, -1.00, 111.8, 756.7)">H</text><text xml:space="preserve" font-family="Impact,Impact" font-weight="bold" font-size="90.0" fill="#FEFFFF" transform="matrix(1.00, 0.00, -0.00, -1.00, 161.8, 756.7)">E</text><text xml:space="preserve" font-family="Impact,Impact" font-weight="bold" font-size="90.0" fill="#FEFFFF" transform="matrix(1.00, 0.00, -0.00, -1.00, 199.2, 756.7)">R</text><text xml:space="preserve" font-family="Impact,Impact" font-weight="bold" font-size="90.0" fill="#FEFFFF" transform="matrix(1.00, 0.00, -0.00, -1.00, 247.6, 756.7)">E</text><text xml:space="preserve" font-family="Impact,Impact" font-weight="bold" font-size="90.0" fill="#FEFFFF" transform="matrix(1.00, 0.00, -0.00, -1.00, 285.0, 756.7)"> </text><text xml:space="preserve" font-family="Impact,Impact" font-weight="bold" font-size="90.0" fill="#FEFFFF" transform="matrix(1.00, 0.00, -0.00, -1.00, 300.8, 756.7)">Y</text><text xml:space="preserve" font-family="Impact,Impact" font-weight="bold" font-size="90.0" fill="#FEFFFF" transform="matrix(1.00, 0.00, -0.00, -1.00, 343.4, 756.7)">O</text><text xml:space="preserve" font-family="Impact,Impact" font-weight="bold" font-size="90.0" fill="#FEFFFF" transform="matrix(1.00, 0.00, -0.00, -1.00, 392.6, 756.7)">U</text><text xml:space="preserve" font-family="Impact,Impact" font-weight="bold" font-size="90.0" fill="#FEFFFF" transform="matrix(1.00, 0.00, -0.00, -1.00, 441.9, 756.7)"> </text><text xml:space="preserve" font-family="Impact,Impact" font-weight="bold" font-size="90.0" fill="#FEFFFF" transform="matrix(1.00, 0.00, -0.00, -1.00, 457.8, 756.7)">D</text><text xml:space="preserve" font-family="Impact,Impact" font-weight="bold" font-size="90.0" fill="#FEFFFF" transform="matrix(1.00, 0.00, -0.00, -1.00, 507.5, 756.7)">I</text><text xml:space="preserve" font-family="Impact,Impact" font-weight="bold" font-size="90.0" fill="#FEFFFF" transform="matrix(1.00, 0.00, -0.00, -1.00, 533.4, 756.7)">D</text><text xml:space="preserve" font-family="Impact,Impact" font-weight="bold" font-size="90.0" fill="#FEFFFF" transform="matrix(1.00, 0.00, -0.00, -1.00, 583.1, 756.7)">N</text><text xml:space="preserve" font-family="Impact,Impact" font-weight="bold" font-size="90.0" fill="#FEFFFF" transform="matrix(1.00, 0.00, -0.00, -1.00, 631.8, 756.7)">’</text><text xml:space="preserve" font-family="Impact,Impact" font-weight="bold" font-size="90.0" fill="#FEFFFF" transform="matrix(1.00, 0.00, -0.00, -1.00, 646.9, 756.7)">T</text><text xml:space="preserve" font-family="Impact,Impact" font-weight="bold" font-size="90.0" fill="#FEFFFF" transform="matrix(1.00, 0.00, -0.00, -1.00, 688.4, 756.7)"> </text><text xml:space="preserve" font-family="Impact,Impact" font-weight="bold" font-size="90.0" fill="#FEFFFF" transform="matrix(1.00, 0.00, -0.00, -1.00, 704.3, 756.7)">H</text><text xml:space="preserve" font-family="Impact,Impact" font-weight="bold" font-size="90.0" fill="#FEFFFF" transform="matrix(1.00, 0.00, -0.00, -1.00, 754.3, 756.7)">A</text><text xml:space="preserve" font-family="Impact,Impact" font-weight="bold" font-size="90.0" fill="#FEFFFF" transform="matrix(1.00, 0.00, -0.00, -1.00, 798.0, 756.7)">V</text><text xml:space="preserve" font-family="Impact,Impact" font-weight="bold" font-size="90.0" fill="#FEFFFF" transform="matrix(1.00, 0.00, -0.00, -1.00, 845.1, 756.7)">E</text><text xml:space="preserve" font-family="Impact,Impact" font-weight="bold" font-size="90.0" fill="#FEFFFF" transform="matrix(1.00, 0.00, -0.00, -1.00, 882.5, 756.7)"> </text><text xml:space="preserve" font-family="Impact,Impact" font-weight="bold" font-size="90.0" fill="#FEFFFF" transform="matrix(1.00, 0.00, -0.00, -1.00, 898.4, 756.7)">T</text><text xml:space="preserve" font-family="Impact,Impact" font-weight="bold" font-size="90.0" fill="#FEFFFF" transform="matrix(1.00, 0.00, -0.00, -1.00, 939.9, 756.7)">O</text><text xml:space="preserve" font-family="Impact,Impact" font-weight="bold" font-size="90.0" fill="#FEFFFF" transform="matrix(1.00, 0.00, -0.00, -1.00, 989.1, 756.7)"> </text><text xml:space="preserve" font-family="Impact,Impact" font-weight="bold" font-size="90.0" fill="#FEFFFF" transform="matrix(1.00, 0.00, -0.00, -1.00, 1005.0, 756.7)">C</text><text xml:space="preserve" font-family="Impact,Impact" font-weight="bold" font-size="90.0" fill="#FEFFFF" transform="matrix(1.00, 0.00, -0.00, -1.00, 1054.8, 756.7)">A</text><text xml:space="preserve" font-family="Impact,Impact" font-weight="bold" font-size="90.0" fill="#FEFFFF" transform="matrix(1.00, 0.00, -0.00, -1.00, 1100.4, 756.7)">R</text><text xml:space="preserve" font-family="Impact,Impact" font-weight="bold" font-size="90.0" fill="#FEFFFF" transform="matrix(1.00, 0.00, -0.00, -1.00, 1148.9, 756.7)">E</text><text xml:space="preserve" font-family="Impact,Impact" font-weight="bold" font-size="90.0" fill="#FEFFFF" transform="matrix(1.00, 0.00, -0.00, -1.00, 1186.2, 756.7)"> </text><text xml:space="preserve" font-family="Impact,Impact" font-weight="bold" font-size="90.0" fill="#FEFFFF" transform="matrix(1.00, 0.00, -0.00, -1.00, 1202.1, 756.7)">W</text><text xml:space="preserve" font-family="Impact,Impact" font-weight="bold" font-size="90.0" fill="#FEFFFF" transform="matrix(1.00, 0.00, -0.00, -1.00, 1275.5, 756.7)">H</text><text xml:space="preserve" font-family="Impact,Impact" font-weight="bold" font-size="90.0" fill="#FEFFFF" transform="matrix(1.00, 0.00, -0.00, -1.00, 1325.5, 756.7)">E</text><text xml:space="preserve" font-family="Impact,Impact" font-weight="bold" font-size="90.0" fill="#FEFFFF" transform="matrix(1.00, 0.00, -0.00, -1.00, 1361.6, 756.7)">T</text><text xml:space="preserve" font-family="Impact,Impact" font-weight="bold" font-size="90.0" fill="#FEFFFF" transform="matrix(1.00, 0.00, -0.00, -1.00, 1403.1, 756.7)">H</text><text xml:space="preserve" font-family="Impact,Impact" font-weight="bold" font-size="90.0" fill="#FEFFFF" transform="matrix(1.00, 0.00, -0.00, -1.00, 1453.1, 756.7)">E</text><text xml:space="preserve" font-family="Impact,Impact" font-weight="bold" font-size="90.0" fill="#FEFFFF" transform="matrix(1.00, 0.00, -0.00, -1.00, 1490.4, 756.7)">R</text><text xml:space="preserve" font-family="Impact,Impact" font-weight="bold" font-size="90.0" fill="#FEFFFF" transform="matrix(1.00, 0.00, -0.00, -1.00, 1538.9, 756.7)"> </text><text xml:space="preserve" font-family="Impact,Impact" font-weight="bold" font-size="90.0" fill="#FEFFFF" transform="matrix(1.00, 0.00, -0.00, -1.00, 110.0, 646.7)">Y</text><text xml:space="preserve" font-family="Impact,Impact" font-weight="bold" font-size="90.0" fill="#FEFFFF" transform="matrix(1.00, 0.00, -0.00, -1.00, 152.6, 646.7)">O</text><text xml:space="preserve" font-family="Impact,Impact" font-weight="bold" font-size="90.0" fill="#FEFFFF" transform="matrix(1.00, 0.00, -0.00, -1.00, 201.8, 646.7)">U</text><text xml:space="preserve" font-family="Impact,Impact" font-weight="bold" font-size="90.0" fill="#FEFFFF" transform="matrix(1.00, 0.00, -0.00, -1.00, 251.0, 646.7)">R</text><text xml:space="preserve" font-family="Impact,Impact" font-weight="bold" font-size="90.0" fill="#FEFFFF" transform="matrix(1.00, 0.00, -0.00, -1.00, 299.4, 646.7)"> </text><text xml:space="preserve" font-family="Impact,Impact" font-weight="bold" font-size="90.0" fill="#FEFFFF" transform="matrix(1.00, 0.00, -0.00, -1.00, 315.3, 646.7)">D</text><text xml:space="preserve" font-family="Impact,Impact" font-weight="bold" font-size="90.0" fill="#FEFFFF" transform="matrix(1.00, 0.00, -0.00, -1.00, 365.1, 646.7)">A</text><text xml:space="preserve" font-family="Impact,Impact" font-weight="bold" font-size="90.0" fill="#FEFFFF" transform="matrix(1.00, 0.00, -0.00, -1.00, 405.7, 646.7)">T</text><text xml:space="preserve" font-family="Impact,Impact" font-weight="bold" font-size="90.0" fill="#FEFFFF" transform="matrix(1.00, 0.00, -0.00, -1.00, 443.6, 646.7)">A</text><text xml:space="preserve" font-family="Impact,Impact" font-weight="bold" font-size="90.0" fill="#FEFFFF" transform="matrix(1.00, 0.00, -0.00, -1.00, 489.3, 646.7)"> </text><text xml:space="preserve" font-family="Impact,Impact" font-weight="bold" font-size="90.0" fill="#FEFFFF" transform="matrix(1.00, 0.00, -0.00, -1.00, 505.2, 646.7)">W</text><text xml:space="preserve" font-family="Impact,Impact" font-weight="bold" font-size="90.0" fill="#FEFFFF" transform="matrix(1.00, 0.00, -0.00, -1.00, 577.7, 646.7)">A</text><text xml:space="preserve" font-family="Impact,Impact" font-weight="bold" font-size="90.0" fill="#FEFFFF" transform="matrix(1.00, 0.00, -0.00, -1.00, 623.4, 646.7)">S</text><text xml:space="preserve" font-family="Impact,Impact" font-weight="bold" font-size="90.0" fill="#FEFFFF" transform="matrix(1.00, 0.00, -0.00, -1.00, 670.0, 646.7)"> </text><text xml:space="preserve" font-family="Impact,Impact" font-weight="bold" font-size="90.0" fill="#FEFFFF" transform="matrix(1.00, 0.00, -0.00, -1.00, 685.8, 646.7)">D</text><text xml:space="preserve" font-family="Impact,Impact" font-weight="bold" font-size="90.0" fill="#FEFFFF" transform="matrix(1.00, 0.00, -0.00, -1.00, 735.6, 646.7)">I</text><text xml:space="preserve" font-family="Impact,Impact" font-weight="bold" font-size="90.0" fill="#FEFFFF" transform="matrix(1.00, 0.00, -0.00, -1.00, 761.5, 646.7)">S</text><text xml:space="preserve" font-family="Impact,Impact" font-weight="bold" font-size="90.0" fill="#FEFFFF" transform="matrix(1.00, 0.00, -0.00, -1.00, 808.1, 646.7)">T</text><text xml:space="preserve" font-family="Impact,Impact" font-weight="bold" font-size="90.0" fill="#FEFFFF" transform="matrix(1.00, 0.00, -0.00, -1.00, 849.6, 646.7)">R</text><text xml:space="preserve" font-family="Impact,Impact" font-weight="bold" font-size="90.0" fill="#FEFFFF" transform="matrix(1.00, 0.00, -0.00, -1.00, 898.0, 646.7)">I</text><text xml:space="preserve" font-family="Impact,Impact" font-weight="bold" font-size="90.0" fill="#FEFFFF" transform="matrix(1.00, 0.00, -0.00, -1.00, 923.9, 646.7)">B</text><text xml:space="preserve" font-family="Impact,Impact" font-weight="bold" font-size="90.0" fill="#FEFFFF" transform="matrix(1.00, 0.00, -0.00, -1.00, 973.6, 646.7)">U</text><text xml:space="preserve" font-family="Impact,Impact" font-weight="bold" font-size="90.0" fill="#FEFFFF" transform="matrix(1.00, 0.00, -0.00, -1.00, 1022.8, 646.7)">T</text><text xml:space="preserve" font-family="Impact,Impact" font-weight="bold" font-size="90.0" fill="#FEFFFF" transform="matrix(1.00, 0.00, -0.00, -1.00, 1064.3, 646.7)">E</text><text xml:space="preserve" font-family="Impact,Impact" font-weight="bold" font-size="90.0" fill="#FEFFFF" transform="matrix(1.00, 0.00, -0.00, -1.00, 1101.6, 646.7)">D</text><text xml:space="preserve" font-family="Impact,Impact" font-weight="bold" font-size="90.0" fill="#FEFFFF" transform="matrix(1.00, 0.00, -0.00, -1.00, 1151.4, 646.7)"> </text><text xml:space="preserve" font-family="Impact,Impact" font-weight="bold" font-size="90.0" fill="#FEFFFF" transform="matrix(1.00, 0.00, -0.00, -1.00, 1167.3, 646.7)">O</text><text xml:space="preserve" font-family="Impact,Impact" font-weight="bold" font-size="90.0" fill="#FEFFFF" transform="matrix(1.00, 0.00, -0.00, -1.00, 1216.5, 646.7)">R</text><text xml:space="preserve" font-family="Impact,Impact" font-weight="bold" font-size="90.0" fill="#FEFFFF" transform="matrix(1.00, 0.00, -0.00, -1.00, 1264.8, 646.7)"> </text><text xml:space="preserve" font-family="Impact,Impact" font-weight="bold" font-size="90.0" fill="#FEFFFF" transform="matrix(1.00, 0.00, -0.00, -1.00, 1280.7, 646.7)">N</text><text xml:space="preserve" font-family="Impact,Impact" font-weight="bold" font-size="90.0" fill="#FEFFFF" transform="matrix(1.00, 0.00, -0.00, -1.00, 1329.4, 646.7)">O</text><text xml:space="preserve" font-family="Impact,Impact" font-weight="bold" font-size="90.0" fill="#FEFFFF" transform="matrix(1.00, 0.00, -0.00, -1.00, 1378.6, 646.7)">T</text><text xml:space="preserve" font-family="Impact,Impact" font-weight="bold" font-size="90.0" fill="#FEFFFF" transform="matrix(1.00, 0.00, -0.00, -1.00, 1420.1, 646.7)">?</text><text xml:space="preserve" font-family="Impact,Impact" font-weight="bold" font-size="90.0" fill="#FEFFFF" transform="matrix(1.00, 0.00, -0.00, -1.00, 1467.3, 646.7)"> </text><text xml:space="preserve" font-family="Impact,Impact" font-weight="bold" font-size="90.0" fill="#FEFFFF" transform="matrix(1.00, 0.00, -0.00, -1.00, 42.7, 536.7)">A</text><text xml:space="preserve" font-family="Impact,Impact" font-weight="bold" font-size="90.0" fill="#FEFFFF" transform="matrix(1.00, 0.00, -0.00, -1.00, 88.4, 536.7)"> </text><text xml:space="preserve" font-family="Impact,Impact" font-weight="bold" font-size="90.0" fill="#FEFFFF" transform="matrix(1.00, 0.00, -0.00, -1.00, 104.3, 536.7)">S</text><text xml:space="preserve" font-family="Impact,Impact" font-weight="bold" font-size="90.0" fill="#FEFFFF" transform="matrix(1.00, 0.00, -0.00, -1.00, 150.8, 536.7)">O</text><text xml:space="preserve" font-family="Impact,Impact" font-weight="bold" font-size="90.0" fill="#FEFFFF" transform="matrix(1.00, 0.00, -0.00, -1.00, 200.1, 536.7)">L</text><text xml:space="preserve" font-family="Impact,Impact" font-weight="bold" font-size="90.0" fill="#FEFFFF" transform="matrix(1.00, 0.00, -0.00, -1.00, 234.4, 536.7)">U</text><text xml:space="preserve" font-family="Impact,Impact" font-weight="bold" font-size="90.0" fill="#FEFFFF" transform="matrix(1.00, 0.00, -0.00, -1.00, 283.6, 536.7)">T</text><text xml:space="preserve" font-family="Impact,Impact" font-weight="bold" font-size="90.0" fill="#FEFFFF" transform="matrix(1.00, 0.00, -0.00, -1.00, 325.1, 536.7)">I</text><text xml:space="preserve" font-family="Impact,Impact" font-weight="bold" font-size="90.0" fill="#FEFFFF" transform="matrix(1.00, 0.00, -0.00, -1.00, 351.0, 536.7)">O</text><text xml:space="preserve" font-family="Impact,Impact" font-weight="bold" font-size="90.0" fill="#FEFFFF" transform="matrix(1.00, 0.00, -0.00, -1.00, 400.2, 536.7)">N</text><text xml:space="preserve" font-family="Impact,Impact" font-weight="bold" font-size="90.0" fill="#FEFFFF" transform="matrix(1.00, 0.00, -0.00, -1.00, 448.9, 536.7)"> </text><text xml:space="preserve" font-family="Impact,Impact" font-weight="bold" font-size="90.0" fill="#FEFFFF" transform="matrix(1.00, 0.00, -0.00, -1.00, 464.9, 536.7)">T</text><text xml:space="preserve" font-family="Impact,Impact" font-weight="bold" font-size="90.0" fill="#FEFFFF" transform="matrix(1.00, 0.00, -0.00, -1.00, 506.3, 536.7)">H</text><text xml:space="preserve" font-family="Impact,Impact" font-weight="bold" font-size="90.0" fill="#FEFFFF" transform="matrix(1.00, 0.00, -0.00, -1.00, 556.3, 536.7)">A</text><text xml:space="preserve" font-family="Impact,Impact" font-weight="bold" font-size="90.0" fill="#FEFFFF" transform="matrix(1.00, 0.00, -0.00, -1.00, 597.0, 536.7)">T</text><text xml:space="preserve" font-family="Impact,Impact" font-weight="bold" font-size="90.0" fill="#FEFFFF" transform="matrix(1.00, 0.00, -0.00, -1.00, 638.5, 536.7)"> </text><text xml:space="preserve" font-family="Impact,Impact" font-weight="bold" font-size="90.0" fill="#FEFFFF" transform="matrix(1.00, 0.00, -0.00, -1.00, 654.4, 536.7)">Y</text><text xml:space="preserve" font-family="Impact,Impact" font-weight="bold" font-size="90.0" fill="#FEFFFF" transform="matrix(1.00, 0.00, -0.00, -1.00, 697.0, 536.7)">O</text><text xml:space="preserve" font-family="Impact,Impact" font-weight="bold" font-size="90.0" fill="#FEFFFF" transform="matrix(1.00, 0.00, -0.00, -1.00, 746.2, 536.7)">U</text><text xml:space="preserve" font-family="Impact,Impact" font-weight="bold" font-size="90.0" fill="#FEFFFF" transform="matrix(1.00, 0.00, -0.00, -1.00, 795.4, 536.7)"> </text><text xml:space="preserve" font-family="Impact,Impact" font-weight="bold" font-size="90.0" fill="#FEFFFF" transform="matrix(1.00, 0.00, -0.00, -1.00, 811.4, 536.7)">C</text><text xml:space="preserve" font-family="Impact,Impact" font-weight="bold" font-size="90.0" fill="#FEFFFF" transform="matrix(1.00, 0.00, -0.00, -1.00, 861.2, 536.7)">O</text><text xml:space="preserve" font-family="Impact,Impact" font-weight="bold" font-size="90.0" fill="#FEFFFF" transform="matrix(1.00, 0.00, -0.00, -1.00, 910.4, 536.7)">U</text><text xml:space="preserve" font-family="Impact,Impact" font-weight="bold" font-size="90.0" fill="#FEFFFF" transform="matrix(1.00, 0.00, -0.00, -1.00, 959.6, 536.7)">L</text><text xml:space="preserve" font-family="Impact,Impact" font-weight="bold" font-size="90.0" fill="#FEFFFF" transform="matrix(1.00, 0.00, -0.00, -1.00, 993.9, 536.7)">D</text><text xml:space="preserve" font-family="Impact,Impact" font-weight="bold" font-size="90.0" fill="#FEFFFF" transform="matrix(1.00, 0.00, -0.00, -1.00, 1043.7, 536.7)"> </text><text xml:space="preserve" font-family="Impact,Impact" font-weight="bold" font-size="90.0" fill="#FEFFFF" transform="matrix(1.00, 0.00, -0.00, -1.00, 1059.6, 536.7)">U</text><text xml:space="preserve" font-family="Impact,Impact" font-weight="bold" font-size="90.0" fill="#FEFFFF" transform="matrix(1.00, 0.00, -0.00, -1.00, 1108.8, 536.7)">S</text><text xml:space="preserve" font-family="Impact,Impact" font-weight="bold" font-size="90.0" fill="#FEFFFF" transform="matrix(1.00, 0.00, -0.00, -1.00, 1155.3, 536.7)">E</text><text xml:space="preserve" font-family="Impact,Impact" font-weight="bold" font-size="90.0" fill="#FEFFFF" transform="matrix(1.00, 0.00, -0.00, -1.00, 1192.7, 536.7)"> </text><text xml:space="preserve" font-family="Impact,Impact" font-weight="bold" font-size="90.0" fill="#FEFFFF" transform="matrix(1.00, 0.00, -0.00, -1.00, 1208.6, 536.7)">A</text><text xml:space="preserve" font-family="Impact,Impact" font-weight="bold" font-size="90.0" fill="#FEFFFF" transform="matrix(1.00, 0.00, -0.00, -1.00, 1254.3, 536.7)">S</text><text xml:space="preserve" font-family="Impact,Impact" font-weight="bold" font-size="90.0" fill="#FEFFFF" transform="matrix(1.00, 0.00, -0.00, -1.00, 1300.9, 536.7)"> </text><text xml:space="preserve" font-family="Impact,Impact" font-weight="bold" font-size="90.0" fill="#FEFFFF" transform="matrix(1.00, 0.00, -0.00, -1.00, 1316.8, 536.7)">I</text><text xml:space="preserve" font-family="Impact,Impact" font-weight="bold" font-size="90.0" fill="#FEFFFF" transform="matrix(1.00, 0.00, -0.00, -1.00, 1342.7, 536.7)">F</text><text xml:space="preserve" font-family="Impact,Impact" font-weight="bold" font-size="90.0" fill="#FEFFFF" transform="matrix(1.00, 0.00, -0.00, -1.00, 1378.5, 536.7)"> </text><text xml:space="preserve" font-family="Impact,Impact" font-weight="bold" font-size="90.0" fill="#FEFFFF" transform="matrix(1.00, 0.00, -0.00, -1.00, 1394.4, 536.7)">Y</text><text xml:space="preserve" font-family="Impact,Impact" font-weight="bold" font-size="90.0" fill="#FEFFFF" transform="matrix(1.00, 0.00, -0.00, -1.00, 1437.0, 536.7)">O</text><text xml:space="preserve" font-family="Impact,Impact" font-weight="bold" font-size="90.0" fill="#FEFFFF" transform="matrix(1.00, 0.00, -0.00, -1.00, 1486.2, 536.7)">U</text><text xml:space="preserve" font-family="Impact,Impact" font-weight="bold" font-size="90.0" fill="#FEFFFF" transform="matrix(1.00, 0.00, -0.00, -1.00, 1535.4, 536.7)"> </text><text xml:space="preserve" font-family="Impact,Impact" font-weight="bold" font-size="90.0" fill="#FEFFFF" transform="matrix(1.00, 0.00, -0.00, -1.00, 372.8, 426.7)">W</text><text xml:space="preserve" font-family="Impact,Impact" font-weight="bold" font-size="90.0" fill="#FEFFFF" transform="matrix(1.00, 0.00, -0.00, -1.00, 446.2, 426.7)">E</text><text xml:space="preserve" font-family="Impact,Impact" font-weight="bold" font-size="90.0" fill="#FEFFFF" transform="matrix(1.00, 0.00, -0.00, -1.00, 483.5, 426.7)">R</text><text xml:space="preserve" font-family="Impact,Impact" font-weight="bold" font-size="90.0" fill="#FEFFFF" transform="matrix(1.00, 0.00, -0.00, -1.00, 532.0, 426.7)">E</text><text xml:space="preserve" font-family="Impact,Impact" font-weight="bold" font-size="90.0" fill="#FEFFFF" transform="matrix(1.00, 0.00, -0.00, -1.00, 569.3, 426.7)"> </text><text xml:space="preserve" font-family="Impact,Impact" font-weight="bold" font-size="90.0" fill="#FEFFFF" transform="matrix(1.00, 0.00, -0.00, -1.00, 585.2, 426.7)">U</text><text xml:space="preserve" font-family="Impact,Impact" font-weight="bold" font-size="90.0" fill="#FEFFFF" transform="matrix(1.00, 0.00, -0.00, -1.00, 634.4, 426.7)">S</text><text xml:space="preserve" font-family="Impact,Impact" font-weight="bold" font-size="90.0" fill="#FEFFFF" transform="matrix(1.00, 0.00, -0.00, -1.00, 681.0, 426.7)">I</text><text xml:space="preserve" font-family="Impact,Impact" font-weight="bold" font-size="90.0" fill="#FEFFFF" transform="matrix(1.00, 0.00, -0.00, -1.00, 707.0, 426.7)">N</text><text xml:space="preserve" font-family="Impact,Impact" font-weight="bold" font-size="90.0" fill="#FEFFFF" transform="matrix(1.00, 0.00, -0.00, -1.00, 755.7, 426.7)">G</text><text xml:space="preserve" font-family="Impact,Impact" font-weight="bold" font-size="90.0" fill="#FEFFFF" transform="matrix(1.00, 0.00, -0.00, -1.00, 805.3, 426.7)"> </text><text xml:space="preserve" font-family="Impact,Impact" font-weight="bold" font-size="90.0" fill="#FEFFFF" transform="matrix(1.00, 0.00, -0.00, -1.00, 821.2, 426.7)">O</text><text xml:space="preserve" font-family="Impact,Impact" font-weight="bold" font-size="90.0" fill="#FEFFFF" transform="matrix(1.00, 0.00, -0.00, -1.00, 870.4, 426.7)">N</text><text xml:space="preserve" font-family="Impact,Impact" font-weight="bold" font-size="90.0" fill="#FEFFFF" transform="matrix(1.00, 0.00, -0.00, -1.00, 919.1, 426.7)">E</text><text xml:space="preserve" font-family="Impact,Impact" font-weight="bold" font-size="90.0" fill="#FEFFFF" transform="matrix(1.00, 0.00, -0.00, -1.00, 956.5, 426.7)"> </text><text xml:space="preserve" font-family="Impact,Impact" font-weight="bold" font-size="90.0" fill="#FEFFFF" transform="matrix(1.00, 0.00, -0.00, -1.00, 972.4, 426.7)">N</text><text xml:space="preserve" font-family="Impact,Impact" font-weight="bold" font-size="90.0" fill="#FEFFFF" transform="matrix(1.00, 0.00, -0.00, -1.00, 1021.1, 426.7)">O</text><text xml:space="preserve" font-family="Impact,Impact" font-weight="bold" font-size="90.0" fill="#FEFFFF" transform="matrix(1.00, 0.00, -0.00, -1.00, 1070.3, 426.7)">D</text><text xml:space="preserve" font-family="Impact,Impact" font-weight="bold" font-size="90.0" fill="#FEFFFF" transform="matrix(1.00, 0.00, -0.00, -1.00, 1120.0, 426.7)">E</text><text xml:space="preserve" font-family="Impact,Impact" font-weight="bold" font-size="90.0" fill="#FEFFFF" transform="matrix(1.00, 0.00, -0.00, -1.00, 1157.4, 426.7)">?</text><text xml:space="preserve" font-family="Impact,Impact" font-weight="bold" font-size="90.0" fill="#FEFFFF" transform="matrix(1.00, 0.00, -0.00, -1.00, 1204.6, 426.7)"> </text><text xml:space="preserve" font-family="Impact,Impact" font-weight="bold" font-size="90.0" fill="#FEFFFF" transform="matrix(1.00, 0.00, -0.00, -1.00, 227.2, 316.7)">B</text><text xml:space="preserve" font-family="Impact,Impact" font-weight="bold" font-size="90.0" fill="#FEFFFF" transform="matrix(1.00, 0.00, -0.00, -1.00, 276.9, 316.7)">U</text><text xml:space="preserve" font-family="Impact,Impact" font-weight="bold" font-size="90.0" fill="#FEFFFF" transform="matrix(1.00, 0.00, -0.00, -1.00, 326.2, 316.7)">T</text><text xml:space="preserve" font-family="Impact,Impact" font-weight="bold" font-size="90.0" fill="#FEFFFF" transform="matrix(1.00, 0.00, -0.00, -1.00, 367.7, 316.7)"> </text><text xml:space="preserve" font-family="Impact,Impact" font-weight="bold" font-size="90.0" fill="#FEFFFF" transform="matrix(1.00, 0.00, -0.00, -1.00, 383.6, 316.7)">T</text><text xml:space="preserve" font-family="Impact,Impact" font-weight="bold" font-size="90.0" fill="#FEFFFF" transform="matrix(1.00, 0.00, -0.00, -1.00, 425.1, 316.7)">H</text><text xml:space="preserve" font-family="Impact,Impact" font-weight="bold" font-size="90.0" fill="#FEFFFF" transform="matrix(1.00, 0.00, -0.00, -1.00, 475.0, 316.7)">A</text><text xml:space="preserve" font-family="Impact,Impact" font-weight="bold" font-size="90.0" fill="#FEFFFF" transform="matrix(1.00, 0.00, -0.00, -1.00, 515.7, 316.7)">T</text><text xml:space="preserve" font-family="Impact,Impact" font-weight="bold" font-size="90.0" fill="#FEFFFF" transform="matrix(1.00, 0.00, -0.00, -1.00, 557.2, 316.7)"> </text><text xml:space="preserve" font-family="Impact,Impact" font-weight="bold" font-size="90.0" fill="#FEFFFF" transform="matrix(1.00, 0.00, -0.00, -1.00, 573.1, 316.7)">W</text><text xml:space="preserve" font-family="Impact,Impact" font-weight="bold" font-size="90.0" fill="#FEFFFF" transform="matrix(1.00, 0.00, -0.00, -1.00, 645.5, 316.7)">A</text><text xml:space="preserve" font-family="Impact,Impact" font-weight="bold" font-size="90.0" fill="#FEFFFF" transform="matrix(1.00, 0.00, -0.00, -1.00, 691.2, 316.7)">S</text><text xml:space="preserve" font-family="Impact,Impact" font-weight="bold" font-size="90.0" fill="#FEFFFF" transform="matrix(1.00, 0.00, -0.00, -1.00, 737.8, 316.7)"> </text><text xml:space="preserve" font-family="Impact,Impact" font-weight="bold" font-size="90.0" fill="#FEFFFF" transform="matrix(1.00, 0.00, -0.00, -1.00, 753.7, 316.7)">A</text><text xml:space="preserve" font-family="Impact,Impact" font-weight="bold" font-size="90.0" fill="#FEFFFF" transform="matrix(1.00, 0.00, -0.00, -1.00, 799.4, 316.7)">C</text><text xml:space="preserve" font-family="Impact,Impact" font-weight="bold" font-size="90.0" fill="#FEFFFF" transform="matrix(1.00, 0.00, -0.00, -1.00, 849.2, 316.7)">T</text><text xml:space="preserve" font-family="Impact,Impact" font-weight="bold" font-size="90.0" fill="#FEFFFF" transform="matrix(1.00, 0.00, -0.00, -1.00, 890.7, 316.7)">U</text><text xml:space="preserve" font-family="Impact,Impact" font-weight="bold" font-size="90.0" fill="#FEFFFF" transform="matrix(1.00, 0.00, -0.00, -1.00, 939.9, 316.7)">A</text><text xml:space="preserve" font-family="Impact,Impact" font-weight="bold" font-size="90.0" fill="#FEFFFF" transform="matrix(1.00, 0.00, -0.00, -1.00, 985.6, 316.7)">L</text><text xml:space="preserve" font-family="Impact,Impact" font-weight="bold" font-size="90.0" fill="#FEFFFF" transform="matrix(1.00, 0.00, -0.00, -1.00, 1019.9, 316.7)">L</text><text xml:space="preserve" font-family="Impact,Impact" font-weight="bold" font-size="90.0" fill="#FEFFFF" transform="matrix(1.00, 0.00, -0.00, -1.00, 1048.3, 316.7)">Y</text><text xml:space="preserve" font-family="Impact,Impact" font-weight="bold" font-size="90.0" fill="#FEFFFF" transform="matrix(1.00, 0.00, -0.00, -1.00, 1090.9, 316.7)"> </text><text xml:space="preserve" font-family="Impact,Impact" font-weight="bold" font-size="90.0" fill="#FEFFFF" transform="matrix(1.00, 0.00, -0.00, -1.00, 1106.8, 316.7)">S</text><text xml:space="preserve" font-family="Impact,Impact" font-weight="bold" font-size="90.0" fill="#FEFFFF" transform="matrix(1.00, 0.00, -0.00, -1.00, 1153.3, 316.7)">A</text><text xml:space="preserve" font-family="Impact,Impact" font-weight="bold" font-size="90.0" fill="#FEFFFF" transform="matrix(1.00, 0.00, -0.00, -1.00, 1199.0, 316.7)">F</text><text xml:space="preserve" font-family="Impact,Impact" font-weight="bold" font-size="90.0" fill="#FEFFFF" transform="matrix(1.00, 0.00, -0.00, -1.00, 1234.9, 316.7)">E</text><text xml:space="preserve" font-family="Impact,Impact" font-weight="bold" font-size="90.0" fill="#FEFFFF" transform="matrix(1.00, 0.00, -0.00, -1.00, 1272.2, 316.7)">?</text><text xml:space="preserve" font-family="Impact,Impact" font-weight="bold" font-size="90.0" fill="#FEFFFF" transform="matrix(1.00, 0.00, -0.00, -1.00, 1319.5, 316.7)">”</text></g></svg>